<?xml version="1.0" encoding="UTF-8" standalone="no"?>
<!DOCTYPE svg PUBLIC "-//W3C//DTD SVG 1.0//EN" "http://www.w3.org/TR/2001/PR-SVG-20010719/DTD/svg10.dtd">
<svg width="18cm" height="12cm" viewBox="39 -281 355 225" xmlns="http://www.w3.org/2000/svg" xmlns:xlink="http://www.w3.org/1999/xlink">
  <g>
    <line style="fill: none; fill-opacity:0; stroke-width: 2; stroke: #000000" x1="240.852" y1="-267.46" x2="240.602" y2="-207.96"/>
    <path style="fill: #000000" d="M 240.852 -267.46 C 241.852,-267.456 242.848,-266.452 242.843,-265.452 C 242.839,-264.452 241.835,-263.456 240.835,-263.46 C 239.835,-263.464 238.839,-264.469 238.843,-265.469 C 238.848,-266.469 239.852,-267.464 240.852,-267.46z"/>
    <path style="fill: none; fill-opacity:0; stroke-width: 2; stroke: #000000" d="M 240.852 -267.46 C 241.852,-267.456 242.848,-266.452 242.843,-265.452 C 242.839,-264.452 241.835,-263.456 240.835,-263.46 C 239.835,-263.464 238.839,-264.469 238.843,-265.469 C 238.848,-266.469 239.852,-267.464 240.852,-267.46"/>
    <path style="fill: #000000" d="M 240.602 -207.96 C 239.602,-207.964 238.606,-208.969 238.61,-209.969 C 238.614,-210.969 239.619,-211.964 240.619,-211.96 C 241.619,-211.956 242.614,-210.952 242.61,-209.952 C 242.606,-208.952 241.602,-207.956 240.602,-207.96z"/>
    <path style="fill: none; fill-opacity:0; stroke-width: 2; stroke: #000000" d="M 240.602 -207.96 C 239.602,-207.964 238.606,-208.969 238.61,-209.969 C 238.614,-210.969 239.619,-211.964 240.619,-211.96 C 241.619,-211.956 242.614,-210.952 242.61,-209.952 C 242.606,-208.952 241.602,-207.956 240.602,-207.96"/>
  </g>
  <g>
    <line style="fill: none; fill-opacity:0; stroke-width: 2; stroke: #000000" x1="239.352" y1="-266.46" x2="282.352" y2="-234.71"/>
    <path style="fill: #000000" d="M 239.352 -266.46 C 239.946,-267.265 241.344,-267.475 242.149,-266.881 C 242.953,-266.287 243.164,-264.889 242.57,-264.084 C 241.976,-263.28 240.577,-263.069 239.773,-263.663 C 238.968,-264.257 238.758,-265.656 239.352,-266.46z"/>
    <path style="fill: none; fill-opacity:0; stroke-width: 2; stroke: #000000" d="M 239.352 -266.46 C 239.946,-267.265 241.344,-267.475 242.149,-266.881 C 242.953,-266.287 243.164,-264.889 242.57,-264.084 C 241.976,-263.28 240.577,-263.069 239.773,-263.663 C 238.968,-264.257 238.758,-265.656 239.352,-266.46"/>
    <path style="fill: #000000" d="M 282.352 -234.71 C 281.758,-233.906 280.359,-233.695 279.555,-234.289 C 278.75,-234.883 278.54,-236.282 279.134,-237.086 C 279.728,-237.891 281.126,-238.101 281.931,-237.507 C 282.735,-236.913 282.946,-235.515 282.352,-234.71z"/>
    <path style="fill: none; fill-opacity:0; stroke-width: 2; stroke: #000000" d="M 282.352 -234.71 C 281.758,-233.906 280.359,-233.695 279.555,-234.289 C 278.75,-234.883 278.54,-236.282 279.134,-237.086 C 279.728,-237.891 281.126,-238.101 281.931,-237.507 C 282.735,-236.913 282.946,-235.515 282.352,-234.71"/>
  </g>
  <g>
    <line style="fill: none; fill-opacity:0; stroke-width: 2; stroke: #000000" x1="239.352" y1="-208.71" x2="282.602" y2="-236.46"/>
    <path style="fill: #000000" d="M 239.352 -208.71 C 238.812,-209.552 239.113,-210.933 239.955,-211.473 C 240.797,-212.014 242.178,-211.712 242.718,-210.87 C 243.258,-210.029 242.957,-208.647 242.115,-208.107 C 241.274,-207.567 239.892,-207.868 239.352,-208.71z"/>
    <path style="fill: none; fill-opacity:0; stroke-width: 2; stroke: #000000" d="M 239.352 -208.71 C 238.812,-209.552 239.113,-210.933 239.955,-211.473 C 240.797,-212.014 242.178,-211.712 242.718,-210.87 C 243.258,-210.029 242.957,-208.647 242.115,-208.107 C 241.274,-207.567 239.892,-207.868 239.352,-208.71"/>
    <path style="fill: #000000" d="M 282.602 -236.46 C 283.142,-235.618 282.84,-234.237 281.999,-233.697 C 281.157,-233.157 279.775,-233.458 279.235,-234.3 C 278.695,-235.142 278.997,-236.523 279.838,-237.063 C 280.68,-237.603 282.062,-237.302 282.602,-236.46z"/>
    <path style="fill: none; fill-opacity:0; stroke-width: 2; stroke: #000000" d="M 282.602 -236.46 C 283.142,-235.618 282.84,-234.237 281.999,-233.697 C 281.157,-233.157 279.775,-233.458 279.235,-234.3 C 278.695,-235.142 278.997,-236.523 279.838,-237.063 C 280.68,-237.603 282.062,-237.302 282.602,-236.46"/>
  </g>
  <g>
    <line style="fill: none; fill-opacity:0; stroke-width: 2; stroke: #000000" x1="239.127" y1="-264.875" x2="302.852" y2="-269.46"/>
    <path style="fill: #000000" d="M 239.127 -264.875 C 239.055,-265.872 239.981,-266.942 240.978,-267.013 C 241.976,-267.085 243.045,-266.159 243.117,-265.162 C 243.188,-264.165 242.263,-263.095 241.265,-263.024 C 240.268,-262.952 239.199,-263.878 239.127,-264.875z"/>
    <path style="fill: none; fill-opacity:0; stroke-width: 2; stroke: #000000" d="M 239.127 -264.875 C 239.055,-265.872 239.981,-266.942 240.978,-267.013 C 241.976,-267.085 243.045,-266.159 243.117,-265.162 C 243.188,-264.165 242.263,-263.095 241.265,-263.024 C 240.268,-262.952 239.199,-263.878 239.127,-264.875"/>
    <path style="fill: #000000" d="M 302.852 -269.46 C 302.924,-268.463 301.998,-267.394 301.001,-267.322 C 300.003,-267.25 298.934,-268.176 298.862,-269.173 C 298.79,-270.171 299.716,-271.24 300.713,-271.311 C 301.711,-271.383 302.78,-270.458 302.852,-269.46z"/>
    <path style="fill: none; fill-opacity:0; stroke-width: 2; stroke: #000000" d="M 302.852 -269.46 C 302.924,-268.463 301.998,-267.394 301.001,-267.322 C 300.003,-267.25 298.934,-268.176 298.862,-269.173 C 298.79,-270.171 299.716,-271.24 300.713,-271.311 C 301.711,-271.383 302.78,-270.458 302.852,-269.46"/>
  </g>
  <g>
    <line style="fill: none; fill-opacity:0; stroke-width: 2; stroke: #000000" x1="301.852" y1="-271.21" x2="279.877" y2="-234"/>
    <path style="fill: #000000" d="M 301.852 -271.21 C 302.713,-270.702 303.065,-269.332 302.557,-268.471 C 302.048,-267.61 300.679,-267.257 299.818,-267.766 C 298.957,-268.274 298.604,-269.644 299.113,-270.505 C 299.621,-271.366 300.991,-271.719 301.852,-271.21z"/>
    <path style="fill: none; fill-opacity:0; stroke-width: 2; stroke: #000000" d="M 301.852 -271.21 C 302.713,-270.702 303.065,-269.332 302.557,-268.471 C 302.048,-267.61 300.679,-267.257 299.818,-267.766 C 298.957,-268.274 298.604,-269.644 299.113,-270.505 C 299.621,-271.366 300.991,-271.719 301.852,-271.21"/>
    <path style="fill: #000000" d="M 279.877 -234 C 279.016,-234.509 278.663,-235.878 279.172,-236.739 C 279.68,-237.6 281.05,-237.953 281.911,-237.444 C 282.772,-236.936 283.125,-235.566 282.616,-234.705 C 282.108,-233.844 280.738,-233.491 279.877,-234z"/>
    <path style="fill: none; fill-opacity:0; stroke-width: 2; stroke: #000000" d="M 279.877 -234 C 279.016,-234.509 278.663,-235.878 279.172,-236.739 C 279.68,-237.6 281.05,-237.953 281.911,-237.444 C 282.772,-236.936 283.125,-235.566 282.616,-234.705 C 282.108,-233.844 280.738,-233.491 279.877,-234"/>
  </g>
  <g>
    <line style="fill: none; fill-opacity:0; stroke-width: 2; stroke: #000000" x1="299.627" y1="-270.875" x2="333.602" y2="-234.71"/>
    <path style="fill: #000000" d="M 299.627 -270.875 C 300.356,-271.56 301.769,-271.516 302.454,-270.787 C 303.139,-270.058 303.095,-268.644 302.366,-267.96 C 301.637,-267.275 300.223,-267.319 299.539,-268.048 C 298.854,-268.777 298.898,-270.19 299.627,-270.875z"/>
    <path style="fill: none; fill-opacity:0; stroke-width: 2; stroke: #000000" d="M 299.627 -270.875 C 300.356,-271.56 301.769,-271.516 302.454,-270.787 C 303.139,-270.058 303.095,-268.644 302.366,-267.96 C 301.637,-267.275 300.223,-267.319 299.539,-268.048 C 298.854,-268.777 298.898,-270.19 299.627,-270.875"/>
    <path style="fill: #000000" d="M 333.602 -234.71 C 332.873,-234.025 331.459,-234.07 330.775,-234.798 C 330.09,-235.527 330.134,-236.941 330.863,-237.625 C 331.592,-238.31 333.005,-238.266 333.69,-237.537 C 334.375,-236.808 334.331,-235.395 333.602,-234.71z"/>
    <path style="fill: none; fill-opacity:0; stroke-width: 2; stroke: #000000" d="M 333.602 -234.71 C 332.873,-234.025 331.459,-234.07 330.775,-234.798 C 330.09,-235.527 330.134,-236.941 330.863,-237.625 C 331.592,-238.31 333.005,-238.266 333.69,-237.537 C 334.375,-236.808 334.331,-235.395 333.602,-234.71"/>
  </g>
  <g>
    <line style="fill: none; fill-opacity:0; stroke-width: 2; stroke: #000000" x1="279.602" y1="-235.46" x2="334.102" y2="-235.46"/>
    <path style="fill: #000000" d="M 279.602 -235.46 C 279.602,-236.46 280.602,-237.46 281.602,-237.46 C 282.602,-237.46 283.602,-236.46 283.602,-235.46 C 283.602,-234.46 282.602,-233.46 281.602,-233.46 C 280.602,-233.46 279.602,-234.46 279.602,-235.46z"/>
    <path style="fill: none; fill-opacity:0; stroke-width: 2; stroke: #000000" d="M 279.602 -235.46 C 279.602,-236.46 280.602,-237.46 281.602,-237.46 C 282.602,-237.46 283.602,-236.46 283.602,-235.46 C 283.602,-234.46 282.602,-233.46 281.602,-233.46 C 280.602,-233.46 279.602,-234.46 279.602,-235.46"/>
    <path style="fill: #000000" d="M 334.102 -235.46 C 334.102,-234.46 333.102,-233.46 332.102,-233.46 C 331.102,-233.46 330.102,-234.46 330.102,-235.46 C 330.102,-236.46 331.102,-237.46 332.102,-237.46 C 333.102,-237.46 334.102,-236.46 334.102,-235.46z"/>
    <path style="fill: none; fill-opacity:0; stroke-width: 2; stroke: #000000" d="M 334.102 -235.46 C 334.102,-234.46 333.102,-233.46 332.102,-233.46 C 331.102,-233.46 330.102,-234.46 330.102,-235.46 C 330.102,-236.46 331.102,-237.46 332.102,-237.46 C 333.102,-237.46 334.102,-236.46 334.102,-235.46"/>
  </g>
  <g>
    <line style="fill: none; fill-opacity:0; stroke-width: 2; stroke: #000000" x1="298.627" y1="-269.5" x2="356.602" y2="-269.21"/>
    <path style="fill: #000000" d="M 298.627 -269.5 C 298.632,-270.5 299.637,-271.495 300.637,-271.49 C 301.637,-271.485 302.632,-270.48 302.627,-269.48 C 302.622,-268.48 301.617,-267.485 300.617,-267.49 C 299.617,-267.495 298.622,-268.5 298.627,-269.5z"/>
    <path style="fill: none; fill-opacity:0; stroke-width: 2; stroke: #000000" d="M 298.627 -269.5 C 298.632,-270.5 299.637,-271.495 300.637,-271.49 C 301.637,-271.485 302.632,-270.48 302.627,-269.48 C 302.622,-268.48 301.617,-267.485 300.617,-267.49 C 299.617,-267.495 298.622,-268.5 298.627,-269.5"/>
    <path style="fill: #000000" d="M 356.602 -269.21 C 356.597,-268.21 355.592,-267.215 354.592,-267.22 C 353.592,-267.225 352.597,-268.23 352.602,-269.23 C 352.607,-270.23 353.612,-271.225 354.612,-271.22 C 355.612,-271.215 356.607,-270.21 356.602,-269.21z"/>
    <path style="fill: none; fill-opacity:0; stroke-width: 2; stroke: #000000" d="M 356.602 -269.21 C 356.597,-268.21 355.592,-267.215 354.592,-267.22 C 353.592,-267.225 352.597,-268.23 352.602,-269.23 C 352.607,-270.23 353.612,-271.225 354.612,-271.22 C 355.612,-271.215 356.607,-270.21 356.602,-269.21"/>
  </g>
  <g>
    <line style="fill: none; fill-opacity:0; stroke-width: 2; stroke: #000000" x1="356.102" y1="-271.21" x2="331.877" y2="-234.25"/>
    <path style="fill: #000000" d="M 356.102 -271.21 C 356.938,-270.662 357.226,-269.277 356.678,-268.441 C 356.13,-267.605 354.745,-267.317 353.909,-267.865 C 353.073,-268.413 352.785,-269.797 353.333,-270.634 C 353.881,-271.47 355.265,-271.758 356.102,-271.21z"/>
    <path style="fill: none; fill-opacity:0; stroke-width: 2; stroke: #000000" d="M 356.102 -271.21 C 356.938,-270.662 357.226,-269.277 356.678,-268.441 C 356.13,-267.605 354.745,-267.317 353.909,-267.865 C 353.073,-268.413 352.785,-269.797 353.333,-270.634 C 353.881,-271.47 355.265,-271.758 356.102,-271.21"/>
    <path style="fill: #000000" d="M 331.877 -234.25 C 331.041,-234.798 330.752,-236.183 331.301,-237.019 C 331.849,-237.855 333.233,-238.144 334.07,-237.595 C 334.906,-237.047 335.194,-235.663 334.646,-234.826 C 334.098,-233.99 332.713,-233.702 331.877,-234.25z"/>
    <path style="fill: none; fill-opacity:0; stroke-width: 2; stroke: #000000" d="M 331.877 -234.25 C 331.041,-234.798 330.752,-236.183 331.301,-237.019 C 331.849,-237.855 333.233,-238.144 334.07,-237.595 C 334.906,-237.047 335.194,-235.663 334.646,-234.826 C 334.098,-233.99 332.713,-233.702 331.877,-234.25"/>
  </g>
  <g>
    <line style="fill: none; fill-opacity:0; stroke-width: 2; stroke: #000000" x1="353.627" y1="-270.625" x2="392.602" y2="-245.21"/>
    <path style="fill: #000000" d="M 353.627 -270.625 C 354.173,-271.463 355.557,-271.754 356.395,-271.208 C 357.232,-270.662 357.524,-269.278 356.978,-268.44 C 356.431,-267.602 355.048,-267.311 354.21,-267.857 C 353.372,-268.403 353.081,-269.787 353.627,-270.625z"/>
    <path style="fill: none; fill-opacity:0; stroke-width: 2; stroke: #000000" d="M 353.627 -270.625 C 354.173,-271.463 355.557,-271.754 356.395,-271.208 C 357.232,-270.662 357.524,-269.278 356.978,-268.44 C 356.431,-267.602 355.048,-267.311 354.21,-267.857 C 353.372,-268.403 353.081,-269.787 353.627,-270.625"/>
    <path style="fill: #000000" d="M 392.602 -245.21 C 392.056,-244.373 390.672,-244.081 389.834,-244.627 C 388.996,-245.174 388.705,-246.557 389.251,-247.395 C 389.797,-248.233 391.181,-248.524 392.019,-247.978 C 392.857,-247.432 393.148,-246.048 392.602,-245.21z"/>
    <path style="fill: none; fill-opacity:0; stroke-width: 2; stroke: #000000" d="M 392.602 -245.21 C 392.056,-244.373 390.672,-244.081 389.834,-244.627 C 388.996,-245.174 388.705,-246.557 389.251,-247.395 C 389.797,-248.233 391.181,-248.524 392.019,-247.978 C 392.857,-247.432 393.148,-246.048 392.602,-245.21"/>
  </g>
  <g>
    <line style="fill: none; fill-opacity:0; stroke-width: 2; stroke: #000000" x1="331.752" y1="-235.125" x2="392.852" y2="-246.46"/>
    <path style="fill: #000000" d="M 331.752 -235.125 C 331.57,-236.108 332.37,-237.274 333.354,-237.456 C 334.337,-237.639 335.502,-236.838 335.685,-235.855 C 335.867,-234.871 335.066,-233.706 334.083,-233.523 C 333.1,-233.341 331.934,-234.142 331.752,-235.125z"/>
    <path style="fill: none; fill-opacity:0; stroke-width: 2; stroke: #000000" d="M 331.752 -235.125 C 331.57,-236.108 332.37,-237.274 333.354,-237.456 C 334.337,-237.639 335.502,-236.838 335.685,-235.855 C 335.867,-234.871 335.066,-233.706 334.083,-233.523 C 333.1,-233.341 331.934,-234.142 331.752,-235.125"/>
    <path style="fill: #000000" d="M 392.852 -246.46 C 393.034,-245.477 392.233,-244.311 391.25,-244.129 C 390.267,-243.946 389.101,-244.747 388.919,-245.731 C 388.737,-246.714 389.537,-247.879 390.521,-248.062 C 391.504,-248.244 392.669,-247.443 392.852,-246.46z"/>
    <path style="fill: none; fill-opacity:0; stroke-width: 2; stroke: #000000" d="M 392.852 -246.46 C 393.034,-245.477 392.233,-244.311 391.25,-244.129 C 390.267,-243.946 389.101,-244.747 388.919,-245.731 C 388.737,-246.714 389.537,-247.879 390.521,-248.062 C 391.504,-248.244 392.669,-247.443 392.852,-246.46"/>
  </g>
  <g>
    <line style="fill: none; fill-opacity:0; stroke-width: 2; stroke: #000000" x1="391.602" y1="-247.96" x2="371.352" y2="-202.21"/>
    <path style="fill: #000000" d="M 391.602 -247.96 C 392.516,-247.555 393.026,-246.236 392.621,-245.322 C 392.216,-244.407 390.897,-243.898 389.983,-244.302 C 389.068,-244.707 388.559,-246.026 388.963,-246.941 C 389.368,-247.855 390.687,-248.365 391.602,-247.96z"/>
    <path style="fill: none; fill-opacity:0; stroke-width: 2; stroke: #000000" d="M 391.602 -247.96 C 392.516,-247.555 393.026,-246.236 392.621,-245.322 C 392.216,-244.407 390.897,-243.898 389.983,-244.302 C 389.068,-244.707 388.559,-246.026 388.963,-246.941 C 389.368,-247.855 390.687,-248.365 391.602,-247.96"/>
    <path style="fill: #000000" d="M 371.352 -202.21 C 370.437,-202.615 369.928,-203.934 370.332,-204.849 C 370.737,-205.763 372.056,-206.273 372.971,-205.868 C 373.885,-205.463 374.395,-204.144 373.99,-203.23 C 373.585,-202.315 372.266,-201.805 371.352,-202.21z"/>
    <path style="fill: none; fill-opacity:0; stroke-width: 2; stroke: #000000" d="M 371.352 -202.21 C 370.437,-202.615 369.928,-203.934 370.332,-204.849 C 370.737,-205.763 372.056,-206.273 372.971,-205.868 C 373.885,-205.463 374.395,-204.144 373.99,-203.23 C 373.585,-202.315 372.266,-201.805 371.352,-202.21"/>
  </g>
  <g>
    <line style="fill: none; fill-opacity:0; stroke-width: 2; stroke: #000000" x1="331.002" y1="-237" x2="372.602" y2="-202.71"/>
    <path style="fill: #000000" d="M 331.002 -237 C 331.638,-237.772 333.046,-237.907 333.817,-237.271 C 334.589,-236.635 334.725,-235.227 334.089,-234.456 C 333.453,-233.684 332.045,-233.549 331.273,-234.185 C 330.502,-234.821 330.366,-236.228 331.002,-237z"/>
    <path style="fill: none; fill-opacity:0; stroke-width: 2; stroke: #000000" d="M 331.002 -237 C 331.638,-237.772 333.046,-237.907 333.817,-237.271 C 334.589,-236.635 334.725,-235.227 334.089,-234.456 C 333.453,-233.684 332.045,-233.549 331.273,-234.185 C 330.502,-234.821 330.366,-236.228 331.002,-237"/>
    <path style="fill: #000000" d="M 372.602 -202.71 C 371.966,-201.939 370.558,-201.803 369.786,-202.439 C 369.015,-203.075 368.879,-204.483 369.515,-205.254 C 370.151,-206.026 371.559,-206.162 372.331,-205.526 C 373.102,-204.889 373.238,-203.482 372.602,-202.71z"/>
    <path style="fill: none; fill-opacity:0; stroke-width: 2; stroke: #000000" d="M 372.602 -202.71 C 371.966,-201.939 370.558,-201.803 369.786,-202.439 C 369.015,-203.075 368.879,-204.483 369.515,-205.254 C 370.151,-206.026 371.559,-206.162 372.331,-205.526 C 373.102,-204.889 373.238,-203.482 372.602,-202.71"/>
  </g>
  <g>
    <line style="fill: none; fill-opacity:0; stroke-width: 2; stroke: #000000" x1="333.602" y1="-237.21" x2="308.352" y2="-202.46"/>
    <path style="fill: #000000" d="M 333.602 -237.21 C 334.411,-236.622 334.632,-235.226 334.044,-234.417 C 333.456,-233.608 332.059,-233.386 331.251,-233.974 C 330.442,-234.562 330.22,-235.959 330.808,-236.768 C 331.396,-237.577 332.793,-237.798 333.602,-237.21z"/>
    <path style="fill: none; fill-opacity:0; stroke-width: 2; stroke: #000000" d="M 333.602 -237.21 C 334.411,-236.622 334.632,-235.226 334.044,-234.417 C 333.456,-233.608 332.059,-233.386 331.251,-233.974 C 330.442,-234.562 330.22,-235.959 330.808,-236.768 C 331.396,-237.577 332.793,-237.798 333.602,-237.21"/>
    <path style="fill: #000000" d="M 308.352 -202.46 C 307.543,-203.048 307.322,-204.445 307.909,-205.254 C 308.497,-206.063 309.894,-206.284 310.703,-205.696 C 311.512,-205.108 311.733,-203.711 311.145,-202.902 C 310.558,-202.093 309.161,-201.872 308.352,-202.46z"/>
    <path style="fill: none; fill-opacity:0; stroke-width: 2; stroke: #000000" d="M 308.352 -202.46 C 307.543,-203.048 307.322,-204.445 307.909,-205.254 C 308.497,-206.063 309.894,-206.284 310.703,-205.696 C 311.512,-205.108 311.733,-203.711 311.145,-202.902 C 310.558,-202.093 309.161,-201.872 308.352,-202.46"/>
  </g>
  <g>
    <line style="fill: none; fill-opacity:0; stroke-width: 2; stroke: #000000" x1="308.502" y1="-203.75" x2="373.352" y2="-203.96"/>
    <path style="fill: #000000" d="M 308.502 -203.75 C 308.499,-204.75 309.496,-205.753 310.496,-205.756 C 311.496,-205.76 312.499,-204.763 312.502,-203.763 C 312.505,-202.763 311.508,-201.76 310.508,-201.756 C 309.508,-201.753 308.505,-202.75 308.502,-203.75z"/>
    <path style="fill: none; fill-opacity:0; stroke-width: 2; stroke: #000000" d="M 308.502 -203.75 C 308.499,-204.75 309.496,-205.753 310.496,-205.756 C 311.496,-205.76 312.499,-204.763 312.502,-203.763 C 312.505,-202.763 311.508,-201.76 310.508,-201.756 C 309.508,-201.753 308.505,-202.75 308.502,-203.75"/>
    <path style="fill: #000000" d="M 373.352 -203.96 C 373.355,-202.96 372.358,-201.957 371.358,-201.954 C 370.358,-201.95 369.355,-202.947 369.352,-203.947 C 369.349,-204.947 370.345,-205.95 371.345,-205.954 C 372.345,-205.957 373.349,-204.96 373.352,-203.96z"/>
    <path style="fill: none; fill-opacity:0; stroke-width: 2; stroke: #000000" d="M 373.352 -203.96 C 373.355,-202.96 372.358,-201.957 371.358,-201.954 C 370.358,-201.95 369.355,-202.947 369.352,-203.947 C 369.349,-204.947 370.345,-205.95 371.345,-205.954 C 372.345,-205.957 373.349,-204.96 373.352,-203.96"/>
  </g>
  <g>
    <line style="fill: none; fill-opacity:0; stroke-width: 2; stroke: #000000" x1="280.877" y1="-236.875" x2="310.852" y2="-202.71"/>
    <path style="fill: #000000" d="M 280.877 -236.875 C 281.629,-237.535 283.04,-237.442 283.699,-236.691 C 284.359,-235.939 284.267,-234.528 283.515,-233.868 C 282.763,-233.209 281.352,-233.301 280.693,-234.053 C 280.033,-234.804 280.125,-236.215 280.877,-236.875z"/>
    <path style="fill: none; fill-opacity:0; stroke-width: 2; stroke: #000000" d="M 280.877 -236.875 C 281.629,-237.535 283.04,-237.442 283.699,-236.691 C 284.359,-235.939 284.267,-234.528 283.515,-233.868 C 282.763,-233.209 281.352,-233.301 280.693,-234.053 C 280.033,-234.804 280.125,-236.215 280.877,-236.875"/>
    <path style="fill: #000000" d="M 310.852 -202.71 C 310.1,-202.051 308.689,-202.143 308.029,-202.895 C 307.37,-203.646 307.462,-205.057 308.214,-205.717 C 308.965,-206.376 310.377,-206.284 311.036,-205.533 C 311.696,-204.781 311.604,-203.37 310.852,-202.71z"/>
    <path style="fill: none; fill-opacity:0; stroke-width: 2; stroke: #000000" d="M 310.852 -202.71 C 310.1,-202.051 308.689,-202.143 308.029,-202.895 C 307.37,-203.646 307.462,-205.057 308.214,-205.717 C 308.965,-206.376 310.377,-206.284 311.036,-205.533 C 311.696,-204.781 311.604,-203.37 310.852,-202.71"/>
  </g>
  <g>
    <line style="fill: none; fill-opacity:0; stroke-width: 2; stroke: #000000" x1="281.852" y1="-236.96" x2="281.602" y2="-190.71"/>
    <path style="fill: #000000" d="M 281.852 -236.96 C 282.852,-236.955 283.846,-235.949 283.841,-234.949 C 283.836,-233.949 282.83,-232.955 281.83,-232.96 C 280.83,-232.966 279.836,-233.971 279.841,-234.971 C 279.846,-235.971 280.852,-236.966 281.852,-236.96z"/>
    <path style="fill: none; fill-opacity:0; stroke-width: 2; stroke: #000000" d="M 281.852 -236.96 C 282.852,-236.955 283.846,-235.949 283.841,-234.949 C 283.836,-233.949 282.83,-232.955 281.83,-232.96 C 280.83,-232.966 279.836,-233.971 279.841,-234.971 C 279.846,-235.971 280.852,-236.966 281.852,-236.96"/>
    <path style="fill: #000000" d="M 281.602 -190.71 C 280.602,-190.716 279.607,-191.721 279.613,-192.721 C 279.618,-193.721 280.623,-194.715 281.623,-194.71 C 282.623,-194.705 283.618,-193.699 283.613,-192.699 C 283.607,-191.699 282.602,-190.705 281.602,-190.71z"/>
    <path style="fill: none; fill-opacity:0; stroke-width: 2; stroke: #000000" d="M 281.602 -190.71 C 280.602,-190.716 279.607,-191.721 279.613,-192.721 C 279.618,-193.721 280.623,-194.715 281.623,-194.71 C 282.623,-194.705 283.618,-193.699 283.613,-192.699 C 283.607,-191.699 282.602,-190.705 281.602,-190.71"/>
  </g>
  <g>
    <line style="fill: none; fill-opacity:0; stroke-width: 2; stroke: #000000" x1="238.602" y1="-209.96" x2="283.102" y2="-192.21"/>
    <path style="fill: #000000" d="M 238.602 -209.96 C 238.972,-210.889 240.272,-211.447 241.2,-211.077 C 242.129,-210.706 242.688,-209.407 242.317,-208.478 C 241.947,-207.549 240.647,-206.991 239.719,-207.361 C 238.79,-207.732 238.231,-209.031 238.602,-209.96z"/>
    <path style="fill: none; fill-opacity:0; stroke-width: 2; stroke: #000000" d="M 238.602 -209.96 C 238.972,-210.889 240.272,-211.447 241.2,-211.077 C 242.129,-210.706 242.688,-209.407 242.317,-208.478 C 241.947,-207.549 240.647,-206.991 239.719,-207.361 C 238.79,-207.732 238.231,-209.031 238.602,-209.96"/>
    <path style="fill: #000000" d="M 283.102 -192.21 C 282.731,-191.281 281.432,-190.723 280.503,-191.093 C 279.574,-191.464 279.016,-192.763 279.386,-193.692 C 279.757,-194.621 281.056,-195.179 281.985,-194.809 C 282.914,-194.438 283.472,-193.139 283.102,-192.21z"/>
    <path style="fill: none; fill-opacity:0; stroke-width: 2; stroke: #000000" d="M 283.102 -192.21 C 282.731,-191.281 281.432,-190.723 280.503,-191.093 C 279.574,-191.464 279.016,-192.763 279.386,-193.692 C 279.757,-194.621 281.056,-195.179 281.985,-194.809 C 282.914,-194.438 283.472,-193.139 283.102,-192.21"/>
  </g>
  <g>
    <line style="fill: none; fill-opacity:0; stroke-width: 2; stroke: #000000" x1="279.602" y1="-191.96" x2="311.352" y2="-204.46"/>
    <path style="fill: #000000" d="M 279.602 -191.96 C 279.235,-192.891 279.8,-194.187 280.73,-194.554 C 281.661,-194.92 282.957,-194.356 283.324,-193.425 C 283.69,-192.495 283.126,-191.198 282.195,-190.832 C 281.265,-190.466 279.968,-191.03 279.602,-191.96z"/>
    <path style="fill: none; fill-opacity:0; stroke-width: 2; stroke: #000000" d="M 279.602 -191.96 C 279.235,-192.891 279.8,-194.187 280.73,-194.554 C 281.661,-194.92 282.957,-194.356 283.324,-193.425 C 283.69,-192.495 283.126,-191.198 282.195,-190.832 C 281.265,-190.466 279.968,-191.03 279.602,-191.96"/>
    <path style="fill: #000000" d="M 311.352 -204.46 C 311.718,-203.53 311.154,-202.233 310.224,-201.867 C 309.293,-201.5 307.996,-202.064 307.63,-202.995 C 307.264,-203.925 307.828,-205.222 308.758,-205.588 C 309.689,-205.955 310.985,-205.391 311.352,-204.46z"/>
    <path style="fill: none; fill-opacity:0; stroke-width: 2; stroke: #000000" d="M 311.352 -204.46 C 311.718,-203.53 311.154,-202.233 310.224,-201.867 C 309.293,-201.5 307.996,-202.064 307.63,-202.995 C 307.264,-203.925 307.828,-205.222 308.758,-205.588 C 309.689,-205.955 310.985,-205.391 311.352,-204.46"/>
  </g>
  <text font-size="6.77323" style="fill: #ff0000;text-anchor:start;font-family:sans-serif;font-style:normal;font-weight:normal" x="247.102" y="-233.21">
    <tspan x="247.102" y="-233.21">(2, 0)</tspan>
  </text>
  <text font-size="6.77323" style="fill: #ff0000;text-anchor:start;font-family:sans-serif;font-style:normal;font-weight:normal" x="258.802" y="-211.235">
    <tspan x="258.802" y="-211.235">(2, 1)</tspan>
  </text>
  <text font-size="6.77323" style="fill: #ff0000;text-anchor:start;font-family:sans-serif;font-style:normal;font-weight:normal" x="283.752" y="-204.26">
    <tspan x="283.752" y="-204.26">(2, 2)</tspan>
  </text>
  <text font-size="6.77323" style="fill: #ff0000;text-anchor:start;font-family:sans-serif;font-style:normal;font-weight:normal" x="301.202" y="-223.535">
    <tspan x="301.202" y="-223.535">(2, 3)</tspan>
  </text>
  <text font-size="6.77323" style="fill: #ff0000;text-anchor:start;font-family:sans-serif;font-style:normal;font-weight:normal" x="328.402" y="-211.56">
    <tspan x="328.402" y="-211.56">(2, 4)</tspan>
  </text>
  <text font-size="6.77323" style="fill: #ff0000;text-anchor:start;font-family:sans-serif;font-style:normal;font-weight:normal" x="356.102" y="-226.335">
    <tspan x="356.102" y="-226.335">(2, 5)</tspan>
  </text>
  <text font-size="6.77323" style="fill: #ff0000;text-anchor:start;font-family:sans-serif;font-style:normal;font-weight:normal" x="351.552" y="-249.36">
    <tspan x="351.552" y="-249.36">(2, 6)</tspan>
  </text>
  <text font-size="6.77323" style="fill: #ff0000;text-anchor:start;font-family:sans-serif;font-style:normal;font-weight:normal" x="323.752" y="-256.635">
    <tspan x="323.752" y="-256.635">(2, 7)</tspan>
  </text>
  <text font-size="6.77323" style="fill: #ff0000;text-anchor:start;font-family:sans-serif;font-style:normal;font-weight:normal" x="295.952" y="-245.41">
    <tspan x="295.952" y="-245.41">(2, 8)</tspan>
  </text>
  <text font-size="6.77323" style="fill: #ff0000;text-anchor:start;font-family:sans-serif;font-style:normal;font-weight:normal" x="266.152" y="-255.685">
    <tspan x="266.152" y="-255.685">(2, 9)</tspan>
  </text>
  <text font-size="12.7998" style="fill: #ff0000;text-anchor:start;font-family:sans-serif;font-style:normal;font-weight:normal" x="269.602" y="-212.21">
    <tspan x="269.602" y="-212.21"></tspan>
  </text>
  <text font-size="6.77323" style="fill: #000000;text-anchor:start;font-family:sans-serif;font-style:normal;font-weight:normal" x="40.3518" y="-274.21">
    <tspan x="40.3518" y="-274.21">Cell to Cell</tspan>
    <tspan x="40.3518" y="-265.743">Connectivity</tspan>
    <tspan x="40.3518" y="-257.277">0 -&gt; {1, 9}</tspan>
    <tspan x="40.3518" y="-248.81">1 -&gt; {2, 0}</tspan>
    <tspan x="40.3518" y="-240.343">2 -&gt; {3, 1}</tspan>
    <tspan x="40.3518" y="-231.877">3 -&gt; {4, 8, 2}</tspan>
    <tspan x="40.3518" y="-223.41">4 -&gt; {5, 3}</tspan>
    <tspan x="40.3518" y="-214.943">5 -&gt; {6, 4}</tspan>
    <tspan x="40.3518" y="-206.477">6 -&gt; {7, 5}</tspan>
    <tspan x="40.3518" y="-198.01">7 -&gt; {8, 6}</tspan>
    <tspan x="40.3518" y="-189.543">8 -&gt; {9, 3, 7}</tspan>
    <tspan x="40.3518" y="-181.077">9 -&gt; {0, 8}</tspan>
  </text>
  <text font-size="6.77323" style="fill: #000000;text-anchor:start;font-family:sans-serif;font-style:normal;font-weight:normal" x="39.6018" y="-163.46">
    <tspan x="39.6018" y="-163.46">Serial CSR</tspan>
    <tspan x="39.6018" y="-154.993">xadj      0 2 4 6 9 11 13 15 17 20 </tspan>
    <tspan x="39.6018" y="-146.527">adjncy  1 9 2 0 3 1 4 8 2 5 3 6 4 7 5 8 6 9 3 7 0 8</tspan>
  </text>
  <text font-size="6.77323" style="fill: #000000;text-anchor:start;font-family:sans-serif;font-style:normal;font-weight:normal" x="39.3518" y="-125.46">
    <tspan x="39.3518" y="-125.46">Distributed CSR (2 partitions)</tspan>
    <tspan x="39.3518" y="-116.993">P0       xadj      0 2 4 6 9</tspan>
    <tspan x="39.3518" y="-108.527">           adjncy  1 9 2 0 3 1 4 8 2 5 3</tspan>
    <tspan x="39.3518" y="-100.06">           vtxdist  0 5 10</tspan>
    <tspan x="39.3518" y="-91.5935"></tspan>
    <tspan x="39.3518" y="-83.1268">P1       xadj      0 2 4 6 9</tspan>
    <tspan x="39.3518" y="-74.6602">           adjncy  6 4 7 5 8 6 9 3 7 0 8</tspan>
    <tspan x="39.3518" y="-66.1935">           vtxdist  0 5 10 </tspan>
    <tspan x="39.3518" y="-57.7268"></tspan>
  </text>
</svg>
