<?xml version="1.0" encoding="UTF-8" standalone="no"?>
<!DOCTYPE svg PUBLIC "-//W3C//DTD SVG 1.0//EN" "http://www.w3.org/TR/2001/PR-SVG-20010719/DTD/svg10.dtd">
<svg width="18cm" height="12cm" viewBox="39 -281 356 225" xmlns="http://www.w3.org/2000/svg" xmlns:xlink="http://www.w3.org/1999/xlink">
  <g>
    <polygon style="fill: #00ff00" points="241.616,-137.368 282.459,-107.891 333.321,-108.18 373.202,-76.777 310.973,-77.355 281.304,-65.2175 241.423,-81.9788 "/>
    <polygon style="fill: none; fill-opacity:0; stroke-width: 2; stroke: #000000" points="241.616,-137.368 282.459,-107.891 333.321,-108.18 373.202,-76.777 310.973,-77.355 281.304,-65.2175 241.423,-81.9788 "/>
  </g>
  <g>
    <polygon style="fill: #00ff00" points="241.616,-137.368 282.459,-107.891 333.321,-108.18 373.202,-76.777 310.973,-77.355 281.304,-65.2175 241.423,-81.9788 "/>
    <polygon style="fill: none; fill-opacity:0; stroke-width: 2; stroke: #000000" points="241.616,-137.368 282.459,-107.891 333.321,-108.18 373.202,-76.777 310.973,-77.355 281.304,-65.2175 241.423,-81.9788 "/>
  </g>
  <g>
    <polygon style="fill: #00ff00" points="241.616,-137.368 282.459,-107.891 333.321,-108.18 373.202,-76.777 310.973,-77.355 281.304,-65.2175 241.423,-81.9788 "/>
    <polygon style="fill: none; fill-opacity:0; stroke-width: 2; stroke: #000000" points="241.616,-137.368 282.459,-107.891 333.321,-108.18 373.202,-76.777 310.973,-77.355 281.304,-65.2175 241.423,-81.9788 "/>
  </g>
  <g>
    <line style="fill: none; fill-opacity:0; stroke-width: 2; stroke: #000000" x1="240.852" y1="-267.46" x2="240.602" y2="-207.96"/>
    <path style="fill: #000000" d="M 240.852 -267.46 C 241.852,-267.456 242.848,-266.452 242.844,-265.452 C 242.839,-264.452 241.835,-263.456 240.835,-263.46 C 239.835,-263.464 238.839,-264.468 238.844,-265.468 C 238.848,-266.468 239.852,-267.464 240.852,-267.46z"/>
    <path style="fill: none; fill-opacity:0; stroke-width: 2; stroke: #000000" d="M 240.852 -267.46 C 241.852,-267.456 242.848,-266.452 242.844,-265.452 C 242.839,-264.452 241.835,-263.456 240.835,-263.46 C 239.835,-263.464 238.839,-264.468 238.844,-265.468 C 238.848,-266.468 239.852,-267.464 240.852,-267.46"/>
    <path style="fill: #000000" d="M 240.602 -207.96 C 239.602,-207.964 238.606,-208.968 238.61,-209.968 C 238.615,-210.968 239.619,-211.964 240.619,-211.96 C 241.619,-211.956 242.615,-210.952 242.61,-209.952 C 242.606,-208.952 241.602,-207.956 240.602,-207.96z"/>
    <path style="fill: none; fill-opacity:0; stroke-width: 2; stroke: #000000" d="M 240.602 -207.96 C 239.602,-207.964 238.606,-208.968 238.61,-209.968 C 238.615,-210.968 239.619,-211.964 240.619,-211.96 C 241.619,-211.956 242.615,-210.952 242.61,-209.952 C 242.606,-208.952 241.602,-207.956 240.602,-207.96"/>
  </g>
  <g>
    <line style="fill: none; fill-opacity:0; stroke-width: 2; stroke: #000000" x1="239.352" y1="-266.46" x2="282.352" y2="-234.71"/>
    <path style="fill: #000000" d="M 239.352 -266.46 C 239.946,-267.264 241.344,-267.475 242.149,-266.881 C 242.953,-266.287 243.164,-264.888 242.57,-264.084 C 241.976,-263.28 240.577,-263.069 239.773,-263.663 C 238.968,-264.257 238.758,-265.656 239.352,-266.46z"/>
    <path style="fill: none; fill-opacity:0; stroke-width: 2; stroke: #000000" d="M 239.352 -266.46 C 239.946,-267.264 241.344,-267.475 242.149,-266.881 C 242.953,-266.287 243.164,-264.888 242.57,-264.084 C 241.976,-263.28 240.577,-263.069 239.773,-263.663 C 238.968,-264.257 238.758,-265.656 239.352,-266.46"/>
    <path style="fill: #000000" d="M 282.352 -234.71 C 281.758,-233.906 280.36,-233.695 279.555,-234.289 C 278.751,-234.883 278.54,-236.282 279.134,-237.086 C 279.728,-237.89 281.127,-238.101 281.931,-237.507 C 282.736,-236.913 282.946,-235.514 282.352,-234.71z"/>
    <path style="fill: none; fill-opacity:0; stroke-width: 2; stroke: #000000" d="M 282.352 -234.71 C 281.758,-233.906 280.36,-233.695 279.555,-234.289 C 278.751,-234.883 278.54,-236.282 279.134,-237.086 C 279.728,-237.89 281.127,-238.101 281.931,-237.507 C 282.736,-236.913 282.946,-235.514 282.352,-234.71"/>
  </g>
  <g>
    <line style="fill: none; fill-opacity:0; stroke-width: 2; stroke: #000000" x1="239.352" y1="-208.71" x2="282.602" y2="-236.46"/>
    <path style="fill: #000000" d="M 239.352 -208.71 C 238.812,-209.552 239.114,-210.933 239.955,-211.473 C 240.797,-212.013 242.179,-211.712 242.719,-210.87 C 243.259,-210.028 242.957,-208.647 242.115,-208.107 C 241.274,-207.567 239.892,-207.868 239.352,-208.71z"/>
    <path style="fill: none; fill-opacity:0; stroke-width: 2; stroke: #000000" d="M 239.352 -208.71 C 238.812,-209.552 239.114,-210.933 239.955,-211.473 C 240.797,-212.013 242.179,-211.712 242.719,-210.87 C 243.259,-210.028 242.957,-208.647 242.115,-208.107 C 241.274,-207.567 239.892,-207.868 239.352,-208.71"/>
    <path style="fill: #000000" d="M 282.602 -236.46 C 283.142,-235.618 282.84,-234.237 281.999,-233.697 C 281.157,-233.157 279.775,-233.458 279.235,-234.3 C 278.695,-235.142 278.997,-236.523 279.839,-237.063 C 280.68,-237.603 282.062,-237.302 282.602,-236.46z"/>
    <path style="fill: none; fill-opacity:0; stroke-width: 2; stroke: #000000" d="M 282.602 -236.46 C 283.142,-235.618 282.84,-234.237 281.999,-233.697 C 281.157,-233.157 279.775,-233.458 279.235,-234.3 C 278.695,-235.142 278.997,-236.523 279.839,-237.063 C 280.68,-237.603 282.062,-237.302 282.602,-236.46"/>
  </g>
  <g>
    <line style="fill: none; fill-opacity:0; stroke-width: 2; stroke: #000000" x1="239.126" y1="-264.874" x2="302.852" y2="-269.46"/>
    <path style="fill: #000000" d="M 239.126 -264.874 C 239.054,-265.871 239.98,-266.941 240.977,-267.012 C 241.975,-267.084 243.044,-266.159 243.116,-265.161 C 243.187,-264.164 242.262,-263.094 241.264,-263.023 C 240.267,-262.951 239.198,-263.877 239.126,-264.874z"/>
    <path style="fill: none; fill-opacity:0; stroke-width: 2; stroke: #000000" d="M 239.126 -264.874 C 239.054,-265.871 239.98,-266.941 240.977,-267.012 C 241.975,-267.084 243.044,-266.159 243.116,-265.161 C 243.187,-264.164 242.262,-263.094 241.264,-263.023 C 240.267,-262.951 239.198,-263.877 239.126,-264.874"/>
    <path style="fill: #000000" d="M 302.852 -269.46 C 302.924,-268.463 301.998,-267.393 301.001,-267.322 C 300.003,-267.25 298.934,-268.175 298.862,-269.173 C 298.791,-270.17 299.716,-271.24 300.714,-271.311 C 301.711,-271.383 302.78,-270.457 302.852,-269.46z"/>
    <path style="fill: none; fill-opacity:0; stroke-width: 2; stroke: #000000" d="M 302.852 -269.46 C 302.924,-268.463 301.998,-267.393 301.001,-267.322 C 300.003,-267.25 298.934,-268.175 298.862,-269.173 C 298.791,-270.17 299.716,-271.24 300.714,-271.311 C 301.711,-271.383 302.78,-270.457 302.852,-269.46"/>
  </g>
  <g>
    <line style="fill: none; fill-opacity:0; stroke-width: 2; stroke: #000000" x1="301.852" y1="-271.21" x2="279.876" y2="-234"/>
    <path style="fill: #000000" d="M 301.852 -271.21 C 302.713,-270.701 303.066,-269.332 302.557,-268.471 C 302.049,-267.61 300.679,-267.257 299.818,-267.766 C 298.957,-268.274 298.604,-269.644 299.113,-270.505 C 299.621,-271.366 300.991,-271.719 301.852,-271.21z"/>
    <path style="fill: none; fill-opacity:0; stroke-width: 2; stroke: #000000" d="M 301.852 -271.21 C 302.713,-270.701 303.066,-269.332 302.557,-268.471 C 302.049,-267.61 300.679,-267.257 299.818,-267.766 C 298.957,-268.274 298.604,-269.644 299.113,-270.505 C 299.621,-271.366 300.991,-271.719 301.852,-271.21"/>
    <path style="fill: #000000" d="M 279.876 -234 C 279.015,-234.509 278.662,-235.878 279.171,-236.739 C 279.679,-237.6 281.049,-237.953 281.91,-237.444 C 282.771,-236.936 283.124,-235.566 282.615,-234.705 C 282.107,-233.844 280.737,-233.491 279.876,-234z"/>
    <path style="fill: none; fill-opacity:0; stroke-width: 2; stroke: #000000" d="M 279.876 -234 C 279.015,-234.509 278.662,-235.878 279.171,-236.739 C 279.679,-237.6 281.049,-237.953 281.91,-237.444 C 282.771,-236.936 283.124,-235.566 282.615,-234.705 C 282.107,-233.844 280.737,-233.491 279.876,-234"/>
  </g>
  <g>
    <line style="fill: none; fill-opacity:0; stroke-width: 2; stroke: #000000" x1="299.626" y1="-270.874" x2="333.602" y2="-234.71"/>
    <path style="fill: #000000" d="M 299.626 -270.874 C 300.355,-271.559 301.768,-271.515 302.453,-270.786 C 303.138,-270.057 303.094,-268.643 302.365,-267.959 C 301.636,-267.274 300.223,-267.318 299.538,-268.047 C 298.853,-268.776 298.897,-270.189 299.626,-270.874z"/>
    <path style="fill: none; fill-opacity:0; stroke-width: 2; stroke: #000000" d="M 299.626 -270.874 C 300.355,-271.559 301.768,-271.515 302.453,-270.786 C 303.138,-270.057 303.094,-268.643 302.365,-267.959 C 301.636,-267.274 300.223,-267.318 299.538,-268.047 C 298.853,-268.776 298.897,-270.189 299.626,-270.874"/>
    <path style="fill: #000000" d="M 333.602 -234.71 C 332.873,-234.025 331.46,-234.069 330.775,-234.798 C 330.09,-235.527 330.134,-236.941 330.863,-237.625 C 331.592,-238.31 333.005,-238.266 333.69,-237.537 C 334.375,-236.808 334.331,-235.395 333.602,-234.71z"/>
    <path style="fill: none; fill-opacity:0; stroke-width: 2; stroke: #000000" d="M 333.602 -234.71 C 332.873,-234.025 331.46,-234.069 330.775,-234.798 C 330.09,-235.527 330.134,-236.941 330.863,-237.625 C 331.592,-238.31 333.005,-238.266 333.69,-237.537 C 334.375,-236.808 334.331,-235.395 333.602,-234.71"/>
  </g>
  <g>
    <line style="fill: none; fill-opacity:0; stroke-width: 2; stroke: #000000" x1="279.602" y1="-235.46" x2="334.102" y2="-235.46"/>
    <path style="fill: #000000" d="M 279.602 -235.46 C 279.602,-236.46 280.602,-237.46 281.602,-237.46 C 282.602,-237.46 283.602,-236.46 283.602,-235.46 C 283.602,-234.46 282.602,-233.46 281.602,-233.46 C 280.602,-233.46 279.602,-234.46 279.602,-235.46z"/>
    <path style="fill: none; fill-opacity:0; stroke-width: 2; stroke: #000000" d="M 279.602 -235.46 C 279.602,-236.46 280.602,-237.46 281.602,-237.46 C 282.602,-237.46 283.602,-236.46 283.602,-235.46 C 283.602,-234.46 282.602,-233.46 281.602,-233.46 C 280.602,-233.46 279.602,-234.46 279.602,-235.46"/>
    <path style="fill: #000000" d="M 334.102 -235.46 C 334.102,-234.46 333.102,-233.46 332.102,-233.46 C 331.102,-233.46 330.102,-234.46 330.102,-235.46 C 330.102,-236.46 331.102,-237.46 332.102,-237.46 C 333.102,-237.46 334.102,-236.46 334.102,-235.46z"/>
    <path style="fill: none; fill-opacity:0; stroke-width: 2; stroke: #000000" d="M 334.102 -235.46 C 334.102,-234.46 333.102,-233.46 332.102,-233.46 C 331.102,-233.46 330.102,-234.46 330.102,-235.46 C 330.102,-236.46 331.102,-237.46 332.102,-237.46 C 333.102,-237.46 334.102,-236.46 334.102,-235.46"/>
  </g>
  <g>
    <line style="fill: none; fill-opacity:0; stroke-width: 2; stroke: #000000" x1="298.626" y1="-269.5" x2="356.602" y2="-269.21"/>
    <path style="fill: #000000" d="M 298.626 -269.5 C 298.631,-270.5 299.636,-271.495 300.636,-271.49 C 301.636,-271.485 302.631,-270.48 302.626,-269.48 C 302.621,-268.48 301.616,-267.485 300.616,-267.49 C 299.616,-267.495 298.621,-268.5 298.626,-269.5z"/>
    <path style="fill: none; fill-opacity:0; stroke-width: 2; stroke: #000000" d="M 298.626 -269.5 C 298.631,-270.5 299.636,-271.495 300.636,-271.49 C 301.636,-271.485 302.631,-270.48 302.626,-269.48 C 302.621,-268.48 301.616,-267.485 300.616,-267.49 C 299.616,-267.495 298.621,-268.5 298.626,-269.5"/>
    <path style="fill: #000000" d="M 356.602 -269.21 C 356.597,-268.21 355.592,-267.215 354.592,-267.22 C 353.592,-267.225 352.597,-268.23 352.602,-269.23 C 352.607,-270.23 353.612,-271.225 354.612,-271.22 C 355.612,-271.215 356.607,-270.21 356.602,-269.21z"/>
    <path style="fill: none; fill-opacity:0; stroke-width: 2; stroke: #000000" d="M 356.602 -269.21 C 356.597,-268.21 355.592,-267.215 354.592,-267.22 C 353.592,-267.225 352.597,-268.23 352.602,-269.23 C 352.607,-270.23 353.612,-271.225 354.612,-271.22 C 355.612,-271.215 356.607,-270.21 356.602,-269.21"/>
  </g>
  <g>
    <line style="fill: none; fill-opacity:0; stroke-width: 2; stroke: #000000" x1="356.102" y1="-271.21" x2="331.876" y2="-234.25"/>
    <path style="fill: #000000" d="M 356.102 -271.21 C 356.938,-270.662 357.226,-269.277 356.678,-268.441 C 356.13,-267.605 354.746,-267.316 353.909,-267.865 C 353.073,-268.413 352.785,-269.797 353.333,-270.634 C 353.881,-271.47 355.266,-271.758 356.102,-271.21z"/>
    <path style="fill: none; fill-opacity:0; stroke-width: 2; stroke: #000000" d="M 356.102 -271.21 C 356.938,-270.662 357.226,-269.277 356.678,-268.441 C 356.13,-267.605 354.746,-267.316 353.909,-267.865 C 353.073,-268.413 352.785,-269.797 353.333,-270.634 C 353.881,-271.47 355.266,-271.758 356.102,-271.21"/>
    <path style="fill: #000000" d="M 331.876 -234.25 C 331.04,-234.798 330.752,-236.183 331.3,-237.019 C 331.848,-237.855 333.232,-238.144 334.069,-237.595 C 334.905,-237.047 335.193,-235.663 334.645,-234.826 C 334.097,-233.99 332.712,-233.702 331.876,-234.25z"/>
    <path style="fill: none; fill-opacity:0; stroke-width: 2; stroke: #000000" d="M 331.876 -234.25 C 331.04,-234.798 330.752,-236.183 331.3,-237.019 C 331.848,-237.855 333.232,-238.144 334.069,-237.595 C 334.905,-237.047 335.193,-235.663 334.645,-234.826 C 334.097,-233.99 332.712,-233.702 331.876,-234.25"/>
  </g>
  <g>
    <line style="fill: none; fill-opacity:0; stroke-width: 2; stroke: #000000" x1="353.626" y1="-270.624" x2="392.602" y2="-245.21"/>
    <path style="fill: #000000" d="M 353.626 -270.624 C 354.172,-271.462 355.556,-271.753 356.394,-271.207 C 357.231,-270.661 357.523,-269.277 356.977,-268.439 C 356.43,-267.602 355.047,-267.31 354.209,-267.856 C 353.371,-268.402 353.08,-269.786 353.626,-270.624z"/>
    <path style="fill: none; fill-opacity:0; stroke-width: 2; stroke: #000000" d="M 353.626 -270.624 C 354.172,-271.462 355.556,-271.753 356.394,-271.207 C 357.231,-270.661 357.523,-269.277 356.977,-268.439 C 356.43,-267.602 355.047,-267.31 354.209,-267.856 C 353.371,-268.402 353.08,-269.786 353.626,-270.624"/>
    <path style="fill: #000000" d="M 392.602 -245.21 C 392.056,-244.372 390.672,-244.081 389.834,-244.627 C 388.997,-245.173 388.705,-246.557 389.251,-247.395 C 389.798,-248.232 391.181,-248.524 392.019,-247.978 C 392.857,-247.432 393.148,-246.048 392.602,-245.21z"/>
    <path style="fill: none; fill-opacity:0; stroke-width: 2; stroke: #000000" d="M 392.602 -245.21 C 392.056,-244.372 390.672,-244.081 389.834,-244.627 C 388.997,-245.173 388.705,-246.557 389.251,-247.395 C 389.798,-248.232 391.181,-248.524 392.019,-247.978 C 392.857,-247.432 393.148,-246.048 392.602,-245.21"/>
  </g>
  <g>
    <line style="fill: none; fill-opacity:0; stroke-width: 2; stroke: #000000" x1="331.752" y1="-235.124" x2="392.852" y2="-246.46"/>
    <path style="fill: #000000" d="M 331.752 -235.124 C 331.57,-236.107 332.37,-237.273 333.354,-237.455 C 334.337,-237.638 335.502,-236.837 335.685,-235.854 C 335.867,-234.87 335.067,-233.705 334.083,-233.522 C 333.1,-233.34 331.934,-234.141 331.752,-235.124z"/>
    <path style="fill: none; fill-opacity:0; stroke-width: 2; stroke: #000000" d="M 331.752 -235.124 C 331.57,-236.107 332.37,-237.273 333.354,-237.455 C 334.337,-237.638 335.502,-236.837 335.685,-235.854 C 335.867,-234.87 335.067,-233.705 334.083,-233.522 C 333.1,-233.34 331.934,-234.141 331.752,-235.124"/>
    <path style="fill: #000000" d="M 392.852 -246.46 C 393.034,-245.477 392.234,-244.311 391.25,-244.129 C 390.267,-243.946 389.102,-244.747 388.919,-245.73 C 388.737,-246.714 389.537,-247.879 390.521,-248.062 C 391.504,-248.244 392.67,-247.443 392.852,-246.46z"/>
    <path style="fill: none; fill-opacity:0; stroke-width: 2; stroke: #000000" d="M 392.852 -246.46 C 393.034,-245.477 392.234,-244.311 391.25,-244.129 C 390.267,-243.946 389.102,-244.747 388.919,-245.73 C 388.737,-246.714 389.537,-247.879 390.521,-248.062 C 391.504,-248.244 392.67,-247.443 392.852,-246.46"/>
  </g>
  <g>
    <line style="fill: none; fill-opacity:0; stroke-width: 2; stroke: #000000" x1="391.602" y1="-247.96" x2="371.352" y2="-202.21"/>
    <path style="fill: #000000" d="M 391.602 -247.96 C 392.516,-247.555 393.026,-246.236 392.621,-245.322 C 392.217,-244.407 390.897,-243.898 389.983,-244.302 C 389.069,-244.707 388.559,-246.026 388.964,-246.941 C 389.368,-247.855 390.688,-248.365 391.602,-247.96z"/>
    <path style="fill: none; fill-opacity:0; stroke-width: 2; stroke: #000000" d="M 391.602 -247.96 C 392.516,-247.555 393.026,-246.236 392.621,-245.322 C 392.217,-244.407 390.897,-243.898 389.983,-244.302 C 389.069,-244.707 388.559,-246.026 388.964,-246.941 C 389.368,-247.855 390.688,-248.365 391.602,-247.96"/>
    <path style="fill: #000000" d="M 371.352 -202.21 C 370.438,-202.615 369.928,-203.934 370.333,-204.848 C 370.737,-205.763 372.057,-206.272 372.971,-205.868 C 373.885,-205.463 374.395,-204.144 373.99,-203.229 C 373.586,-202.315 372.266,-201.805 371.352,-202.21z"/>
    <path style="fill: none; fill-opacity:0; stroke-width: 2; stroke: #000000" d="M 371.352 -202.21 C 370.438,-202.615 369.928,-203.934 370.333,-204.848 C 370.737,-205.763 372.057,-206.272 372.971,-205.868 C 373.885,-205.463 374.395,-204.144 373.99,-203.229 C 373.586,-202.315 372.266,-201.805 371.352,-202.21"/>
  </g>
  <g>
    <line style="fill: none; fill-opacity:0; stroke-width: 2; stroke: #000000" x1="331.002" y1="-237" x2="372.602" y2="-202.71"/>
    <path style="fill: #000000" d="M 331.002 -237 C 331.638,-237.772 333.046,-237.907 333.817,-237.271 C 334.589,-236.635 334.725,-235.227 334.089,-234.456 C 333.453,-233.684 332.045,-233.549 331.273,-234.185 C 330.502,-234.821 330.366,-236.228 331.002,-237z"/>
    <path style="fill: none; fill-opacity:0; stroke-width: 2; stroke: #000000" d="M 331.002 -237 C 331.638,-237.772 333.046,-237.907 333.817,-237.271 C 334.589,-236.635 334.725,-235.227 334.089,-234.456 C 333.453,-233.684 332.045,-233.549 331.273,-234.185 C 330.502,-234.821 330.366,-236.228 331.002,-237"/>
    <path style="fill: #000000" d="M 372.602 -202.71 C 371.966,-201.938 370.558,-201.803 369.787,-202.439 C 369.015,-203.075 368.879,-204.483 369.515,-205.254 C 370.151,-206.026 371.559,-206.161 372.331,-205.525 C 373.102,-204.889 373.238,-203.482 372.602,-202.71z"/>
    <path style="fill: none; fill-opacity:0; stroke-width: 2; stroke: #000000" d="M 372.602 -202.71 C 371.966,-201.938 370.558,-201.803 369.787,-202.439 C 369.015,-203.075 368.879,-204.483 369.515,-205.254 C 370.151,-206.026 371.559,-206.161 372.331,-205.525 C 373.102,-204.889 373.238,-203.482 372.602,-202.71"/>
  </g>
  <g>
    <line style="fill: none; fill-opacity:0; stroke-width: 2; stroke: #000000" x1="333.602" y1="-237.21" x2="308.352" y2="-202.46"/>
    <path style="fill: #000000" d="M 333.602 -237.21 C 334.411,-236.622 334.632,-235.225 334.044,-234.416 C 333.456,-233.607 332.06,-233.386 331.251,-233.974 C 330.442,-234.562 330.221,-235.959 330.808,-236.768 C 331.396,-237.577 332.793,-237.798 333.602,-237.21z"/>
    <path style="fill: none; fill-opacity:0; stroke-width: 2; stroke: #000000" d="M 333.602 -237.21 C 334.411,-236.622 334.632,-235.225 334.044,-234.416 C 333.456,-233.607 332.06,-233.386 331.251,-233.974 C 330.442,-234.562 330.221,-235.959 330.808,-236.768 C 331.396,-237.577 332.793,-237.798 333.602,-237.21"/>
    <path style="fill: #000000" d="M 308.352 -202.46 C 307.543,-203.048 307.322,-204.445 307.91,-205.254 C 308.498,-206.063 309.894,-206.284 310.703,-205.696 C 311.512,-205.108 311.733,-203.711 311.146,-202.902 C 310.558,-202.093 309.161,-201.872 308.352,-202.46z"/>
    <path style="fill: none; fill-opacity:0; stroke-width: 2; stroke: #000000" d="M 308.352 -202.46 C 307.543,-203.048 307.322,-204.445 307.91,-205.254 C 308.498,-206.063 309.894,-206.284 310.703,-205.696 C 311.512,-205.108 311.733,-203.711 311.146,-202.902 C 310.558,-202.093 309.161,-201.872 308.352,-202.46"/>
  </g>
  <g>
    <line style="fill: none; fill-opacity:0; stroke-width: 2; stroke: #000000" x1="308.502" y1="-203.75" x2="373.352" y2="-203.96"/>
    <path style="fill: #000000" d="M 308.502 -203.75 C 308.499,-204.75 309.496,-205.753 310.496,-205.756 C 311.496,-205.76 312.499,-204.763 312.502,-203.763 C 312.505,-202.763 311.508,-201.76 310.508,-201.756 C 309.508,-201.753 308.505,-202.75 308.502,-203.75z"/>
    <path style="fill: none; fill-opacity:0; stroke-width: 2; stroke: #000000" d="M 308.502 -203.75 C 308.499,-204.75 309.496,-205.753 310.496,-205.756 C 311.496,-205.76 312.499,-204.763 312.502,-203.763 C 312.505,-202.763 311.508,-201.76 310.508,-201.756 C 309.508,-201.753 308.505,-202.75 308.502,-203.75"/>
    <path style="fill: #000000" d="M 373.352 -203.96 C 373.355,-202.96 372.358,-201.957 371.358,-201.954 C 370.358,-201.95 369.355,-202.947 369.352,-203.947 C 369.349,-204.947 370.346,-205.95 371.346,-205.954 C 372.346,-205.957 373.349,-204.96 373.352,-203.96z"/>
    <path style="fill: none; fill-opacity:0; stroke-width: 2; stroke: #000000" d="M 373.352 -203.96 C 373.355,-202.96 372.358,-201.957 371.358,-201.954 C 370.358,-201.95 369.355,-202.947 369.352,-203.947 C 369.349,-204.947 370.346,-205.95 371.346,-205.954 C 372.346,-205.957 373.349,-204.96 373.352,-203.96"/>
  </g>
  <g>
    <line style="fill: none; fill-opacity:0; stroke-width: 2; stroke: #000000" x1="280.876" y1="-236.874" x2="310.852" y2="-202.71"/>
    <path style="fill: #000000" d="M 280.876 -236.874 C 281.628,-237.534 283.039,-237.441 283.698,-236.69 C 284.358,-235.938 284.266,-234.527 283.514,-233.867 C 282.762,-233.208 281.351,-233.3 280.692,-234.052 C 280.032,-234.803 280.124,-236.214 280.876,-236.874z"/>
    <path style="fill: none; fill-opacity:0; stroke-width: 2; stroke: #000000" d="M 280.876 -236.874 C 281.628,-237.534 283.039,-237.441 283.698,-236.69 C 284.358,-235.938 284.266,-234.527 283.514,-233.867 C 282.762,-233.208 281.351,-233.3 280.692,-234.052 C 280.032,-234.803 280.124,-236.214 280.876,-236.874"/>
    <path style="fill: #000000" d="M 310.852 -202.71 C 310.1,-202.05 308.689,-202.143 308.03,-202.894 C 307.37,-203.646 307.462,-205.057 308.214,-205.717 C 308.966,-206.376 310.377,-206.284 311.036,-205.532 C 311.696,-204.781 311.604,-203.37 310.852,-202.71z"/>
    <path style="fill: none; fill-opacity:0; stroke-width: 2; stroke: #000000" d="M 310.852 -202.71 C 310.1,-202.05 308.689,-202.143 308.03,-202.894 C 307.37,-203.646 307.462,-205.057 308.214,-205.717 C 308.966,-206.376 310.377,-206.284 311.036,-205.532 C 311.696,-204.781 311.604,-203.37 310.852,-202.71"/>
  </g>
  <g>
    <line style="fill: none; fill-opacity:0; stroke-width: 2; stroke: #000000" x1="281.852" y1="-236.96" x2="281.602" y2="-190.71"/>
    <path style="fill: #000000" d="M 281.852 -236.96 C 282.852,-236.955 283.847,-235.949 283.841,-234.949 C 283.836,-233.949 282.83,-232.955 281.83,-232.96 C 280.83,-232.965 279.836,-233.971 279.841,-234.971 C 279.847,-235.971 280.852,-236.965 281.852,-236.96z"/>
    <path style="fill: none; fill-opacity:0; stroke-width: 2; stroke: #000000" d="M 281.852 -236.96 C 282.852,-236.955 283.847,-235.949 283.841,-234.949 C 283.836,-233.949 282.83,-232.955 281.83,-232.96 C 280.83,-232.965 279.836,-233.971 279.841,-234.971 C 279.847,-235.971 280.852,-236.965 281.852,-236.96"/>
    <path style="fill: #000000" d="M 281.602 -190.71 C 280.602,-190.716 279.607,-191.721 279.613,-192.721 C 279.618,-193.721 280.624,-194.716 281.624,-194.71 C 282.624,-194.705 283.618,-193.699 283.613,-192.699 C 283.607,-191.699 282.602,-190.705 281.602,-190.71z"/>
    <path style="fill: none; fill-opacity:0; stroke-width: 2; stroke: #000000" d="M 281.602 -190.71 C 280.602,-190.716 279.607,-191.721 279.613,-192.721 C 279.618,-193.721 280.624,-194.716 281.624,-194.71 C 282.624,-194.705 283.618,-193.699 283.613,-192.699 C 283.607,-191.699 282.602,-190.705 281.602,-190.71"/>
  </g>
  <g>
    <line style="fill: none; fill-opacity:0; stroke-width: 2; stroke: #000000" x1="238.602" y1="-209.96" x2="283.102" y2="-192.21"/>
    <path style="fill: #000000" d="M 238.602 -209.96 C 238.972,-210.889 240.272,-211.447 241.201,-211.077 C 242.129,-210.706 242.688,-209.407 242.317,-208.478 C 241.947,-207.549 240.648,-206.991 239.719,-207.361 C 238.79,-207.732 238.232,-209.031 238.602,-209.96z"/>
    <path style="fill: none; fill-opacity:0; stroke-width: 2; stroke: #000000" d="M 238.602 -209.96 C 238.972,-210.889 240.272,-211.447 241.201,-211.077 C 242.129,-210.706 242.688,-209.407 242.317,-208.478 C 241.947,-207.549 240.648,-206.991 239.719,-207.361 C 238.79,-207.732 238.232,-209.031 238.602,-209.96"/>
    <path style="fill: #000000" d="M 283.102 -192.21 C 282.732,-191.281 281.432,-190.723 280.503,-191.093 C 279.575,-191.464 279.016,-192.763 279.387,-193.692 C 279.757,-194.621 281.056,-195.179 281.985,-194.809 C 282.914,-194.438 283.472,-193.139 283.102,-192.21z"/>
    <path style="fill: none; fill-opacity:0; stroke-width: 2; stroke: #000000" d="M 283.102 -192.21 C 282.732,-191.281 281.432,-190.723 280.503,-191.093 C 279.575,-191.464 279.016,-192.763 279.387,-193.692 C 279.757,-194.621 281.056,-195.179 281.985,-194.809 C 282.914,-194.438 283.472,-193.139 283.102,-192.21"/>
  </g>
  <g>
    <line style="fill: none; fill-opacity:0; stroke-width: 2; stroke: #000000" x1="279.602" y1="-191.96" x2="311.352" y2="-204.46"/>
    <path style="fill: #000000" d="M 279.602 -191.96 C 279.236,-192.891 279.8,-194.187 280.73,-194.554 C 281.661,-194.92 282.958,-194.356 283.324,-193.426 C 283.69,-192.495 283.126,-191.198 282.196,-190.832 C 281.265,-190.466 279.968,-191.03 279.602,-191.96z"/>
    <path style="fill: none; fill-opacity:0; stroke-width: 2; stroke: #000000" d="M 279.602 -191.96 C 279.236,-192.891 279.8,-194.187 280.73,-194.554 C 281.661,-194.92 282.958,-194.356 283.324,-193.426 C 283.69,-192.495 283.126,-191.198 282.196,-190.832 C 281.265,-190.466 279.968,-191.03 279.602,-191.96"/>
    <path style="fill: #000000" d="M 311.352 -204.46 C 311.718,-203.53 311.154,-202.233 310.224,-201.866 C 309.293,-201.5 307.996,-202.064 307.63,-202.995 C 307.264,-203.925 307.828,-205.222 308.758,-205.588 C 309.689,-205.955 310.986,-205.39 311.352,-204.46z"/>
    <path style="fill: none; fill-opacity:0; stroke-width: 2; stroke: #000000" d="M 311.352 -204.46 C 311.718,-203.53 311.154,-202.233 310.224,-201.866 C 309.293,-201.5 307.996,-202.064 307.63,-202.995 C 307.264,-203.925 307.828,-205.222 308.758,-205.588 C 309.689,-205.955 310.986,-205.39 311.352,-204.46"/>
  </g>
  <text font-size="6.77333" style="fill: #ff0000;text-anchor:start;font-family:sans-serif;font-style:normal;font-weight:normal" x="247.102" y="-233.21">
    <tspan x="247.102" y="-233.21">(2, 0)</tspan>
  </text>
  <text font-size="6.77333" style="fill: #ff0000;text-anchor:start;font-family:sans-serif;font-style:normal;font-weight:normal" x="258.802" y="-211.236">
    <tspan x="258.802" y="-211.236">(2, 1)</tspan>
  </text>
  <text font-size="6.77333" style="fill: #ff0000;text-anchor:start;font-family:sans-serif;font-style:normal;font-weight:normal" x="283.752" y="-204.26">
    <tspan x="283.752" y="-204.26">(2, 2)</tspan>
  </text>
  <text font-size="6.77333" style="fill: #ff0000;text-anchor:start;font-family:sans-serif;font-style:normal;font-weight:normal" x="301.202" y="-223.536">
    <tspan x="301.202" y="-223.536">(2, 3)</tspan>
  </text>
  <text font-size="6.77333" style="fill: #ff0000;text-anchor:start;font-family:sans-serif;font-style:normal;font-weight:normal" x="328.402" y="-211.56">
    <tspan x="328.402" y="-211.56">(2, 4)</tspan>
  </text>
  <text font-size="6.77333" style="fill: #ff0000;text-anchor:start;font-family:sans-serif;font-style:normal;font-weight:normal" x="356.102" y="-226.336">
    <tspan x="356.102" y="-226.336">(2, 5)</tspan>
  </text>
  <text font-size="6.77333" style="fill: #ff0000;text-anchor:start;font-family:sans-serif;font-style:normal;font-weight:normal" x="351.552" y="-249.36">
    <tspan x="351.552" y="-249.36">(2, 6)</tspan>
  </text>
  <text font-size="6.77333" style="fill: #ff0000;text-anchor:start;font-family:sans-serif;font-style:normal;font-weight:normal" x="323.752" y="-256.636">
    <tspan x="323.752" y="-256.636">(2, 7)</tspan>
  </text>
  <text font-size="6.77333" style="fill: #ff0000;text-anchor:start;font-family:sans-serif;font-style:normal;font-weight:normal" x="295.952" y="-245.41">
    <tspan x="295.952" y="-245.41">(2, 8)</tspan>
  </text>
  <text font-size="6.77333" style="fill: #ff0000;text-anchor:start;font-family:sans-serif;font-style:normal;font-weight:normal" x="266.152" y="-255.686">
    <tspan x="266.152" y="-255.686">(2, 9)</tspan>
  </text>
  <text font-size="12.8" style="fill: #ff0000;text-anchor:start;font-family:sans-serif;font-style:normal;font-weight:normal" x="269.602" y="-212.21">
    <tspan x="269.602" y="-212.21"></tspan>
  </text>
  <text font-size="6.77333" style="fill: #000000;text-anchor:start;font-family:sans-serif;font-style:normal;font-weight:normal" x="40.3518" y="-274.21">
    <tspan x="40.3518" y="-274.21">Cell to Cell</tspan>
    <tspan x="40.3518" y="-265.743">Connectivity</tspan>
    <tspan x="40.3518" y="-257.277">0 -&gt; {1, 9}</tspan>
    <tspan x="40.3518" y="-248.81">1 -&gt; {2, 0}</tspan>
    <tspan x="40.3518" y="-240.343">2 -&gt; {3, 1}</tspan>
    <tspan x="40.3518" y="-231.877">3 -&gt; {4, 8, 2}</tspan>
    <tspan x="40.3518" y="-223.41">4 -&gt; {5, 3}</tspan>
    <tspan x="40.3518" y="-214.943">5 -&gt; {6, 4}</tspan>
    <tspan x="40.3518" y="-206.477">6 -&gt; {7, 5}</tspan>
    <tspan x="40.3518" y="-198.01">7 -&gt; {8, 6}</tspan>
    <tspan x="40.3518" y="-189.543">8 -&gt; {9, 3, 7}</tspan>
    <tspan x="40.3518" y="-181.077">9 -&gt; {0, 8}</tspan>
  </text>
  <text font-size="6.77333" style="fill: #000000;text-anchor:start;font-family:sans-serif;font-style:normal;font-weight:normal" x="39.6018" y="-163.46">
    <tspan x="39.6018" y="-163.46">Serial CSR</tspan>
    <tspan x="39.6018" y="-154.994">xadj      0 2 4 6 9 11 13 15 17 20 22 </tspan>
    <tspan x="39.6018" y="-146.527">adjncy  1 9 2 0 3 1 4 8 2 5 3 6 4 7 5 8 6 9 3 7 0 8</tspan>
  </text>
  <text font-size="6.77333" style="fill: #000000;text-anchor:start;font-family:sans-serif;font-style:normal;font-weight:normal" x="39.3518" y="-125.46">
    <tspan x="39.3518" y="-125.46">Distributed CSR (2 partitions)</tspan>
    <tspan x="39.3518" y="-116.994">P0       xadj      0 2 4 6 9 11</tspan>
    <tspan x="39.3518" y="-108.527">           adjncy  1 9 2 0 3 1 4 8 2 5 3</tspan>
    <tspan x="39.3518" y="-100.06">           vtxdist  0 5 10</tspan>
    <tspan x="39.3518" y="-91.5935"></tspan>
    <tspan x="39.3518" y="-83.1269">P1       xadj      0 2 4 6 9 11</tspan>
    <tspan x="39.3518" y="-74.6602">           adjncy  6 4 7 5 8 6 9 3 7 0 8</tspan>
    <tspan x="39.3518" y="-66.1935">           vtxdist  0 5 10 </tspan>
    <tspan x="39.3518" y="-57.7269"></tspan>
  </text>
  <g>
    <line style="fill: none; fill-opacity:0; stroke-width: 2; stroke: #000000" x1="241.554" y1="-140.487" x2="241.304" y2="-80.9873"/>
    <path style="fill: #000000" d="M 241.554 -140.487 C 242.554,-140.483 243.55,-139.479 243.546,-138.479 C 243.541,-137.479 242.537,-136.483 241.537,-136.487 C 240.537,-136.492 239.541,-137.496 239.546,-138.496 C 239.55,-139.496 240.554,-140.492 241.554,-140.487z"/>
    <path style="fill: none; fill-opacity:0; stroke-width: 2; stroke: #000000" d="M 241.554 -140.487 C 242.554,-140.483 243.55,-139.479 243.546,-138.479 C 243.541,-137.479 242.537,-136.483 241.537,-136.487 C 240.537,-136.492 239.541,-137.496 239.546,-138.496 C 239.55,-139.496 240.554,-140.492 241.554,-140.487"/>
    <path style="fill: #000000" d="M 241.304 -80.9873 C 240.304,-80.9915 239.308,-81.9957 239.313,-82.9957 C 239.317,-83.9957 240.321,-84.9915 241.321,-84.9873 C 242.321,-84.9831 243.317,-83.9789 243.312,-82.9789 C 243.308,-81.9789 242.304,-80.9831 241.304,-80.9873z"/>
    <path style="fill: none; fill-opacity:0; stroke-width: 2; stroke: #000000" d="M 241.304 -80.9873 C 240.304,-80.9915 239.308,-81.9957 239.313,-82.9957 C 239.317,-83.9957 240.321,-84.9915 241.321,-84.9873 C 242.321,-84.9831 243.317,-83.9789 243.312,-82.9789 C 243.308,-81.9789 242.304,-80.9831 241.304,-80.9873"/>
  </g>
  <g>
    <line style="fill: none; fill-opacity:0; stroke-width: 2; stroke: #000000" x1="240.054" y1="-139.487" x2="283.054" y2="-107.737"/>
    <path style="fill: #000000" d="M 240.054 -139.487 C 240.648,-140.292 242.047,-140.502 242.851,-139.908 C 243.655,-139.314 243.866,-137.916 243.272,-137.111 C 242.678,-136.307 241.279,-136.096 240.475,-136.69 C 239.671,-137.284 239.46,-138.683 240.054,-139.487z"/>
    <path style="fill: none; fill-opacity:0; stroke-width: 2; stroke: #000000" d="M 240.054 -139.487 C 240.648,-140.292 242.047,-140.502 242.851,-139.908 C 243.655,-139.314 243.866,-137.916 243.272,-137.111 C 242.678,-136.307 241.279,-136.096 240.475,-136.69 C 239.671,-137.284 239.46,-138.683 240.054,-139.487"/>
    <path style="fill: #000000" d="M 283.054 -107.737 C 282.46,-106.933 281.062,-106.722 280.257,-107.316 C 279.453,-107.91 279.242,-109.309 279.836,-110.113 C 280.43,-110.918 281.829,-111.128 282.633,-110.534 C 283.438,-109.94 283.648,-108.542 283.054,-107.737z"/>
    <path style="fill: none; fill-opacity:0; stroke-width: 2; stroke: #000000" d="M 283.054 -107.737 C 282.46,-106.933 281.062,-106.722 280.257,-107.316 C 279.453,-107.91 279.242,-109.309 279.836,-110.113 C 280.43,-110.918 281.829,-111.128 282.633,-110.534 C 283.438,-109.94 283.648,-108.542 283.054,-107.737"/>
  </g>
  <g>
    <line style="fill: none; fill-opacity:0; stroke-width: 2; stroke: #000000" x1="240.054" y1="-81.7373" x2="283.304" y2="-109.487"/>
    <path style="fill: #000000" d="M 240.054 -81.7373 C 239.514,-82.579 239.816,-83.9606 240.657,-84.5007 C 241.499,-85.0407 242.881,-84.739 243.421,-83.8974 C 243.961,-83.0557 243.659,-81.6741 242.817,-81.134 C 241.976,-80.594 240.594,-80.8957 240.054,-81.7373z"/>
    <path style="fill: none; fill-opacity:0; stroke-width: 2; stroke: #000000" d="M 240.054 -81.7373 C 239.514,-82.579 239.816,-83.9606 240.657,-84.5007 C 241.499,-85.0407 242.881,-84.739 243.421,-83.8974 C 243.961,-83.0557 243.659,-81.6741 242.817,-81.134 C 241.976,-80.594 240.594,-80.8957 240.054,-81.7373"/>
    <path style="fill: #000000" d="M 283.304 -109.487 C 283.844,-108.646 283.542,-107.264 282.701,-106.724 C 281.859,-106.184 280.477,-106.486 279.937,-107.327 C 279.397,-108.169 279.699,-109.551 280.541,-110.091 C 281.382,-110.631 282.764,-110.329 283.304,-109.487z"/>
    <path style="fill: none; fill-opacity:0; stroke-width: 2; stroke: #000000" d="M 283.304 -109.487 C 283.844,-108.646 283.542,-107.264 282.701,-106.724 C 281.859,-106.184 280.477,-106.486 279.937,-107.327 C 279.397,-108.169 279.699,-109.551 280.541,-110.091 C 281.382,-110.631 282.764,-110.329 283.304,-109.487"/>
  </g>
  <g>
    <line style="fill: none; fill-opacity:0; stroke-width: 2; stroke: #000000" x1="239.828" y1="-137.901" x2="303.554" y2="-142.487"/>
    <path style="fill: #000000" d="M 239.828 -137.901 C 239.756,-138.899 240.682,-139.968 241.679,-140.04 C 242.677,-140.111 243.746,-139.186 243.818,-138.188 C 243.89,-137.191 242.964,-136.122 241.966,-136.05 C 240.969,-135.978 239.9,-136.904 239.828,-137.901z"/>
    <path style="fill: none; fill-opacity:0; stroke-width: 2; stroke: #000000" d="M 239.828 -137.901 C 239.756,-138.899 240.682,-139.968 241.679,-140.04 C 242.677,-140.111 243.746,-139.186 243.818,-138.188 C 243.89,-137.191 242.964,-136.122 241.966,-136.05 C 240.969,-135.978 239.9,-136.904 239.828,-137.901"/>
    <path style="fill: #000000" d="M 303.554 -142.487 C 303.626,-141.49 302.7,-140.421 301.703,-140.349 C 300.705,-140.277 299.636,-141.203 299.564,-142.2 C 299.493,-143.198 300.418,-144.267 301.416,-144.339 C 302.413,-144.41 303.482,-143.485 303.554,-142.487z"/>
    <path style="fill: none; fill-opacity:0; stroke-width: 2; stroke: #000000" d="M 303.554 -142.487 C 303.626,-141.49 302.7,-140.421 301.703,-140.349 C 300.705,-140.277 299.636,-141.203 299.564,-142.2 C 299.493,-143.198 300.418,-144.267 301.416,-144.339 C 302.413,-144.41 303.482,-143.485 303.554,-142.487"/>
  </g>
  <g>
    <line style="fill: none; fill-opacity:0; stroke-width: 2; stroke: #000000" x1="302.554" y1="-144.237" x2="280.578" y2="-107.027"/>
    <path style="fill: #000000" d="M 302.554 -144.237 C 303.415,-143.729 303.768,-142.359 303.259,-141.498 C 302.751,-140.637 301.381,-140.285 300.52,-140.793 C 299.659,-141.302 299.306,-142.671 299.815,-143.532 C 300.323,-144.393 301.693,-144.746 302.554,-144.237z"/>
    <path style="fill: none; fill-opacity:0; stroke-width: 2; stroke: #000000" d="M 302.554 -144.237 C 303.415,-143.729 303.768,-142.359 303.259,-141.498 C 302.751,-140.637 301.381,-140.285 300.52,-140.793 C 299.659,-141.302 299.306,-142.671 299.815,-143.532 C 300.323,-144.393 301.693,-144.746 302.554,-144.237"/>
    <path style="fill: #000000" d="M 280.578 -107.027 C 279.717,-107.536 279.365,-108.905 279.873,-109.766 C 280.382,-110.628 281.751,-110.98 282.612,-110.471 C 283.473,-109.963 283.826,-108.593 283.317,-107.732 C 282.809,-106.871 281.439,-106.519 280.578,-107.027z"/>
    <path style="fill: none; fill-opacity:0; stroke-width: 2; stroke: #000000" d="M 280.578 -107.027 C 279.717,-107.536 279.365,-108.905 279.873,-109.766 C 280.382,-110.628 281.751,-110.98 282.612,-110.471 C 283.473,-109.963 283.826,-108.593 283.317,-107.732 C 282.809,-106.871 281.439,-106.519 280.578,-107.027"/>
  </g>
  <g>
    <line style="fill: none; fill-opacity:0; stroke-width: 2; stroke: #000000" x1="300.328" y1="-143.901" x2="334.304" y2="-107.737"/>
    <path style="fill: #000000" d="M 300.328 -143.901 C 301.057,-144.586 302.47,-144.542 303.155,-143.813 C 303.84,-143.084 303.796,-141.671 303.067,-140.986 C 302.338,-140.301 300.925,-140.345 300.24,-141.074 C 299.555,-141.803 299.599,-143.217 300.328,-143.901z"/>
    <path style="fill: none; fill-opacity:0; stroke-width: 2; stroke: #000000" d="M 300.328 -143.901 C 301.057,-144.586 302.47,-144.542 303.155,-143.813 C 303.84,-143.084 303.796,-141.671 303.067,-140.986 C 302.338,-140.301 300.925,-140.345 300.24,-141.074 C 299.555,-141.803 299.599,-143.217 300.328,-143.901"/>
    <path style="fill: #000000" d="M 334.304 -107.737 C 333.575,-107.053 332.162,-107.097 331.477,-107.825 C 330.792,-108.554 330.836,-109.968 331.565,-110.653 C 332.294,-111.337 333.708,-111.293 334.392,-110.564 C 335.077,-109.836 335.033,-108.422 334.304,-107.737z"/>
    <path style="fill: none; fill-opacity:0; stroke-width: 2; stroke: #000000" d="M 334.304 -107.737 C 333.575,-107.053 332.162,-107.097 331.477,-107.825 C 330.792,-108.554 330.836,-109.968 331.565,-110.653 C 332.294,-111.337 333.708,-111.293 334.392,-110.564 C 335.077,-109.836 335.033,-108.422 334.304,-107.737"/>
  </g>
  <g>
    <line style="fill: none; fill-opacity:0; stroke-width: 2; stroke: #000000" x1="280.304" y1="-108.487" x2="334.804" y2="-108.487"/>
    <path style="fill: #000000" d="M 280.304 -108.487 C 280.304,-109.487 281.304,-110.487 282.304,-110.487 C 283.304,-110.487 284.304,-109.487 284.304,-108.487 C 284.304,-107.487 283.304,-106.487 282.304,-106.487 C 281.304,-106.487 280.304,-107.487 280.304,-108.487z"/>
    <path style="fill: none; fill-opacity:0; stroke-width: 2; stroke: #000000" d="M 280.304 -108.487 C 280.304,-109.487 281.304,-110.487 282.304,-110.487 C 283.304,-110.487 284.304,-109.487 284.304,-108.487 C 284.304,-107.487 283.304,-106.487 282.304,-106.487 C 281.304,-106.487 280.304,-107.487 280.304,-108.487"/>
    <path style="fill: #000000" d="M 334.804 -108.487 C 334.804,-107.487 333.804,-106.487 332.804,-106.487 C 331.804,-106.487 330.804,-107.487 330.804,-108.487 C 330.804,-109.487 331.804,-110.487 332.804,-110.487 C 333.804,-110.487 334.804,-109.487 334.804,-108.487z"/>
    <path style="fill: none; fill-opacity:0; stroke-width: 2; stroke: #000000" d="M 334.804 -108.487 C 334.804,-107.487 333.804,-106.487 332.804,-106.487 C 331.804,-106.487 330.804,-107.487 330.804,-108.487 C 330.804,-109.487 331.804,-110.487 332.804,-110.487 C 333.804,-110.487 334.804,-109.487 334.804,-108.487"/>
  </g>
  <g>
    <line style="fill: none; fill-opacity:0; stroke-width: 2; stroke: #000000" x1="299.328" y1="-142.527" x2="357.304" y2="-142.237"/>
    <path style="fill: #000000" d="M 299.328 -142.527 C 299.333,-143.527 300.338,-144.522 301.338,-144.517 C 302.338,-144.512 303.333,-143.507 303.328,-142.507 C 303.323,-141.507 302.318,-140.512 301.318,-140.517 C 300.318,-140.522 299.323,-141.527 299.328,-142.527z"/>
    <path style="fill: none; fill-opacity:0; stroke-width: 2; stroke: #000000" d="M 299.328 -142.527 C 299.333,-143.527 300.338,-144.522 301.338,-144.517 C 302.338,-144.512 303.333,-143.507 303.328,-142.507 C 303.323,-141.507 302.318,-140.512 301.318,-140.517 C 300.318,-140.522 299.323,-141.527 299.328,-142.527"/>
    <path style="fill: #000000" d="M 357.304 -142.237 C 357.299,-141.237 356.294,-140.242 355.294,-140.247 C 354.294,-140.252 353.299,-141.257 353.304,-142.257 C 353.309,-143.257 354.314,-144.252 355.314,-144.247 C 356.314,-144.242 357.309,-143.237 357.304,-142.237z"/>
    <path style="fill: none; fill-opacity:0; stroke-width: 2; stroke: #000000" d="M 357.304 -142.237 C 357.299,-141.237 356.294,-140.242 355.294,-140.247 C 354.294,-140.252 353.299,-141.257 353.304,-142.257 C 353.309,-143.257 354.314,-144.252 355.314,-144.247 C 356.314,-144.242 357.309,-143.237 357.304,-142.237"/>
  </g>
  <g>
    <line style="fill: none; fill-opacity:0; stroke-width: 2; stroke: #000000" x1="356.804" y1="-144.237" x2="332.578" y2="-107.277"/>
    <path style="fill: #000000" d="M 356.804 -144.237 C 357.64,-143.689 357.929,-142.305 357.38,-141.468 C 356.832,-140.632 355.448,-140.344 354.611,-140.892 C 353.775,-141.44 353.487,-142.825 354.035,-143.661 C 354.583,-144.497 355.968,-144.786 356.804,-144.237z"/>
    <path style="fill: none; fill-opacity:0; stroke-width: 2; stroke: #000000" d="M 356.804 -144.237 C 357.64,-143.689 357.929,-142.305 357.38,-141.468 C 356.832,-140.632 355.448,-140.344 354.611,-140.892 C 353.775,-141.44 353.487,-142.825 354.035,-143.661 C 354.583,-144.497 355.968,-144.786 356.804,-144.237"/>
    <path style="fill: #000000" d="M 332.578 -107.277 C 331.742,-107.826 331.454,-109.21 332.002,-110.046 C 332.55,-110.883 333.935,-111.171 334.771,-110.623 C 335.607,-110.075 335.895,-108.69 335.347,-107.854 C 334.799,-107.017 333.414,-106.729 332.578,-107.277z"/>
    <path style="fill: none; fill-opacity:0; stroke-width: 2; stroke: #000000" d="M 332.578 -107.277 C 331.742,-107.826 331.454,-109.21 332.002,-110.046 C 332.55,-110.883 333.935,-111.171 334.771,-110.623 C 335.607,-110.075 335.895,-108.69 335.347,-107.854 C 334.799,-107.017 333.414,-106.729 332.578,-107.277"/>
  </g>
  <g>
    <line style="fill: none; fill-opacity:0; stroke-width: 2; stroke: #000000" x1="354.328" y1="-143.651" x2="393.304" y2="-118.237"/>
    <path style="fill: #000000" d="M 354.328 -143.651 C 354.874,-144.489 356.258,-144.78 357.096,-144.234 C 357.933,-143.688 358.225,-142.304 357.679,-141.467 C 357.133,-140.629 355.749,-140.337 354.911,-140.884 C 354.073,-141.43 353.782,-142.814 354.328,-143.651z"/>
    <path style="fill: none; fill-opacity:0; stroke-width: 2; stroke: #000000" d="M 354.328 -143.651 C 354.874,-144.489 356.258,-144.78 357.096,-144.234 C 357.933,-143.688 358.225,-142.304 357.679,-141.467 C 357.133,-140.629 355.749,-140.337 354.911,-140.884 C 354.073,-141.43 353.782,-142.814 354.328,-143.651"/>
    <path style="fill: #000000" d="M 393.304 -118.237 C 392.758,-117.4 391.374,-117.108 390.536,-117.654 C 389.699,-118.201 389.407,-119.584 389.953,-120.422 C 390.5,-121.26 391.883,-121.551 392.721,-121.005 C 393.559,-120.459 393.85,-119.075 393.304,-118.237z"/>
    <path style="fill: none; fill-opacity:0; stroke-width: 2; stroke: #000000" d="M 393.304 -118.237 C 392.758,-117.4 391.374,-117.108 390.536,-117.654 C 389.699,-118.201 389.407,-119.584 389.953,-120.422 C 390.5,-121.26 391.883,-121.551 392.721,-121.005 C 393.559,-120.459 393.85,-119.075 393.304,-118.237"/>
  </g>
  <g>
    <line style="fill: none; fill-opacity:0; stroke-width: 2; stroke: #000000" x1="332.454" y1="-108.151" x2="393.554" y2="-119.487"/>
    <path style="fill: #000000" d="M 332.454 -108.151 C 332.272,-109.135 333.072,-110.3 334.056,-110.483 C 335.039,-110.665 336.205,-109.864 336.387,-108.881 C 336.569,-107.898 335.769,-106.732 334.785,-106.55 C 333.802,-106.367 332.637,-107.168 332.454,-108.151z"/>
    <path style="fill: none; fill-opacity:0; stroke-width: 2; stroke: #000000" d="M 332.454 -108.151 C 332.272,-109.135 333.072,-110.3 334.056,-110.483 C 335.039,-110.665 336.205,-109.864 336.387,-108.881 C 336.569,-107.898 335.769,-106.732 334.785,-106.55 C 333.802,-106.367 332.637,-107.168 332.454,-108.151"/>
    <path style="fill: #000000" d="M 393.554 -119.487 C 393.737,-118.504 392.936,-117.338 391.952,-117.156 C 390.969,-116.974 389.804,-117.774 389.621,-118.758 C 389.439,-119.741 390.24,-120.906 391.223,-121.089 C 392.206,-121.271 393.372,-120.471 393.554,-119.487z"/>
    <path style="fill: none; fill-opacity:0; stroke-width: 2; stroke: #000000" d="M 393.554 -119.487 C 393.737,-118.504 392.936,-117.338 391.952,-117.156 C 390.969,-116.974 389.804,-117.774 389.621,-118.758 C 389.439,-119.741 390.24,-120.906 391.223,-121.089 C 392.206,-121.271 393.372,-120.471 393.554,-119.487"/>
  </g>
  <g>
    <line style="fill: none; fill-opacity:0; stroke-width: 2; stroke: #000000" x1="392.304" y1="-120.987" x2="372.054" y2="-75.2373"/>
    <path style="fill: #000000" d="M 392.304 -120.987 C 393.219,-120.583 393.728,-119.263 393.323,-118.349 C 392.919,-117.435 391.6,-116.925 390.685,-117.33 C 389.771,-117.734 389.261,-119.054 389.666,-119.968 C 390.07,-120.882 391.39,-121.392 392.304,-120.987z"/>
    <path style="fill: none; fill-opacity:0; stroke-width: 2; stroke: #000000" d="M 392.304 -120.987 C 393.219,-120.583 393.728,-119.263 393.323,-118.349 C 392.919,-117.435 391.6,-116.925 390.685,-117.33 C 389.771,-117.734 389.261,-119.054 389.666,-119.968 C 390.07,-120.882 391.39,-121.392 392.304,-120.987"/>
    <path style="fill: #000000" d="M 372.054 -75.2373 C 371.14,-75.6421 370.63,-76.9612 371.035,-77.8757 C 371.439,-78.7901 372.759,-79.2998 373.673,-78.895 C 374.588,-78.4903 375.097,-77.1711 374.692,-76.2567 C 374.288,-75.3422 372.969,-74.8326 372.054,-75.2373z"/>
    <path style="fill: none; fill-opacity:0; stroke-width: 2; stroke: #000000" d="M 372.054 -75.2373 C 371.14,-75.6421 370.63,-76.9612 371.035,-77.8757 C 371.439,-78.7901 372.759,-79.2998 373.673,-78.895 C 374.588,-78.4903 375.097,-77.1711 374.692,-76.2567 C 374.288,-75.3422 372.969,-74.8326 372.054,-75.2373"/>
  </g>
  <g>
    <line style="fill: none; fill-opacity:0; stroke-width: 2; stroke: #000000" x1="331.704" y1="-110.027" x2="374.743" y2="-75.4284"/>
    <path style="fill: #000000" d="M 331.704 -110.027 C 332.331,-110.807 333.737,-110.96 334.516,-110.333 C 335.295,-109.706 335.448,-108.301 334.822,-107.521 C 334.195,-106.742 332.789,-106.589 332.01,-107.215 C 331.23,-107.842 331.078,-109.248 331.704,-110.027z"/>
    <path style="fill: none; fill-opacity:0; stroke-width: 2; stroke: #000000" d="M 331.704 -110.027 C 332.331,-110.807 333.737,-110.96 334.516,-110.333 C 335.295,-109.706 335.448,-108.301 334.822,-107.521 C 334.195,-106.742 332.789,-106.589 332.01,-107.215 C 331.23,-107.842 331.078,-109.248 331.704,-110.027"/>
    <path style="fill: #000000" d="M 374.743 -75.4284 C 374.116,-74.649 372.71,-74.4962 371.931,-75.1227 C 371.152,-75.7493 370.999,-77.1552 371.625,-77.9346 C 372.252,-78.714 373.658,-78.8668 374.437,-78.2402 C 375.217,-77.6137 375.369,-76.2078 374.743,-75.4284z"/>
    <path style="fill: none; fill-opacity:0; stroke-width: 2; stroke: #000000" d="M 374.743 -75.4284 C 374.116,-74.649 372.71,-74.4962 371.931,-75.1227 C 371.152,-75.7493 370.999,-77.1552 371.625,-77.9346 C 372.252,-78.714 373.658,-78.8668 374.437,-78.2402 C 375.217,-77.6137 375.369,-76.2078 374.743,-75.4284"/>
  </g>
  <g>
    <line style="fill: none; fill-opacity:0; stroke-width: 2; stroke: #000000" x1="334.304" y1="-110.237" x2="309.054" y2="-75.4873"/>
    <path style="fill: #000000" d="M 334.304 -110.237 C 335.113,-109.649 335.334,-108.253 334.746,-107.444 C 334.159,-106.635 332.762,-106.414 331.953,-107.001 C 331.144,-107.589 330.923,-108.986 331.51,-109.795 C 332.098,-110.604 333.495,-110.825 334.304,-110.237z"/>
    <path style="fill: none; fill-opacity:0; stroke-width: 2; stroke: #000000" d="M 334.304 -110.237 C 335.113,-109.649 335.334,-108.253 334.746,-107.444 C 334.159,-106.635 332.762,-106.414 331.953,-107.001 C 331.144,-107.589 330.923,-108.986 331.51,-109.795 C 332.098,-110.604 333.495,-110.825 334.304,-110.237"/>
    <path style="fill: #000000" d="M 309.054 -75.4873 C 308.245,-76.0751 308.024,-77.4719 308.612,-78.2809 C 309.2,-79.0899 310.596,-79.3111 311.405,-78.7233 C 312.214,-78.1354 312.436,-76.7386 311.848,-75.9296 C 311.26,-75.1206 309.863,-74.8995 309.054,-75.4873z"/>
    <path style="fill: none; fill-opacity:0; stroke-width: 2; stroke: #000000" d="M 309.054 -75.4873 C 308.245,-76.0751 308.024,-77.4719 308.612,-78.2809 C 309.2,-79.0899 310.596,-79.3111 311.405,-78.7233 C 312.214,-78.1354 312.436,-76.7386 311.848,-75.9296 C 311.26,-75.1206 309.863,-74.8995 309.054,-75.4873"/>
  </g>
  <g>
    <line style="fill: none; fill-opacity:0; stroke-width: 2; stroke: #000000" x1="309.204" y1="-76.7773" x2="374.054" y2="-76.9873"/>
    <path style="fill: #000000" d="M 309.204 -76.7773 C 309.201,-77.7773 310.198,-78.7805 311.198,-78.7838 C 312.198,-78.787 313.201,-77.7903 313.204,-76.7903 C 313.207,-75.7903 312.211,-74.787 311.211,-74.7838 C 310.211,-74.7806 309.207,-75.7773 309.204,-76.7773z"/>
    <path style="fill: none; fill-opacity:0; stroke-width: 2; stroke: #000000" d="M 309.204 -76.7773 C 309.201,-77.7773 310.198,-78.7805 311.198,-78.7838 C 312.198,-78.787 313.201,-77.7903 313.204,-76.7903 C 313.207,-75.7903 312.211,-74.787 311.211,-74.7838 C 310.211,-74.7806 309.207,-75.7773 309.204,-76.7773"/>
    <path style="fill: #000000" d="M 374.054 -76.9873 C 374.057,-75.9873 373.061,-74.9841 372.061,-74.9808 C 371.061,-74.9776 370.057,-75.9744 370.054,-76.9744 C 370.051,-77.9744 371.048,-78.9776 372.048,-78.9808 C 373.048,-78.9841 374.051,-77.9873 374.054,-76.9873z"/>
    <path style="fill: none; fill-opacity:0; stroke-width: 2; stroke: #000000" d="M 374.054 -76.9873 C 374.057,-75.9873 373.061,-74.9841 372.061,-74.9808 C 371.061,-74.9776 370.057,-75.9744 370.054,-76.9744 C 370.051,-77.9744 371.048,-78.9776 372.048,-78.9808 C 373.048,-78.9841 374.051,-77.9873 374.054,-76.9873"/>
  </g>
  <g>
    <line style="fill: none; fill-opacity:0; stroke-width: 2; stroke: #000000" x1="281.578" y1="-109.901" x2="311.554" y2="-75.7373"/>
    <path style="fill: #000000" d="M 281.578 -109.901 C 282.33,-110.561 283.741,-110.469 284.401,-109.717 C 285.06,-108.965 284.968,-107.554 284.216,-106.895 C 283.465,-106.235 282.053,-106.327 281.394,-107.079 C 280.734,-107.831 280.826,-109.242 281.578,-109.901z"/>
    <path style="fill: none; fill-opacity:0; stroke-width: 2; stroke: #000000" d="M 281.578 -109.901 C 282.33,-110.561 283.741,-110.469 284.401,-109.717 C 285.06,-108.965 284.968,-107.554 284.216,-106.895 C 283.465,-106.235 282.053,-106.327 281.394,-107.079 C 280.734,-107.831 280.826,-109.242 281.578,-109.901"/>
    <path style="fill: #000000" d="M 311.554 -75.7373 C 310.802,-75.0778 309.391,-75.1699 308.732,-75.9216 C 308.072,-76.6733 308.164,-78.0845 308.916,-78.744 C 309.668,-79.4035 311.079,-79.3114 311.738,-78.5597 C 312.398,-77.808 312.306,-76.3968 311.554,-75.7373z"/>
    <path style="fill: none; fill-opacity:0; stroke-width: 2; stroke: #000000" d="M 311.554 -75.7373 C 310.802,-75.0778 309.391,-75.1699 308.732,-75.9216 C 308.072,-76.6733 308.164,-78.0845 308.916,-78.744 C 309.668,-79.4035 311.079,-79.3114 311.738,-78.5597 C 312.398,-77.808 312.306,-76.3968 311.554,-75.7373"/>
  </g>
  <g>
    <line style="fill: none; fill-opacity:0; stroke-width: 2; stroke: #000000" x1="282.554" y1="-109.987" x2="282.304" y2="-63.7375"/>
    <path style="fill: #000000" d="M 282.554 -109.987 C 283.554,-109.982 284.549,-108.977 284.543,-107.977 C 284.538,-106.977 283.532,-105.982 282.532,-105.987 C 281.532,-105.993 280.538,-106.998 280.543,-107.998 C 280.549,-108.998 281.554,-109.993 282.554,-109.987z"/>
    <path style="fill: none; fill-opacity:0; stroke-width: 2; stroke: #000000" d="M 282.554 -109.987 C 283.554,-109.982 284.549,-108.977 284.543,-107.977 C 284.538,-106.977 283.532,-105.982 282.532,-105.987 C 281.532,-105.993 280.538,-106.998 280.543,-107.998 C 280.549,-108.998 281.554,-109.993 282.554,-109.987"/>
    <path style="fill: #000000" d="M 282.304 -63.7375 C 281.304,-63.7429 280.31,-64.7483 280.315,-65.7483 C 280.32,-66.7483 281.326,-67.7429 282.326,-67.7375 C 283.326,-67.732 284.32,-66.7267 284.315,-65.7267 C 284.309,-64.7267 283.304,-63.7321 282.304,-63.7375z"/>
    <path style="fill: none; fill-opacity:0; stroke-width: 2; stroke: #000000" d="M 282.304 -63.7375 C 281.304,-63.7429 280.31,-64.7483 280.315,-65.7483 C 280.32,-66.7483 281.326,-67.7429 282.326,-67.7375 C 283.326,-67.732 284.32,-66.7267 284.315,-65.7267 C 284.309,-64.7267 283.304,-63.7321 282.304,-63.7375"/>
  </g>
  <g>
    <line style="fill: none; fill-opacity:0; stroke-width: 2; stroke: #000000" x1="239.304" y1="-82.9873" x2="283.804" y2="-65.2375"/>
    <path style="fill: #000000" d="M 239.304 -82.9873 C 239.675,-83.9161 240.974,-84.4745 241.903,-84.104 C 242.832,-83.7335 243.39,-82.4342 243.019,-81.5054 C 242.649,-80.5765 241.35,-80.0182 240.421,-80.3887 C 239.492,-80.7591 238.934,-82.0585 239.304,-82.9873z"/>
    <path style="fill: none; fill-opacity:0; stroke-width: 2; stroke: #000000" d="M 239.304 -82.9873 C 239.675,-83.9161 240.974,-84.4745 241.903,-84.104 C 242.832,-83.7335 243.39,-82.4342 243.019,-81.5054 C 242.649,-80.5765 241.35,-80.0182 240.421,-80.3887 C 239.492,-80.7591 238.934,-82.0585 239.304,-82.9873"/>
    <path style="fill: #000000" d="M 283.804 -65.2375 C 283.434,-64.3087 282.134,-63.7503 281.205,-64.1208 C 280.277,-64.4913 279.718,-65.7906 280.089,-66.7195 C 280.459,-67.6483 281.759,-68.2066 282.687,-67.8362 C 283.616,-67.4657 284.175,-66.1663 283.804,-65.2375z"/>
    <path style="fill: none; fill-opacity:0; stroke-width: 2; stroke: #000000" d="M 283.804 -65.2375 C 283.434,-64.3087 282.134,-63.7503 281.205,-64.1208 C 280.277,-64.4913 279.718,-65.7906 280.089,-66.7195 C 280.459,-67.6483 281.759,-68.2066 282.687,-67.8362 C 283.616,-67.4657 284.175,-66.1663 283.804,-65.2375"/>
  </g>
  <g>
    <line style="fill: none; fill-opacity:0; stroke-width: 2; stroke: #000000" x1="280.304" y1="-64.9875" x2="312.054" y2="-77.4873"/>
    <path style="fill: #000000" d="M 280.304 -64.9875 C 279.938,-65.918 280.502,-67.2148 281.432,-67.5811 C 282.363,-67.9475 283.66,-67.3833 284.026,-66.4528 C 284.392,-65.5223 283.828,-64.2255 282.898,-63.8592 C 281.967,-63.4929 280.67,-64.057 280.304,-64.9875z"/>
    <path style="fill: none; fill-opacity:0; stroke-width: 2; stroke: #000000" d="M 280.304 -64.9875 C 279.938,-65.918 280.502,-67.2148 281.432,-67.5811 C 282.363,-67.9475 283.66,-67.3833 284.026,-66.4528 C 284.392,-65.5223 283.828,-64.2255 282.898,-63.8592 C 281.967,-63.4929 280.67,-64.057 280.304,-64.9875"/>
    <path style="fill: #000000" d="M 312.054 -77.4873 C 312.42,-76.5568 311.856,-75.26 310.926,-74.8937 C 309.995,-74.5274 308.698,-75.0915 308.332,-76.022 C 307.966,-76.9525 308.53,-78.2493 309.46,-78.6156 C 310.391,-78.982 311.688,-78.4178 312.054,-77.4873z"/>
    <path style="fill: none; fill-opacity:0; stroke-width: 2; stroke: #000000" d="M 312.054 -77.4873 C 312.42,-76.5568 311.856,-75.26 310.926,-74.8937 C 309.995,-74.5274 308.698,-75.0915 308.332,-76.022 C 307.966,-76.9525 308.53,-78.2493 309.46,-78.6156 C 310.391,-78.982 311.688,-78.4178 312.054,-77.4873"/>
  </g>
  <text font-size="6.77333" style="fill: #ff0000;text-anchor:start;font-family:sans-serif;font-style:normal;font-weight:normal" x="247.804" y="-106.237">
    <tspan x="247.804" y="-106.237">(2, 0)</tspan>
  </text>
  <text font-size="6.77333" style="fill: #ff0000;text-anchor:start;font-family:sans-serif;font-style:normal;font-weight:normal" x="259.504" y="-84.2633">
    <tspan x="259.504" y="-84.2633">(2, 1)</tspan>
  </text>
  <text font-size="6.77333" style="fill: #ff0000;text-anchor:start;font-family:sans-serif;font-style:normal;font-weight:normal" x="284.454" y="-77.2873">
    <tspan x="284.454" y="-77.2873">(2, 2)</tspan>
  </text>
  <text font-size="6.77333" style="fill: #ff0000;text-anchor:start;font-family:sans-serif;font-style:normal;font-weight:normal" x="301.904" y="-96.5633">
    <tspan x="301.904" y="-96.5633">(2, 3)</tspan>
  </text>
  <text font-size="6.77333" style="fill: #ff0000;text-anchor:start;font-family:sans-serif;font-style:normal;font-weight:normal" x="329.104" y="-84.5873">
    <tspan x="329.104" y="-84.5873">(2, 4)</tspan>
  </text>
  <text font-size="6.77333" style="fill: #ff0000;text-anchor:start;font-family:sans-serif;font-style:normal;font-weight:normal" x="356.804" y="-99.3633">
    <tspan x="356.804" y="-99.3633">(2, 5)</tspan>
  </text>
  <text font-size="6.77333" style="fill: #ff0000;text-anchor:start;font-family:sans-serif;font-style:normal;font-weight:normal" x="352.254" y="-122.387">
    <tspan x="352.254" y="-122.387">(2, 6)</tspan>
  </text>
  <text font-size="6.77333" style="fill: #ff0000;text-anchor:start;font-family:sans-serif;font-style:normal;font-weight:normal" x="324.454" y="-129.663">
    <tspan x="324.454" y="-129.663">(2, 7)</tspan>
  </text>
  <text font-size="6.77333" style="fill: #ff0000;text-anchor:start;font-family:sans-serif;font-style:normal;font-weight:normal" x="296.654" y="-118.437">
    <tspan x="296.654" y="-118.437">(2, 8)</tspan>
  </text>
  <text font-size="6.77333" style="fill: #ff0000;text-anchor:start;font-family:sans-serif;font-style:normal;font-weight:normal" x="266.854" y="-128.713">
    <tspan x="266.854" y="-128.713">(2, 9)</tspan>
  </text>
  <text font-size="12.8" style="fill: #ff0000;text-anchor:start;font-family:sans-serif;font-style:normal;font-weight:normal" x="270.304" y="-85.2373">
    <tspan x="270.304" y="-85.2373"></tspan>
  </text>
</svg>
