<?xml version="1.0" encoding="UTF-8" standalone="no"?>
<!DOCTYPE svg PUBLIC "-//W3C//DTD SVG 1.0//EN" "http://www.w3.org/TR/2001/PR-SVG-20010719/DTD/svg10.dtd">
<svg width="18cm" height="15cm" viewBox="48 -301 349 300" xmlns="http://www.w3.org/2000/svg" xmlns:xlink="http://www.w3.org/1999/xlink">
  <g>
    <polygon style="fill: #1e90ff" points="241.586,-77.5957 301.044,-81.6267 332.788,-47.867 283.408,-47.867 310.113,-16.1228 282.4,-5.03752 240.83,-21.4135 "/>
    <polygon style="fill: none; fill-opacity:0; stroke-width: 2; stroke: #000000" points="241.586,-77.5957 301.044,-81.6267 332.788,-47.867 283.408,-47.867 310.113,-16.1228 282.4,-5.03752 240.83,-21.4135 "/>
  </g>
  <g>
    <polygon style="fill: #00ff00" points="241.364,-174.655 282.208,-145.178 333.07,-145.467 372.95,-114.064 310.72,-114.642 281.052,-102.504 241.172,-119.266 "/>
    <polygon style="fill: none; fill-opacity:0; stroke-width: 2; stroke: #000000" points="241.364,-174.655 282.208,-145.178 333.07,-145.467 372.95,-114.064 310.72,-114.642 281.052,-102.504 241.172,-119.266 "/>
  </g>
  <g>
    <polygon style="fill: #00ff00" points="241.364,-174.655 282.208,-145.178 333.07,-145.467 372.95,-114.064 310.72,-114.642 281.052,-102.504 241.172,-119.266 "/>
    <polygon style="fill: none; fill-opacity:0; stroke-width: 2; stroke: #000000" points="241.364,-174.655 282.208,-145.178 333.07,-145.467 372.95,-114.064 310.72,-114.642 281.052,-102.504 241.172,-119.266 "/>
  </g>
  <g>
    <line style="fill: none; fill-opacity:0; stroke-width: 2; stroke: #000000" x1="243.119" y1="-294.669" x2="242.869" y2="-235.169"/>
    <path style="fill: #000000" d="M 243.119 -294.669 C 244.119,-294.665 245.115,-293.661 245.111,-292.661 C 245.107,-291.661 244.103,-290.665 243.103,-290.669 C 242.103,-290.674 241.107,-291.678 241.111,-292.678 C 241.115,-293.678 242.119,-294.674 243.119,-294.669z"/>
    <path style="fill: none; fill-opacity:0; stroke-width: 2; stroke: #000000" d="M 243.119 -294.669 C 244.119,-294.665 245.115,-293.661 245.111,-292.661 C 245.107,-291.661 244.103,-290.665 243.103,-290.669 C 242.103,-290.674 241.107,-291.678 241.111,-292.678 C 241.115,-293.678 242.119,-294.674 243.119,-294.669"/>
    <path style="fill: #000000" d="M 242.869 -235.169 C 241.869,-235.174 240.874,-236.178 240.878,-237.178 C 240.882,-238.178 241.886,-239.173 242.886,-239.169 C 243.886,-239.165 244.882,-238.161 244.878,-237.161 C 244.874,-236.161 243.869,-235.165 242.869,-235.169z"/>
    <path style="fill: none; fill-opacity:0; stroke-width: 2; stroke: #000000" d="M 242.869 -235.169 C 241.869,-235.174 240.874,-236.178 240.878,-237.178 C 240.882,-238.178 241.886,-239.173 242.886,-239.169 C 243.886,-239.165 244.882,-238.161 244.878,-237.161 C 244.874,-236.161 243.869,-235.165 242.869,-235.169"/>
  </g>
  <g>
    <line style="fill: none; fill-opacity:0; stroke-width: 2; stroke: #000000" x1="241.619" y1="-293.669" x2="284.619" y2="-261.919"/>
    <path style="fill: #000000" d="M 241.619 -293.669 C 242.213,-294.474 243.612,-294.684 244.416,-294.09 C 245.221,-293.496 245.431,-292.098 244.837,-291.293 C 244.243,-290.489 242.845,-290.278 242.04,-290.872 C 241.236,-291.466 241.025,-292.865 241.619,-293.669z"/>
    <path style="fill: none; fill-opacity:0; stroke-width: 2; stroke: #000000" d="M 241.619 -293.669 C 242.213,-294.474 243.612,-294.684 244.416,-294.09 C 245.221,-293.496 245.431,-292.098 244.837,-291.293 C 244.243,-290.489 242.845,-290.278 242.04,-290.872 C 241.236,-291.466 241.025,-292.865 241.619,-293.669"/>
    <path style="fill: #000000" d="M 284.619 -261.919 C 284.025,-261.115 282.627,-260.904 281.823,-261.498 C 281.018,-262.092 280.808,-263.491 281.402,-264.295 C 281.996,-265.1 283.394,-265.31 284.199,-264.716 C 285.003,-264.122 285.213,-262.724 284.619,-261.919z"/>
    <path style="fill: none; fill-opacity:0; stroke-width: 2; stroke: #000000" d="M 284.619 -261.919 C 284.025,-261.115 282.627,-260.904 281.823,-261.498 C 281.018,-262.092 280.808,-263.491 281.402,-264.295 C 281.996,-265.1 283.394,-265.31 284.199,-264.716 C 285.003,-264.122 285.213,-262.724 284.619,-261.919"/>
  </g>
  <g>
    <line style="fill: none; fill-opacity:0; stroke-width: 2; stroke: #000000" x1="241.619" y1="-235.919" x2="284.869" y2="-263.669"/>
    <path style="fill: #000000" d="M 241.619 -235.919 C 241.079,-236.761 241.381,-238.143 242.223,-238.683 C 243.064,-239.223 244.446,-238.921 244.986,-238.079 C 245.526,-237.238 245.224,-235.856 244.383,-235.316 C 243.541,-234.776 242.159,-235.078 241.619,-235.919z"/>
    <path style="fill: none; fill-opacity:0; stroke-width: 2; stroke: #000000" d="M 241.619 -235.919 C 241.079,-236.761 241.381,-238.143 242.223,-238.683 C 243.064,-239.223 244.446,-238.921 244.986,-238.079 C 245.526,-237.238 245.224,-235.856 244.383,-235.316 C 243.541,-234.776 242.159,-235.078 241.619,-235.919"/>
    <path style="fill: #000000" d="M 284.869 -263.669 C 285.409,-262.828 285.108,-261.446 284.266,-260.906 C 283.425,-260.366 282.043,-260.668 281.503,-261.509 C 280.963,-262.351 281.264,-263.733 282.106,-264.273 C 282.948,-264.813 284.329,-264.511 284.869,-263.669z"/>
    <path style="fill: none; fill-opacity:0; stroke-width: 2; stroke: #000000" d="M 284.869 -263.669 C 285.409,-262.828 285.108,-261.446 284.266,-260.906 C 283.425,-260.366 282.043,-260.668 281.503,-261.509 C 280.963,-262.351 281.264,-263.733 282.106,-264.273 C 282.948,-264.813 284.329,-264.511 284.869,-263.669"/>
  </g>
  <g>
    <line style="fill: none; fill-opacity:0; stroke-width: 2; stroke: #000000" x1="241.393" y1="-292.083" x2="305.119" y2="-296.669"/>
    <path style="fill: #000000" d="M 241.393 -292.083 C 241.322,-293.081 242.247,-294.15 243.245,-294.222 C 244.242,-294.293 245.311,-293.368 245.383,-292.37 C 245.455,-291.373 244.529,-290.304 243.532,-290.232 C 242.534,-290.16 241.465,-291.086 241.393,-292.083z"/>
    <path style="fill: none; fill-opacity:0; stroke-width: 2; stroke: #000000" d="M 241.393 -292.083 C 241.322,-293.081 242.247,-294.15 243.245,-294.222 C 244.242,-294.293 245.311,-293.368 245.383,-292.37 C 245.455,-291.373 244.529,-290.304 243.532,-290.232 C 242.534,-290.16 241.465,-291.086 241.393,-292.083"/>
    <path style="fill: #000000" d="M 305.119 -296.669 C 305.191,-295.672 304.266,-294.603 303.268,-294.531 C 302.271,-294.459 301.202,-295.385 301.13,-296.382 C 301.058,-297.38 301.984,-298.449 302.981,-298.521 C 303.978,-298.592 305.048,-297.667 305.119,-296.669z"/>
    <path style="fill: none; fill-opacity:0; stroke-width: 2; stroke: #000000" d="M 305.119 -296.669 C 305.191,-295.672 304.266,-294.603 303.268,-294.531 C 302.271,-294.459 301.202,-295.385 301.13,-296.382 C 301.058,-297.38 301.984,-298.449 302.981,-298.521 C 303.978,-298.592 305.048,-297.667 305.119,-296.669"/>
  </g>
  <g>
    <line style="fill: none; fill-opacity:0; stroke-width: 2; stroke: #000000" x1="304.119" y1="-298.419" x2="282.143" y2="-261.209"/>
    <path style="fill: #000000" d="M 304.119 -298.419 C 304.98,-297.911 305.333,-296.541 304.824,-295.68 C 304.316,-294.819 302.946,-294.467 302.085,-294.975 C 301.224,-295.484 300.872,-296.853 301.38,-297.714 C 301.889,-298.575 303.258,-298.928 304.119,-298.419z"/>
    <path style="fill: none; fill-opacity:0; stroke-width: 2; stroke: #000000" d="M 304.119 -298.419 C 304.98,-297.911 305.333,-296.541 304.824,-295.68 C 304.316,-294.819 302.946,-294.467 302.085,-294.975 C 301.224,-295.484 300.872,-296.853 301.38,-297.714 C 301.889,-298.575 303.258,-298.928 304.119,-298.419"/>
    <path style="fill: #000000" d="M 282.143 -261.209 C 281.282,-261.718 280.93,-263.087 281.438,-263.948 C 281.947,-264.81 283.317,-265.162 284.178,-264.654 C 285.039,-264.145 285.391,-262.775 284.883,-261.914 C 284.374,-261.053 283.004,-260.701 282.143,-261.209z"/>
    <path style="fill: none; fill-opacity:0; stroke-width: 2; stroke: #000000" d="M 282.143 -261.209 C 281.282,-261.718 280.93,-263.087 281.438,-263.948 C 281.947,-264.81 283.317,-265.162 284.178,-264.654 C 285.039,-264.145 285.391,-262.775 284.883,-261.914 C 284.374,-261.053 283.004,-260.701 282.143,-261.209"/>
  </g>
  <g>
    <line style="fill: none; fill-opacity:0; stroke-width: 2; stroke: #000000" x1="301.893" y1="-298.083" x2="335.869" y2="-261.919"/>
    <path style="fill: #000000" d="M 301.893 -298.083 C 302.622,-298.768 304.036,-298.724 304.72,-297.995 C 305.405,-297.266 305.361,-295.853 304.632,-295.168 C 303.903,-294.483 302.49,-294.527 301.805,-295.256 C 301.121,-295.985 301.165,-297.399 301.893,-298.083z"/>
    <path style="fill: none; fill-opacity:0; stroke-width: 2; stroke: #000000" d="M 301.893 -298.083 C 302.622,-298.768 304.036,-298.724 304.72,-297.995 C 305.405,-297.266 305.361,-295.853 304.632,-295.168 C 303.903,-294.483 302.49,-294.527 301.805,-295.256 C 301.121,-295.985 301.165,-297.399 301.893,-298.083"/>
    <path style="fill: #000000" d="M 335.869 -261.919 C 335.141,-261.235 333.727,-261.279 333.042,-262.008 C 332.358,-262.736 332.402,-264.15 333.131,-264.835 C 333.859,-265.519 335.273,-265.475 335.958,-264.746 C 336.642,-264.018 336.598,-262.604 335.869,-261.919z"/>
    <path style="fill: none; fill-opacity:0; stroke-width: 2; stroke: #000000" d="M 335.869 -261.919 C 335.141,-261.235 333.727,-261.279 333.042,-262.008 C 332.358,-262.736 332.402,-264.15 333.131,-264.835 C 333.859,-265.519 335.273,-265.475 335.958,-264.746 C 336.642,-264.018 336.598,-262.604 335.869,-261.919"/>
  </g>
  <g>
    <line style="fill: none; fill-opacity:0; stroke-width: 2; stroke: #000000" x1="281.869" y1="-262.669" x2="336.369" y2="-262.669"/>
    <path style="fill: #000000" d="M 281.869 -262.669 C 281.869,-263.669 282.869,-264.669 283.869,-264.669 C 284.869,-264.669 285.869,-263.669 285.869,-262.669 C 285.869,-261.669 284.869,-260.669 283.869,-260.669 C 282.869,-260.669 281.869,-261.669 281.869,-262.669z"/>
    <path style="fill: none; fill-opacity:0; stroke-width: 2; stroke: #000000" d="M 281.869 -262.669 C 281.869,-263.669 282.869,-264.669 283.869,-264.669 C 284.869,-264.669 285.869,-263.669 285.869,-262.669 C 285.869,-261.669 284.869,-260.669 283.869,-260.669 C 282.869,-260.669 281.869,-261.669 281.869,-262.669"/>
    <path style="fill: #000000" d="M 336.369 -262.669 C 336.369,-261.669 335.369,-260.669 334.369,-260.669 C 333.369,-260.669 332.369,-261.669 332.369,-262.669 C 332.369,-263.669 333.369,-264.669 334.369,-264.669 C 335.369,-264.669 336.369,-263.669 336.369,-262.669z"/>
    <path style="fill: none; fill-opacity:0; stroke-width: 2; stroke: #000000" d="M 336.369 -262.669 C 336.369,-261.669 335.369,-260.669 334.369,-260.669 C 333.369,-260.669 332.369,-261.669 332.369,-262.669 C 332.369,-263.669 333.369,-264.669 334.369,-264.669 C 335.369,-264.669 336.369,-263.669 336.369,-262.669"/>
  </g>
  <g>
    <line style="fill: none; fill-opacity:0; stroke-width: 2; stroke: #000000" x1="300.893" y1="-296.709" x2="358.869" y2="-296.419"/>
    <path style="fill: #000000" d="M 300.893 -296.709 C 300.898,-297.709 301.903,-298.704 302.903,-298.699 C 303.903,-298.694 304.898,-297.689 304.893,-296.689 C 304.888,-295.689 303.883,-294.694 302.883,-294.699 C 301.883,-294.704 300.888,-295.709 300.893,-296.709z"/>
    <path style="fill: none; fill-opacity:0; stroke-width: 2; stroke: #000000" d="M 300.893 -296.709 C 300.898,-297.709 301.903,-298.704 302.903,-298.699 C 303.903,-298.694 304.898,-297.689 304.893,-296.689 C 304.888,-295.689 303.883,-294.694 302.883,-294.699 C 301.883,-294.704 300.888,-295.709 300.893,-296.709"/>
    <path style="fill: #000000" d="M 358.869 -296.419 C 358.864,-295.419 357.859,-294.424 356.859,-294.429 C 355.859,-294.434 354.864,-295.439 354.869,-296.439 C 354.874,-297.439 355.879,-298.434 356.879,-298.429 C 357.879,-298.424 358.874,-297.419 358.869,-296.419z"/>
    <path style="fill: none; fill-opacity:0; stroke-width: 2; stroke: #000000" d="M 358.869 -296.419 C 358.864,-295.419 357.859,-294.424 356.859,-294.429 C 355.859,-294.434 354.864,-295.439 354.869,-296.439 C 354.874,-297.439 355.879,-298.434 356.879,-298.429 C 357.879,-298.424 358.874,-297.419 358.869,-296.419"/>
  </g>
  <g>
    <line style="fill: none; fill-opacity:0; stroke-width: 2; stroke: #000000" x1="358.369" y1="-298.419" x2="334.143" y2="-261.459"/>
    <path style="fill: #000000" d="M 358.369 -298.419 C 359.206,-297.871 359.494,-296.487 358.946,-295.65 C 358.398,-294.814 357.013,-294.526 356.177,-295.074 C 355.34,-295.622 355.052,-297.007 355.6,-297.843 C 356.149,-298.679 357.533,-298.968 358.369,-298.419z"/>
    <path style="fill: none; fill-opacity:0; stroke-width: 2; stroke: #000000" d="M 358.369 -298.419 C 359.206,-297.871 359.494,-296.487 358.946,-295.65 C 358.398,-294.814 357.013,-294.526 356.177,-295.074 C 355.34,-295.622 355.052,-297.007 355.6,-297.843 C 356.149,-298.679 357.533,-298.968 358.369,-298.419"/>
    <path style="fill: #000000" d="M 334.143 -261.459 C 333.307,-262.008 333.019,-263.392 333.567,-264.228 C 334.115,-265.065 335.5,-265.353 336.336,-264.805 C 337.173,-264.257 337.461,-262.872 336.913,-262.036 C 336.364,-261.199 334.98,-260.911 334.143,-261.459z"/>
    <path style="fill: none; fill-opacity:0; stroke-width: 2; stroke: #000000" d="M 334.143 -261.459 C 333.307,-262.008 333.019,-263.392 333.567,-264.228 C 334.115,-265.065 335.5,-265.353 336.336,-264.805 C 337.173,-264.257 337.461,-262.872 336.913,-262.036 C 336.364,-261.199 334.98,-260.911 334.143,-261.459"/>
  </g>
  <g>
    <line style="fill: none; fill-opacity:0; stroke-width: 2; stroke: #000000" x1="355.893" y1="-297.833" x2="394.869" y2="-272.419"/>
    <path style="fill: #000000" d="M 355.893 -297.833 C 356.44,-298.671 357.823,-298.962 358.661,-298.416 C 359.499,-297.87 359.79,-296.486 359.244,-295.649 C 358.698,-294.811 357.314,-294.519 356.476,-295.066 C 355.639,-295.612 355.347,-296.996 355.893,-297.833z"/>
    <path style="fill: none; fill-opacity:0; stroke-width: 2; stroke: #000000" d="M 355.893 -297.833 C 356.44,-298.671 357.823,-298.962 358.661,-298.416 C 359.499,-297.87 359.79,-296.486 359.244,-295.649 C 358.698,-294.811 357.314,-294.519 356.476,-295.066 C 355.639,-295.612 355.347,-296.996 355.893,-297.833"/>
    <path style="fill: #000000" d="M 394.869 -272.419 C 394.323,-271.582 392.939,-271.29 392.102,-271.836 C 391.264,-272.383 390.973,-273.766 391.519,-274.604 C 392.065,-275.442 393.449,-275.733 394.287,-275.187 C 395.124,-274.641 395.416,-273.257 394.869,-272.419z"/>
    <path style="fill: none; fill-opacity:0; stroke-width: 2; stroke: #000000" d="M 394.869 -272.419 C 394.323,-271.582 392.939,-271.29 392.102,-271.836 C 391.264,-272.383 390.973,-273.766 391.519,-274.604 C 392.065,-275.442 393.449,-275.733 394.287,-275.187 C 395.124,-274.641 395.416,-273.257 394.869,-272.419"/>
  </g>
  <g>
    <line style="fill: none; fill-opacity:0; stroke-width: 2; stroke: #000000" x1="334.019" y1="-262.333" x2="395.119" y2="-273.669"/>
    <path style="fill: #000000" d="M 334.019 -262.333 C 333.837,-263.317 334.638,-264.482 335.621,-264.665 C 336.604,-264.847 337.77,-264.046 337.952,-263.063 C 338.135,-262.08 337.334,-260.914 336.351,-260.732 C 335.368,-260.549 334.202,-261.35 334.019,-262.333z"/>
    <path style="fill: none; fill-opacity:0; stroke-width: 2; stroke: #000000" d="M 334.019 -262.333 C 333.837,-263.317 334.638,-264.482 335.621,-264.665 C 336.604,-264.847 337.77,-264.046 337.952,-263.063 C 338.135,-262.08 337.334,-260.914 336.351,-260.732 C 335.368,-260.549 334.202,-261.35 334.019,-262.333"/>
    <path style="fill: #000000" d="M 395.119 -273.669 C 395.302,-272.686 394.501,-271.52 393.518,-271.338 C 392.535,-271.156 391.369,-271.956 391.187,-272.94 C 391.004,-273.923 391.805,-275.089 392.788,-275.271 C 393.771,-275.453 394.937,-274.653 395.119,-273.669z"/>
    <path style="fill: none; fill-opacity:0; stroke-width: 2; stroke: #000000" d="M 395.119 -273.669 C 395.302,-272.686 394.501,-271.52 393.518,-271.338 C 392.535,-271.156 391.369,-271.956 391.187,-272.94 C 391.004,-273.923 391.805,-275.089 392.788,-275.271 C 393.771,-275.453 394.937,-274.653 395.119,-273.669"/>
  </g>
  <g>
    <line style="fill: none; fill-opacity:0; stroke-width: 2; stroke: #000000" x1="393.869" y1="-275.169" x2="373.619" y2="-229.419"/>
    <path style="fill: #000000" d="M 393.869 -275.169 C 394.784,-274.765 395.294,-273.445 394.889,-272.531 C 394.484,-271.617 393.165,-271.107 392.25,-271.512 C 391.336,-271.916 390.826,-273.236 391.231,-274.15 C 391.636,-275.064 392.955,-275.574 393.869,-275.169z"/>
    <path style="fill: none; fill-opacity:0; stroke-width: 2; stroke: #000000" d="M 393.869 -275.169 C 394.784,-274.765 395.294,-273.445 394.889,-272.531 C 394.484,-271.617 393.165,-271.107 392.25,-271.512 C 391.336,-271.916 390.826,-273.236 391.231,-274.15 C 391.636,-275.064 392.955,-275.574 393.869,-275.169"/>
    <path style="fill: #000000" d="M 373.619 -229.419 C 372.705,-229.824 372.195,-231.143 372.6,-232.058 C 373.005,-232.972 374.324,-233.482 375.238,-233.077 C 376.153,-232.672 376.663,-231.353 376.258,-230.439 C 375.853,-229.524 374.534,-229.015 373.619,-229.419z"/>
    <path style="fill: none; fill-opacity:0; stroke-width: 2; stroke: #000000" d="M 373.619 -229.419 C 372.705,-229.824 372.195,-231.143 372.6,-232.058 C 373.005,-232.972 374.324,-233.482 375.238,-233.077 C 376.153,-232.672 376.663,-231.353 376.258,-230.439 C 375.853,-229.524 374.534,-229.015 373.619,-229.419"/>
  </g>
  <g>
    <line style="fill: none; fill-opacity:0; stroke-width: 2; stroke: #000000" x1="333.269" y1="-264.209" x2="374.869" y2="-229.919"/>
    <path style="fill: #000000" d="M 333.269 -264.209 C 333.905,-264.981 335.313,-265.117 336.085,-264.481 C 336.856,-263.844 336.992,-262.437 336.356,-261.665 C 335.72,-260.893 334.312,-260.758 333.541,-261.394 C 332.769,-262.03 332.633,-263.438 333.269,-264.209z"/>
    <path style="fill: none; fill-opacity:0; stroke-width: 2; stroke: #000000" d="M 333.269 -264.209 C 333.905,-264.981 335.313,-265.117 336.085,-264.481 C 336.856,-263.844 336.992,-262.437 336.356,-261.665 C 335.72,-260.893 334.312,-260.758 333.541,-261.394 C 332.769,-262.03 332.633,-263.438 333.269,-264.209"/>
    <path style="fill: #000000" d="M 374.869 -229.919 C 374.233,-229.148 372.826,-229.012 372.054,-229.648 C 371.282,-230.284 371.147,-231.692 371.783,-232.464 C 372.419,-233.235 373.827,-233.371 374.598,-232.735 C 375.37,-232.099 375.505,-230.691 374.869,-229.919z"/>
    <path style="fill: none; fill-opacity:0; stroke-width: 2; stroke: #000000" d="M 374.869 -229.919 C 374.233,-229.148 372.826,-229.012 372.054,-229.648 C 371.282,-230.284 371.147,-231.692 371.783,-232.464 C 372.419,-233.235 373.827,-233.371 374.598,-232.735 C 375.37,-232.099 375.505,-230.691 374.869,-229.919"/>
  </g>
  <g>
    <line style="fill: none; fill-opacity:0; stroke-width: 2; stroke: #000000" x1="335.869" y1="-264.419" x2="310.619" y2="-229.669"/>
    <path style="fill: #000000" d="M 335.869 -264.419 C 336.678,-263.831 336.9,-262.435 336.312,-261.626 C 335.724,-260.817 334.327,-260.596 333.518,-261.183 C 332.709,-261.771 332.488,-263.168 333.076,-263.977 C 333.664,-264.786 335.06,-265.007 335.869,-264.419z"/>
    <path style="fill: none; fill-opacity:0; stroke-width: 2; stroke: #000000" d="M 335.869 -264.419 C 336.678,-263.831 336.9,-262.435 336.312,-261.626 C 335.724,-260.817 334.327,-260.596 333.518,-261.183 C 332.709,-261.771 332.488,-263.168 333.076,-263.977 C 333.664,-264.786 335.06,-265.007 335.869,-264.419"/>
    <path style="fill: #000000" d="M 310.619 -229.669 C 309.81,-230.257 309.589,-231.654 310.177,-232.463 C 310.765,-233.272 312.162,-233.493 312.971,-232.905 C 313.78,-232.317 314.001,-230.921 313.413,-230.112 C 312.825,-229.303 311.428,-229.081 310.619,-229.669z"/>
    <path style="fill: none; fill-opacity:0; stroke-width: 2; stroke: #000000" d="M 310.619 -229.669 C 309.81,-230.257 309.589,-231.654 310.177,-232.463 C 310.765,-233.272 312.162,-233.493 312.971,-232.905 C 313.78,-232.317 314.001,-230.921 313.413,-230.112 C 312.825,-229.303 311.428,-229.081 310.619,-229.669"/>
  </g>
  <g>
    <line style="fill: none; fill-opacity:0; stroke-width: 2; stroke: #000000" x1="310.769" y1="-230.959" x2="375.619" y2="-231.169"/>
    <path style="fill: #000000" d="M 310.769 -230.959 C 310.766,-231.959 311.763,-232.963 312.763,-232.966 C 313.763,-232.969 314.766,-231.972 314.769,-230.972 C 314.773,-229.972 313.776,-228.969 312.776,-228.966 C 311.776,-228.963 310.773,-229.959 310.769,-230.959z"/>
    <path style="fill: none; fill-opacity:0; stroke-width: 2; stroke: #000000" d="M 310.769 -230.959 C 310.766,-231.959 311.763,-232.963 312.763,-232.966 C 313.763,-232.969 314.766,-231.972 314.769,-230.972 C 314.773,-229.972 313.776,-228.969 312.776,-228.966 C 311.776,-228.963 310.773,-229.959 310.769,-230.959"/>
    <path style="fill: #000000" d="M 375.619 -231.169 C 375.623,-230.169 374.626,-229.166 373.626,-229.163 C 372.626,-229.16 371.623,-230.156 371.619,-231.156 C 371.616,-232.156 372.613,-233.16 373.613,-233.163 C 374.613,-233.166 375.616,-232.169 375.619,-231.169z"/>
    <path style="fill: none; fill-opacity:0; stroke-width: 2; stroke: #000000" d="M 375.619 -231.169 C 375.623,-230.169 374.626,-229.166 373.626,-229.163 C 372.626,-229.16 371.623,-230.156 371.619,-231.156 C 371.616,-232.156 372.613,-233.16 373.613,-233.163 C 374.613,-233.166 375.616,-232.169 375.619,-231.169"/>
  </g>
  <g>
    <line style="fill: none; fill-opacity:0; stroke-width: 2; stroke: #000000" x1="283.143" y1="-264.083" x2="313.119" y2="-229.919"/>
    <path style="fill: #000000" d="M 283.143 -264.083 C 283.895,-264.743 285.306,-264.651 285.966,-263.899 C 286.625,-263.147 286.533,-261.736 285.782,-261.077 C 285.03,-260.417 283.619,-260.509 282.959,-261.261 C 282.3,-262.013 282.392,-263.424 283.143,-264.083z"/>
    <path style="fill: none; fill-opacity:0; stroke-width: 2; stroke: #000000" d="M 283.143 -264.083 C 283.895,-264.743 285.306,-264.651 285.966,-263.899 C 286.625,-263.147 286.533,-261.736 285.782,-261.077 C 285.03,-260.417 283.619,-260.509 282.959,-261.261 C 282.3,-262.013 282.392,-263.424 283.143,-264.083"/>
    <path style="fill: #000000" d="M 313.119 -229.919 C 312.368,-229.26 310.957,-229.352 310.297,-230.104 C 309.637,-230.855 309.73,-232.266 310.481,-232.926 C 311.233,-233.586 312.644,-233.493 313.304,-232.742 C 313.963,-231.99 313.871,-230.579 313.119,-229.919z"/>
    <path style="fill: none; fill-opacity:0; stroke-width: 2; stroke: #000000" d="M 313.119 -229.919 C 312.368,-229.26 310.957,-229.352 310.297,-230.104 C 309.637,-230.855 309.73,-232.266 310.481,-232.926 C 311.233,-233.586 312.644,-233.493 313.304,-232.742 C 313.963,-231.99 313.871,-230.579 313.119,-229.919"/>
  </g>
  <g>
    <line style="fill: none; fill-opacity:0; stroke-width: 2; stroke: #000000" x1="284.119" y1="-264.169" x2="283.869" y2="-217.92"/>
    <path style="fill: #000000" d="M 284.119 -264.169 C 285.119,-264.164 286.114,-263.159 286.109,-262.159 C 286.103,-261.159 285.098,-260.164 284.098,-260.169 C 283.098,-260.175 282.103,-261.18 282.109,-262.18 C 282.114,-263.18 283.119,-264.175 284.119,-264.169z"/>
    <path style="fill: none; fill-opacity:0; stroke-width: 2; stroke: #000000" d="M 284.119 -264.169 C 285.119,-264.164 286.114,-263.159 286.109,-262.159 C 286.103,-261.159 285.098,-260.164 284.098,-260.169 C 283.098,-260.175 282.103,-261.18 282.109,-262.18 C 282.114,-263.18 283.119,-264.175 284.119,-264.169"/>
    <path style="fill: #000000" d="M 283.869 -217.92 C 282.869,-217.925 281.875,-218.93 281.88,-219.93 C 281.886,-220.93 282.891,-221.925 283.891,-221.919 C 284.891,-221.914 285.886,-220.909 285.88,-219.909 C 285.875,-218.909 284.869,-217.914 283.869,-217.92z"/>
    <path style="fill: none; fill-opacity:0; stroke-width: 2; stroke: #000000" d="M 283.869 -217.92 C 282.869,-217.925 281.875,-218.93 281.88,-219.93 C 281.886,-220.93 282.891,-221.925 283.891,-221.919 C 284.891,-221.914 285.886,-220.909 285.88,-219.909 C 285.875,-218.909 284.869,-217.914 283.869,-217.92"/>
  </g>
  <g>
    <line style="fill: none; fill-opacity:0; stroke-width: 2; stroke: #000000" x1="240.869" y1="-237.169" x2="285.369" y2="-219.42"/>
    <path style="fill: #000000" d="M 240.869 -237.169 C 241.24,-238.098 242.539,-238.657 243.468,-238.286 C 244.397,-237.916 244.955,-236.616 244.585,-235.687 C 244.214,-234.759 242.915,-234.2 241.986,-234.571 C 241.057,-234.941 240.499,-236.24 240.869,-237.169z"/>
    <path style="fill: none; fill-opacity:0; stroke-width: 2; stroke: #000000" d="M 240.869 -237.169 C 241.24,-238.098 242.539,-238.657 243.468,-238.286 C 244.397,-237.916 244.955,-236.616 244.585,-235.687 C 244.214,-234.759 242.915,-234.2 241.986,-234.571 C 241.057,-234.941 240.499,-236.24 240.869,-237.169"/>
    <path style="fill: #000000" d="M 285.369 -219.42 C 284.999,-218.491 283.7,-217.932 282.771,-218.303 C 281.842,-218.673 281.284,-219.973 281.654,-220.901 C 282.025,-221.83 283.324,-222.389 284.253,-222.018 C 285.182,-221.648 285.74,-220.348 285.369,-219.42z"/>
    <path style="fill: none; fill-opacity:0; stroke-width: 2; stroke: #000000" d="M 285.369 -219.42 C 284.999,-218.491 283.7,-217.932 282.771,-218.303 C 281.842,-218.673 281.284,-219.973 281.654,-220.901 C 282.025,-221.83 283.324,-222.389 284.253,-222.018 C 285.182,-221.648 285.74,-220.348 285.369,-219.42"/>
  </g>
  <g>
    <line style="fill: none; fill-opacity:0; stroke-width: 2; stroke: #000000" x1="281.869" y1="-219.17" x2="313.619" y2="-231.669"/>
    <path style="fill: #000000" d="M 281.869 -219.17 C 281.503,-220.1 282.067,-221.397 282.998,-221.763 C 283.928,-222.129 285.225,-221.565 285.591,-220.635 C 285.958,-219.704 285.394,-218.408 284.463,-218.041 C 283.533,-217.675 282.236,-218.239 281.869,-219.17z"/>
    <path style="fill: none; fill-opacity:0; stroke-width: 2; stroke: #000000" d="M 281.869 -219.17 C 281.503,-220.1 282.067,-221.397 282.998,-221.763 C 283.928,-222.129 285.225,-221.565 285.591,-220.635 C 285.958,-219.704 285.394,-218.408 284.463,-218.041 C 283.533,-217.675 282.236,-218.239 281.869,-219.17"/>
    <path style="fill: #000000" d="M 313.619 -231.669 C 313.986,-230.739 313.422,-229.442 312.491,-229.076 C 311.561,-228.709 310.264,-229.274 309.897,-230.204 C 309.531,-231.134 310.095,-232.431 311.026,-232.798 C 311.956,-233.164 313.253,-232.6 313.619,-231.669z"/>
    <path style="fill: none; fill-opacity:0; stroke-width: 2; stroke: #000000" d="M 313.619 -231.669 C 313.986,-230.739 313.422,-229.442 312.491,-229.076 C 311.561,-228.709 310.264,-229.274 309.897,-230.204 C 309.531,-231.134 310.095,-232.431 311.026,-232.798 C 311.956,-233.164 313.253,-232.6 313.619,-231.669"/>
  </g>
  <text font-size="6.77333" style="fill: #ff0000;text-anchor:start;font-family:sans-serif;font-style:normal;font-weight:normal" x="249.369" y="-260.419">
    <tspan x="249.369" y="-260.419">(2, 0)</tspan>
  </text>
  <text font-size="6.77333" style="fill: #ff0000;text-anchor:start;font-family:sans-serif;font-style:normal;font-weight:normal" x="261.069" y="-238.445">
    <tspan x="261.069" y="-238.445">(2, 1)</tspan>
  </text>
  <text font-size="6.77333" style="fill: #ff0000;text-anchor:start;font-family:sans-serif;font-style:normal;font-weight:normal" x="286.019" y="-231.469">
    <tspan x="286.019" y="-231.469">(2, 2)</tspan>
  </text>
  <text font-size="6.77333" style="fill: #ff0000;text-anchor:start;font-family:sans-serif;font-style:normal;font-weight:normal" x="303.469" y="-250.745">
    <tspan x="303.469" y="-250.745">(2, 3)</tspan>
  </text>
  <text font-size="6.77333" style="fill: #ff0000;text-anchor:start;font-family:sans-serif;font-style:normal;font-weight:normal" x="330.669" y="-238.769">
    <tspan x="330.669" y="-238.769">(2, 4)</tspan>
  </text>
  <text font-size="6.77333" style="fill: #ff0000;text-anchor:start;font-family:sans-serif;font-style:normal;font-weight:normal" x="358.369" y="-253.545">
    <tspan x="358.369" y="-253.545">(2, 5)</tspan>
  </text>
  <text font-size="6.77333" style="fill: #ff0000;text-anchor:start;font-family:sans-serif;font-style:normal;font-weight:normal" x="353.819" y="-276.569">
    <tspan x="353.819" y="-276.569">(2, 6)</tspan>
  </text>
  <text font-size="6.77333" style="fill: #ff0000;text-anchor:start;font-family:sans-serif;font-style:normal;font-weight:normal" x="326.019" y="-283.845">
    <tspan x="326.019" y="-283.845">(2, 7)</tspan>
  </text>
  <text font-size="6.77333" style="fill: #ff0000;text-anchor:start;font-family:sans-serif;font-style:normal;font-weight:normal" x="298.219" y="-272.619">
    <tspan x="298.219" y="-272.619">(2, 8)</tspan>
  </text>
  <text font-size="6.77333" style="fill: #ff0000;text-anchor:start;font-family:sans-serif;font-style:normal;font-weight:normal" x="268.419" y="-282.895">
    <tspan x="268.419" y="-282.895">(2, 9)</tspan>
  </text>
  <text font-size="12.8" style="fill: #ff0000;text-anchor:start;font-family:sans-serif;font-style:normal;font-weight:normal" x="271.869" y="-239.419">
    <tspan x="271.869" y="-239.419"></tspan>
  </text>
  <text font-size="6.20889" style="fill: #000000;text-anchor:start;font-family:sans-serif;font-style:normal;font-weight:normal" x="50.9332" y="-294.617">
    <tspan x="50.9332" y="-294.617">Cell to Cell</tspan>
    <tspan x="50.9332" y="-286.856">Connectivity</tspan>
    <tspan x="50.9332" y="-279.095">0 -&gt; {1, 9}</tspan>
    <tspan x="50.9332" y="-271.334">1 -&gt; {2, 0}</tspan>
    <tspan x="50.9332" y="-263.573">2 -&gt; {3, 1}</tspan>
    <tspan x="50.9332" y="-255.811">3 -&gt; {4, 8, 2}</tspan>
    <tspan x="50.9332" y="-248.05">4 -&gt; {5, 3}</tspan>
    <tspan x="50.9332" y="-240.289">5 -&gt; {6, 4}</tspan>
    <tspan x="50.9332" y="-232.528">6 -&gt; {7, 5}</tspan>
    <tspan x="50.9332" y="-224.767">7 -&gt; {8, 6}</tspan>
    <tspan x="50.9332" y="-217.006">8 -&gt; {9, 3, 7}</tspan>
    <tspan x="50.9332" y="-209.245">9 -&gt; {0, 8}</tspan>
  </text>
  <text font-size="6.20889" style="fill: #000000;text-anchor:start;font-family:sans-serif;font-style:normal;font-weight:normal" x="49.9313" y="-195.204">
    <tspan x="49.9313" y="-195.204">Serial CSR</tspan>
    <tspan x="49.9313" y="-187.443">xadj      0 2 4 6 9 11 13 15 17 20 22 </tspan>
    <tspan x="49.9313" y="-179.682">adjncy  1 9 2 0 3 1 4 8 2 5 3 6 4 7 5 8 6 9 3 7 0 8</tspan>
  </text>
  <text font-size="6.20889" style="fill: #000000;text-anchor:start;font-family:sans-serif;font-style:normal;font-weight:normal" x="49.6813" y="-166.022">
    <tspan x="49.6813" y="-166.022">Distributed CSR (2 partitions)</tspan>
    <tspan x="49.6813" y="-158.261">P0       xadj      0 2 4 6 9 11</tspan>
    <tspan x="49.6813" y="-150.5">           adjncy  1 9 2 0 3 1 4 8 2 5 3</tspan>
    <tspan x="49.6813" y="-142.739">           vtxdist  0 5 10</tspan>
    <tspan x="49.6813" y="-134.978"></tspan>
    <tspan x="49.6813" y="-127.217">P1       xadj      0 2 4 6 9 11</tspan>
    <tspan x="49.6813" y="-119.456">           adjncy  6 4 7 5 8 6 9 3 7 0 8</tspan>
    <tspan x="49.6813" y="-111.694">           vtxdist  0 5 10 </tspan>
    <tspan x="49.6813" y="-103.933"></tspan>
  </text>
  <g>
    <line style="fill: none; fill-opacity:0; stroke-width: 2; stroke: #000000" x1="241.302" y1="-177.774" x2="241.172" y2="-119.266"/>
    <path style="fill: #000000" d="M 241.302 -177.774 C 242.302,-177.772 243.3,-176.77 243.298,-175.77 C 243.295,-174.77 242.293,-173.772 241.293,-173.774 C 240.293,-173.776 239.295,-174.779 239.298,-175.779 C 239.3,-176.779 240.302,-177.776 241.302,-177.774z"/>
    <path style="fill: none; fill-opacity:0; stroke-width: 2; stroke: #000000" d="M 241.302 -177.774 C 242.302,-177.772 243.3,-176.77 243.298,-175.77 C 243.295,-174.77 242.293,-173.772 241.293,-173.774 C 240.293,-173.776 239.295,-174.779 239.298,-175.779 C 239.3,-176.779 240.302,-177.776 241.302,-177.774"/>
    <path style="fill: #000000" d="M 241.172 -119.266 C 240.172,-119.268 239.174,-120.27 239.177,-121.27 C 239.179,-122.27 240.181,-123.268 241.181,-123.266 C 242.181,-123.263 243.179,-122.261 243.177,-121.261 C 243.174,-120.261 242.172,-119.263 241.172,-119.266z"/>
    <path style="fill: none; fill-opacity:0; stroke-width: 2; stroke: #000000" d="M 241.172 -119.266 C 240.172,-119.268 239.174,-120.27 239.177,-121.27 C 239.179,-122.27 240.181,-123.268 241.181,-123.266 C 242.181,-123.263 243.179,-122.261 243.177,-121.261 C 243.174,-120.261 242.172,-119.263 241.172,-119.266"/>
  </g>
  <g>
    <line style="fill: none; fill-opacity:0; stroke-width: 2; stroke: #000000" x1="239.802" y1="-176.774" x2="282.208" y2="-145.178"/>
    <path style="fill: #000000" d="M 239.802 -176.774 C 240.4,-177.576 241.799,-177.781 242.601,-177.183 C 243.403,-176.586 243.607,-175.186 243.01,-174.384 C 242.412,-173.582 241.013,-173.378 240.211,-173.976 C 239.409,-174.573 239.205,-175.972 239.802,-176.774z"/>
    <path style="fill: none; fill-opacity:0; stroke-width: 2; stroke: #000000" d="M 239.802 -176.774 C 240.4,-177.576 241.799,-177.781 242.601,-177.183 C 243.403,-176.586 243.607,-175.186 243.01,-174.384 C 242.412,-173.582 241.013,-173.378 240.211,-173.976 C 239.409,-174.573 239.205,-175.972 239.802,-176.774"/>
    <path style="fill: #000000" d="M 282.208 -145.178 C 281.611,-144.376 280.211,-144.172 279.409,-144.769 C 278.607,-145.367 278.403,-146.766 279.001,-147.568 C 279.598,-148.37 280.997,-148.574 281.799,-147.977 C 282.601,-147.379 282.806,-145.98 282.208,-145.178z"/>
    <path style="fill: none; fill-opacity:0; stroke-width: 2; stroke: #000000" d="M 282.208 -145.178 C 281.611,-144.376 280.211,-144.172 279.409,-144.769 C 278.607,-145.367 278.403,-146.766 279.001,-147.568 C 279.598,-148.37 280.997,-148.574 281.799,-147.977 C 282.601,-147.379 282.806,-145.98 282.208,-145.178"/>
  </g>
  <g>
    <line style="fill: none; fill-opacity:0; stroke-width: 2; stroke: #000000" x1="239.802" y1="-119.024" x2="283.052" y2="-146.774"/>
    <path style="fill: #000000" d="M 239.802 -119.024 C 239.262,-119.866 239.564,-121.248 240.405,-121.788 C 241.247,-122.328 242.629,-122.026 243.169,-121.184 C 243.709,-120.343 243.407,-118.961 242.565,-118.421 C 241.724,-117.881 240.342,-118.183 239.802,-119.024z"/>
    <path style="fill: none; fill-opacity:0; stroke-width: 2; stroke: #000000" d="M 239.802 -119.024 C 239.262,-119.866 239.564,-121.248 240.405,-121.788 C 241.247,-122.328 242.629,-122.026 243.169,-121.184 C 243.709,-120.343 243.407,-118.961 242.565,-118.421 C 241.724,-117.881 240.342,-118.183 239.802,-119.024"/>
    <path style="fill: #000000" d="M 283.052 -146.774 C 283.592,-145.933 283.29,-144.551 282.449,-144.011 C 281.607,-143.471 280.225,-143.773 279.685,-144.614 C 279.145,-145.456 279.447,-146.837 280.289,-147.378 C 281.13,-147.918 282.512,-147.616 283.052,-146.774z"/>
    <path style="fill: none; fill-opacity:0; stroke-width: 2; stroke: #000000" d="M 283.052 -146.774 C 283.592,-145.933 283.29,-144.551 282.449,-144.011 C 281.607,-143.471 280.225,-143.773 279.685,-144.614 C 279.145,-145.456 279.447,-146.837 280.289,-147.378 C 281.13,-147.918 282.512,-147.616 283.052,-146.774"/>
  </g>
  <g>
    <line style="fill: none; fill-opacity:0; stroke-width: 2; stroke: #000000" x1="239.576" y1="-175.188" x2="303.302" y2="-179.774"/>
    <path style="fill: #000000" d="M 239.576 -175.188 C 239.504,-176.186 240.43,-177.255 241.427,-177.327 C 242.425,-177.398 243.494,-176.473 243.566,-175.475 C 243.638,-174.478 242.712,-173.409 241.714,-173.337 C 240.717,-173.265 239.648,-174.191 239.576,-175.188z"/>
    <path style="fill: none; fill-opacity:0; stroke-width: 2; stroke: #000000" d="M 239.576 -175.188 C 239.504,-176.186 240.43,-177.255 241.427,-177.327 C 242.425,-177.398 243.494,-176.473 243.566,-175.475 C 243.638,-174.478 242.712,-173.409 241.714,-173.337 C 240.717,-173.265 239.648,-174.191 239.576,-175.188"/>
    <path style="fill: #000000" d="M 303.302 -179.774 C 303.374,-178.777 302.448,-177.708 301.451,-177.636 C 300.453,-177.564 299.384,-178.49 299.312,-179.487 C 299.241,-180.485 300.166,-181.554 301.164,-181.626 C 302.161,-181.697 303.23,-180.772 303.302,-179.774z"/>
    <path style="fill: none; fill-opacity:0; stroke-width: 2; stroke: #000000" d="M 303.302 -179.774 C 303.374,-178.777 302.448,-177.708 301.451,-177.636 C 300.453,-177.564 299.384,-178.49 299.312,-179.487 C 299.241,-180.485 300.166,-181.554 301.164,-181.626 C 302.161,-181.697 303.23,-180.772 303.302,-179.774"/>
  </g>
  <g>
    <line style="fill: none; fill-opacity:0; stroke-width: 2; stroke: #000000" x1="302.302" y1="-181.524" x2="280.326" y2="-144.314"/>
    <path style="fill: #000000" d="M 302.302 -181.524 C 303.163,-181.016 303.516,-179.646 303.007,-178.785 C 302.499,-177.924 301.129,-177.572 300.268,-178.08 C 299.407,-178.589 299.054,-179.958 299.563,-180.819 C 300.071,-181.68 301.441,-182.033 302.302,-181.524z"/>
    <path style="fill: none; fill-opacity:0; stroke-width: 2; stroke: #000000" d="M 302.302 -181.524 C 303.163,-181.016 303.516,-179.646 303.007,-178.785 C 302.499,-177.924 301.129,-177.572 300.268,-178.08 C 299.407,-178.589 299.054,-179.958 299.563,-180.819 C 300.071,-181.68 301.441,-182.033 302.302,-181.524"/>
    <path style="fill: #000000" d="M 280.326 -144.314 C 279.465,-144.823 279.112,-146.192 279.621,-147.053 C 280.13,-147.914 281.499,-148.267 282.36,-147.758 C 283.221,-147.25 283.574,-145.88 283.065,-145.019 C 282.557,-144.158 281.187,-143.806 280.326,-144.314z"/>
    <path style="fill: none; fill-opacity:0; stroke-width: 2; stroke: #000000" d="M 280.326 -144.314 C 279.465,-144.823 279.112,-146.192 279.621,-147.053 C 280.13,-147.914 281.499,-148.267 282.36,-147.758 C 283.221,-147.25 283.574,-145.88 283.065,-145.019 C 282.557,-144.158 281.187,-143.806 280.326,-144.314"/>
  </g>
  <g>
    <line style="fill: none; fill-opacity:0; stroke-width: 2; stroke: #000000" x1="300.076" y1="-181.188" x2="334.052" y2="-145.024"/>
    <path style="fill: #000000" d="M 300.076 -181.188 C 300.805,-181.873 302.218,-181.829 302.903,-181.1 C 303.588,-180.371 303.544,-178.958 302.815,-178.273 C 302.086,-177.588 300.673,-177.632 299.988,-178.361 C 299.303,-179.09 299.347,-180.504 300.076,-181.188z"/>
    <path style="fill: none; fill-opacity:0; stroke-width: 2; stroke: #000000" d="M 300.076 -181.188 C 300.805,-181.873 302.218,-181.829 302.903,-181.1 C 303.588,-180.371 303.544,-178.958 302.815,-178.273 C 302.086,-177.588 300.673,-177.632 299.988,-178.361 C 299.303,-179.09 299.347,-180.504 300.076,-181.188"/>
    <path style="fill: #000000" d="M 334.052 -145.024 C 333.323,-144.34 331.91,-144.384 331.225,-145.112 C 330.54,-145.841 330.584,-147.255 331.313,-147.939 C 332.042,-148.624 333.456,-148.58 334.14,-147.851 C 334.825,-147.122 334.781,-145.709 334.052,-145.024z"/>
    <path style="fill: none; fill-opacity:0; stroke-width: 2; stroke: #000000" d="M 334.052 -145.024 C 333.323,-144.34 331.91,-144.384 331.225,-145.112 C 330.54,-145.841 330.584,-147.255 331.313,-147.939 C 332.042,-148.624 333.456,-148.58 334.14,-147.851 C 334.825,-147.122 334.781,-145.709 334.052,-145.024"/>
  </g>
  <g>
    <line style="fill: none; fill-opacity:0; stroke-width: 2; stroke: #000000" x1="280.052" y1="-145.774" x2="334.552" y2="-145.774"/>
    <path style="fill: #000000" d="M 280.052 -145.774 C 280.052,-146.774 281.052,-147.774 282.052,-147.774 C 283.052,-147.774 284.052,-146.774 284.052,-145.774 C 284.052,-144.774 283.052,-143.774 282.052,-143.774 C 281.052,-143.774 280.052,-144.774 280.052,-145.774z"/>
    <path style="fill: none; fill-opacity:0; stroke-width: 2; stroke: #000000" d="M 280.052 -145.774 C 280.052,-146.774 281.052,-147.774 282.052,-147.774 C 283.052,-147.774 284.052,-146.774 284.052,-145.774 C 284.052,-144.774 283.052,-143.774 282.052,-143.774 C 281.052,-143.774 280.052,-144.774 280.052,-145.774"/>
    <path style="fill: #000000" d="M 334.552 -145.774 C 334.552,-144.774 333.552,-143.774 332.552,-143.774 C 331.552,-143.774 330.552,-144.774 330.552,-145.774 C 330.552,-146.774 331.552,-147.774 332.552,-147.774 C 333.552,-147.774 334.552,-146.774 334.552,-145.774z"/>
    <path style="fill: none; fill-opacity:0; stroke-width: 2; stroke: #000000" d="M 334.552 -145.774 C 334.552,-144.774 333.552,-143.774 332.552,-143.774 C 331.552,-143.774 330.552,-144.774 330.552,-145.774 C 330.552,-146.774 331.552,-147.774 332.552,-147.774 C 333.552,-147.774 334.552,-146.774 334.552,-145.774"/>
  </g>
  <g>
    <line style="fill: none; fill-opacity:0; stroke-width: 2; stroke: #000000" x1="299.076" y1="-179.814" x2="357.052" y2="-179.524"/>
    <path style="fill: #000000" d="M 299.076 -179.814 C 299.081,-180.814 300.086,-181.809 301.086,-181.804 C 302.086,-181.799 303.081,-180.794 303.076,-179.794 C 303.071,-178.794 302.066,-177.799 301.066,-177.804 C 300.066,-177.809 299.071,-178.814 299.076,-179.814z"/>
    <path style="fill: none; fill-opacity:0; stroke-width: 2; stroke: #000000" d="M 299.076 -179.814 C 299.081,-180.814 300.086,-181.809 301.086,-181.804 C 302.086,-181.799 303.081,-180.794 303.076,-179.794 C 303.071,-178.794 302.066,-177.799 301.066,-177.804 C 300.066,-177.809 299.071,-178.814 299.076,-179.814"/>
    <path style="fill: #000000" d="M 357.052 -179.524 C 357.047,-178.524 356.042,-177.529 355.042,-177.534 C 354.042,-177.539 353.047,-178.544 353.052,-179.544 C 353.057,-180.544 354.062,-181.539 355.062,-181.534 C 356.062,-181.529 357.057,-180.524 357.052,-179.524z"/>
    <path style="fill: none; fill-opacity:0; stroke-width: 2; stroke: #000000" d="M 357.052 -179.524 C 357.047,-178.524 356.042,-177.529 355.042,-177.534 C 354.042,-177.539 353.047,-178.544 353.052,-179.544 C 353.057,-180.544 354.062,-181.539 355.062,-181.534 C 356.062,-181.529 357.057,-180.524 357.052,-179.524"/>
  </g>
  <g>
    <line style="fill: none; fill-opacity:0; stroke-width: 2; stroke: #000000" x1="356.552" y1="-181.524" x2="332.326" y2="-144.564"/>
    <path style="fill: #000000" d="M 356.552 -181.524 C 357.388,-180.976 357.677,-179.592 357.128,-178.755 C 356.58,-177.919 355.196,-177.631 354.359,-178.179 C 353.523,-178.727 353.235,-180.112 353.783,-180.948 C 354.331,-181.784 355.716,-182.072 356.552,-181.524z"/>
    <path style="fill: none; fill-opacity:0; stroke-width: 2; stroke: #000000" d="M 356.552 -181.524 C 357.388,-180.976 357.677,-179.592 357.128,-178.755 C 356.58,-177.919 355.196,-177.631 354.359,-178.179 C 353.523,-178.727 353.235,-180.112 353.783,-180.948 C 354.331,-181.784 355.716,-182.072 356.552,-181.524"/>
    <path style="fill: #000000" d="M 332.326 -144.564 C 331.49,-145.112 331.202,-146.497 331.75,-147.333 C 332.298,-148.17 333.683,-148.458 334.519,-147.91 C 335.355,-147.361 335.643,-145.977 335.095,-145.141 C 334.547,-144.304 333.162,-144.016 332.326,-144.564z"/>
    <path style="fill: none; fill-opacity:0; stroke-width: 2; stroke: #000000" d="M 332.326 -144.564 C 331.49,-145.112 331.202,-146.497 331.75,-147.333 C 332.298,-148.17 333.683,-148.458 334.519,-147.91 C 335.355,-147.361 335.643,-145.977 335.095,-145.141 C 334.547,-144.304 333.162,-144.016 332.326,-144.564"/>
  </g>
  <g>
    <line style="fill: none; fill-opacity:0; stroke-width: 2; stroke: #000000" x1="354.076" y1="-180.938" x2="393.052" y2="-155.524"/>
    <path style="fill: #000000" d="M 354.076 -180.938 C 354.622,-181.776 356.006,-182.067 356.844,-181.521 C 357.681,-180.975 357.973,-179.591 357.427,-178.753 C 356.881,-177.916 355.497,-177.624 354.659,-178.171 C 353.821,-178.717 353.53,-180.101 354.076,-180.938z"/>
    <path style="fill: none; fill-opacity:0; stroke-width: 2; stroke: #000000" d="M 354.076 -180.938 C 354.622,-181.776 356.006,-182.067 356.844,-181.521 C 357.681,-180.975 357.973,-179.591 357.427,-178.753 C 356.881,-177.916 355.497,-177.624 354.659,-178.171 C 353.821,-178.717 353.53,-180.101 354.076,-180.938"/>
    <path style="fill: #000000" d="M 393.052 -155.524 C 392.506,-154.687 391.122,-154.395 390.284,-154.941 C 389.447,-155.487 389.155,-156.871 389.701,-157.709 C 390.248,-158.547 391.631,-158.838 392.469,-158.292 C 393.307,-157.746 393.598,-156.362 393.052,-155.524z"/>
    <path style="fill: none; fill-opacity:0; stroke-width: 2; stroke: #000000" d="M 393.052 -155.524 C 392.506,-154.687 391.122,-154.395 390.284,-154.941 C 389.447,-155.487 389.155,-156.871 389.701,-157.709 C 390.248,-158.547 391.631,-158.838 392.469,-158.292 C 393.307,-157.746 393.598,-156.362 393.052,-155.524"/>
  </g>
  <g>
    <line style="fill: none; fill-opacity:0; stroke-width: 2; stroke: #000000" x1="333.07" y1="-145.467" x2="393.302" y2="-156.774"/>
    <path style="fill: #000000" d="M 333.07 -145.467 C 332.886,-146.45 333.684,-147.617 334.667,-147.802 C 335.65,-147.986 336.817,-147.188 337.001,-146.205 C 337.186,-145.222 336.388,-144.055 335.405,-143.871 C 334.422,-143.686 333.255,-144.484 333.07,-145.467z"/>
    <path style="fill: none; fill-opacity:0; stroke-width: 2; stroke: #000000" d="M 333.07 -145.467 C 332.886,-146.45 333.684,-147.617 334.667,-147.802 C 335.65,-147.986 336.817,-147.188 337.001,-146.205 C 337.186,-145.222 336.388,-144.055 335.405,-143.871 C 334.422,-143.686 333.255,-144.484 333.07,-145.467"/>
    <path style="fill: #000000" d="M 393.302 -156.774 C 393.487,-155.791 392.688,-154.624 391.705,-154.44 C 390.723,-154.255 389.555,-155.053 389.371,-156.036 C 389.186,-157.019 389.985,-158.186 390.967,-158.371 C 391.95,-158.555 393.118,-157.757 393.302,-156.774z"/>
    <path style="fill: none; fill-opacity:0; stroke-width: 2; stroke: #000000" d="M 393.302 -156.774 C 393.487,-155.791 392.688,-154.624 391.705,-154.44 C 390.723,-154.255 389.555,-155.053 389.371,-156.036 C 389.186,-157.019 389.985,-158.186 390.967,-158.371 C 391.95,-158.555 393.118,-157.757 393.302,-156.774"/>
  </g>
  <g>
    <line style="fill: none; fill-opacity:0; stroke-width: 2; stroke: #000000" x1="392.052" y1="-158.274" x2="371.802" y2="-112.524"/>
    <path style="fill: #000000" d="M 392.052 -158.274 C 392.966,-157.869 393.476,-156.55 393.071,-155.636 C 392.667,-154.721 391.348,-154.212 390.433,-154.617 C 389.519,-155.021 389.009,-156.34 389.414,-157.255 C 389.818,-158.169 391.138,-158.679 392.052,-158.274z"/>
    <path style="fill: none; fill-opacity:0; stroke-width: 2; stroke: #000000" d="M 392.052 -158.274 C 392.966,-157.869 393.476,-156.55 393.071,-155.636 C 392.667,-154.721 391.348,-154.212 390.433,-154.617 C 389.519,-155.021 389.009,-156.34 389.414,-157.255 C 389.818,-158.169 391.138,-158.679 392.052,-158.274"/>
    <path style="fill: #000000" d="M 371.802 -112.524 C 370.888,-112.929 370.378,-114.248 370.783,-115.163 C 371.187,-116.077 372.507,-116.587 373.421,-116.182 C 374.335,-115.777 374.845,-114.458 374.44,-113.544 C 374.036,-112.629 372.716,-112.119 371.802,-112.524z"/>
    <path style="fill: none; fill-opacity:0; stroke-width: 2; stroke: #000000" d="M 371.802 -112.524 C 370.888,-112.929 370.378,-114.248 370.783,-115.163 C 371.187,-116.077 372.507,-116.587 373.421,-116.182 C 374.335,-115.777 374.845,-114.458 374.44,-113.544 C 374.036,-112.629 372.716,-112.119 371.802,-112.524"/>
  </g>
  <g>
    <line style="fill: none; fill-opacity:0; stroke-width: 2; stroke: #000000" x1="331.452" y1="-147.314" x2="374.49" y2="-112.715"/>
    <path style="fill: #000000" d="M 331.452 -147.314 C 332.079,-148.094 333.485,-148.246 334.264,-147.62 C 335.043,-146.993 335.196,-145.587 334.57,-144.808 C 333.943,-144.029 332.537,-143.876 331.758,-144.502 C 330.978,-145.129 330.826,-146.535 331.452,-147.314z"/>
    <path style="fill: none; fill-opacity:0; stroke-width: 2; stroke: #000000" d="M 331.452 -147.314 C 332.079,-148.094 333.485,-148.246 334.264,-147.62 C 335.043,-146.993 335.196,-145.587 334.57,-144.808 C 333.943,-144.029 332.537,-143.876 331.758,-144.502 C 330.978,-145.129 330.826,-146.535 331.452,-147.314"/>
    <path style="fill: #000000" d="M 374.49 -112.715 C 373.864,-111.936 372.458,-111.783 371.678,-112.41 C 370.899,-113.036 370.746,-114.442 371.373,-115.221 C 371.999,-116.001 373.405,-116.154 374.184,-115.527 C 374.964,-114.901 375.117,-113.495 374.49,-112.715z"/>
    <path style="fill: none; fill-opacity:0; stroke-width: 2; stroke: #000000" d="M 374.49 -112.715 C 373.864,-111.936 372.458,-111.783 371.678,-112.41 C 370.899,-113.036 370.746,-114.442 371.373,-115.221 C 371.999,-116.001 373.405,-116.154 374.184,-115.527 C 374.964,-114.901 375.117,-113.495 374.49,-112.715"/>
  </g>
  <g>
    <line style="fill: none; fill-opacity:0; stroke-width: 2; stroke: #000000" x1="334.052" y1="-147.524" x2="308.802" y2="-112.774"/>
    <path style="fill: #000000" d="M 334.052 -147.524 C 334.861,-146.936 335.082,-145.54 334.494,-144.731 C 333.907,-143.922 332.51,-143.7 331.701,-144.288 C 330.892,-144.876 330.671,-146.273 331.258,-147.082 C 331.846,-147.891 333.243,-148.112 334.052,-147.524z"/>
    <path style="fill: none; fill-opacity:0; stroke-width: 2; stroke: #000000" d="M 334.052 -147.524 C 334.861,-146.936 335.082,-145.54 334.494,-144.731 C 333.907,-143.922 332.51,-143.7 331.701,-144.288 C 330.892,-144.876 330.671,-146.273 331.258,-147.082 C 331.846,-147.891 333.243,-148.112 334.052,-147.524"/>
    <path style="fill: #000000" d="M 308.802 -112.774 C 307.993,-113.362 307.772,-114.759 308.36,-115.568 C 308.948,-116.377 310.344,-116.598 311.153,-116.01 C 311.962,-115.422 312.184,-114.026 311.596,-113.217 C 311.008,-112.408 309.611,-112.186 308.802,-112.774z"/>
    <path style="fill: none; fill-opacity:0; stroke-width: 2; stroke: #000000" d="M 308.802 -112.774 C 307.993,-113.362 307.772,-114.759 308.36,-115.568 C 308.948,-116.377 310.344,-116.598 311.153,-116.01 C 311.962,-115.422 312.184,-114.026 311.596,-113.217 C 311.008,-112.408 309.611,-112.186 308.802,-112.774"/>
  </g>
  <g>
    <line style="fill: none; fill-opacity:0; stroke-width: 2; stroke: #000000" x1="308.952" y1="-114.064" x2="372.95" y2="-114.064"/>
    <path style="fill: #000000" d="M 308.952 -114.064 C 308.952,-115.064 309.952,-116.064 310.952,-116.064 C 311.952,-116.064 312.952,-115.064 312.952,-114.064 C 312.952,-113.064 311.952,-112.064 310.952,-112.064 C 309.952,-112.064 308.952,-113.064 308.952,-114.064z"/>
    <path style="fill: none; fill-opacity:0; stroke-width: 2; stroke: #000000" d="M 308.952 -114.064 C 308.952,-115.064 309.952,-116.064 310.952,-116.064 C 311.952,-116.064 312.952,-115.064 312.952,-114.064 C 312.952,-113.064 311.952,-112.064 310.952,-112.064 C 309.952,-112.064 308.952,-113.064 308.952,-114.064"/>
    <path style="fill: #000000" d="M 372.95 -114.064 C 372.95,-113.064 371.95,-112.064 370.95,-112.064 C 369.95,-112.064 368.95,-113.064 368.95,-114.064 C 368.95,-115.064 369.95,-116.064 370.95,-116.064 C 371.95,-116.064 372.95,-115.064 372.95,-114.064z"/>
    <path style="fill: none; fill-opacity:0; stroke-width: 2; stroke: #000000" d="M 372.95 -114.064 C 372.95,-113.064 371.95,-112.064 370.95,-112.064 C 369.95,-112.064 368.95,-113.064 368.95,-114.064 C 368.95,-115.064 369.95,-116.064 370.95,-116.064 C 371.95,-116.064 372.95,-115.064 372.95,-114.064"/>
  </g>
  <g>
    <line style="fill: none; fill-opacity:0; stroke-width: 2; stroke: #000000" x1="281.326" y1="-147.188" x2="311.302" y2="-113.024"/>
    <path style="fill: #000000" d="M 281.326 -147.188 C 282.078,-147.848 283.489,-147.756 284.148,-147.004 C 284.808,-146.252 284.716,-144.841 283.964,-144.182 C 283.213,-143.522 281.801,-143.614 281.142,-144.366 C 280.482,-145.118 280.574,-146.529 281.326,-147.188z"/>
    <path style="fill: none; fill-opacity:0; stroke-width: 2; stroke: #000000" d="M 281.326 -147.188 C 282.078,-147.848 283.489,-147.756 284.148,-147.004 C 284.808,-146.252 284.716,-144.841 283.964,-144.182 C 283.213,-143.522 281.801,-143.614 281.142,-144.366 C 280.482,-145.118 280.574,-146.529 281.326,-147.188"/>
    <path style="fill: #000000" d="M 311.302 -113.024 C 310.55,-112.365 309.139,-112.457 308.48,-113.209 C 307.82,-113.96 307.912,-115.371 308.664,-116.031 C 309.416,-116.69 310.827,-116.598 311.486,-115.847 C 312.146,-115.095 312.054,-113.684 311.302,-113.024z"/>
    <path style="fill: none; fill-opacity:0; stroke-width: 2; stroke: #000000" d="M 311.302 -113.024 C 310.55,-112.365 309.139,-112.457 308.48,-113.209 C 307.82,-113.96 307.912,-115.371 308.664,-116.031 C 309.416,-116.69 310.827,-116.598 311.486,-115.847 C 312.146,-115.095 312.054,-113.684 311.302,-113.024"/>
  </g>
  <g>
    <line style="fill: none; fill-opacity:0; stroke-width: 2; stroke: #000000" x1="282.302" y1="-147.274" x2="282.052" y2="-101.024"/>
    <path style="fill: #000000" d="M 282.302 -147.274 C 283.302,-147.269 284.297,-146.263 284.291,-145.263 C 284.286,-144.263 283.28,-143.269 282.28,-143.274 C 281.28,-143.28 280.286,-144.285 280.291,-145.285 C 280.297,-146.285 281.302,-147.28 282.302,-147.274z"/>
    <path style="fill: none; fill-opacity:0; stroke-width: 2; stroke: #000000" d="M 282.302 -147.274 C 283.302,-147.269 284.297,-146.263 284.291,-145.263 C 284.286,-144.263 283.28,-143.269 282.28,-143.274 C 281.28,-143.28 280.286,-144.285 280.291,-145.285 C 280.297,-146.285 281.302,-147.28 282.302,-147.274"/>
    <path style="fill: #000000" d="M 282.052 -101.024 C 281.052,-101.03 280.057,-102.035 280.063,-103.035 C 280.068,-104.035 281.074,-105.03 282.074,-105.024 C 283.074,-105.019 284.068,-104.014 284.063,-103.014 C 284.057,-102.014 283.052,-101.019 282.052,-101.024z"/>
    <path style="fill: none; fill-opacity:0; stroke-width: 2; stroke: #000000" d="M 282.052 -101.024 C 281.052,-101.03 280.057,-102.035 280.063,-103.035 C 280.068,-104.035 281.074,-105.03 282.074,-105.024 C 283.074,-105.019 284.068,-104.014 284.063,-103.014 C 284.057,-102.014 283.052,-101.019 282.052,-101.024"/>
  </g>
  <g>
    <line style="fill: none; fill-opacity:0; stroke-width: 2; stroke: #000000" x1="239.052" y1="-120.274" x2="283.552" y2="-102.524"/>
    <path style="fill: #000000" d="M 239.052 -120.274 C 239.423,-121.203 240.722,-121.761 241.651,-121.391 C 242.58,-121.02 243.138,-119.721 242.767,-118.792 C 242.397,-117.863 241.098,-117.305 240.169,-117.676 C 239.24,-118.046 238.682,-119.345 239.052,-120.274z"/>
    <path style="fill: none; fill-opacity:0; stroke-width: 2; stroke: #000000" d="M 239.052 -120.274 C 239.423,-121.203 240.722,-121.761 241.651,-121.391 C 242.58,-121.02 243.138,-119.721 242.767,-118.792 C 242.397,-117.863 241.098,-117.305 240.169,-117.676 C 239.24,-118.046 238.682,-119.345 239.052,-120.274"/>
    <path style="fill: #000000" d="M 283.552 -102.524 C 283.182,-101.596 281.882,-101.037 280.953,-101.408 C 280.025,-101.778 279.466,-103.078 279.837,-104.006 C 280.207,-104.935 281.507,-105.494 282.435,-105.123 C 283.364,-104.753 283.923,-103.453 283.552,-102.524z"/>
    <path style="fill: none; fill-opacity:0; stroke-width: 2; stroke: #000000" d="M 283.552 -102.524 C 283.182,-101.596 281.882,-101.037 280.953,-101.408 C 280.025,-101.778 279.466,-103.078 279.837,-104.006 C 280.207,-104.935 281.507,-105.494 282.435,-105.123 C 283.364,-104.753 283.923,-103.453 283.552,-102.524"/>
  </g>
  <g>
    <line style="fill: none; fill-opacity:0; stroke-width: 2; stroke: #000000" x1="280.052" y1="-102.274" x2="311.802" y2="-114.774"/>
    <path style="fill: #000000" d="M 280.052 -102.274 C 279.686,-103.205 280.25,-104.502 281.18,-104.868 C 282.111,-105.234 283.408,-104.67 283.774,-103.74 C 284.14,-102.809 283.576,-101.512 282.646,-101.146 C 281.715,-100.78 280.418,-101.344 280.052,-102.274z"/>
    <path style="fill: none; fill-opacity:0; stroke-width: 2; stroke: #000000" d="M 280.052 -102.274 C 279.686,-103.205 280.25,-104.502 281.18,-104.868 C 282.111,-105.234 283.408,-104.67 283.774,-103.74 C 284.14,-102.809 283.576,-101.512 282.646,-101.146 C 281.715,-100.78 280.418,-101.344 280.052,-102.274"/>
    <path style="fill: #000000" d="M 311.802 -114.774 C 312.168,-113.844 311.604,-112.547 310.674,-112.181 C 309.743,-111.814 308.446,-112.378 308.08,-113.309 C 307.714,-114.239 308.278,-115.536 309.208,-115.903 C 310.139,-116.269 311.436,-115.705 311.802,-114.774z"/>
    <path style="fill: none; fill-opacity:0; stroke-width: 2; stroke: #000000" d="M 311.802 -114.774 C 312.168,-113.844 311.604,-112.547 310.674,-112.181 C 309.743,-111.814 308.446,-112.378 308.08,-113.309 C 307.714,-114.239 308.278,-115.536 309.208,-115.903 C 310.139,-116.269 311.436,-115.705 311.802,-114.774"/>
  </g>
  <text font-size="6.77333" style="fill: #ff0000;text-anchor:start;font-family:sans-serif;font-style:normal;font-weight:normal" x="247.552" y="-143.524">
    <tspan x="247.552" y="-143.524">(2, 0)</tspan>
  </text>
  <text font-size="6.77333" style="fill: #ff0000;text-anchor:start;font-family:sans-serif;font-style:normal;font-weight:normal" x="259.252" y="-121.55">
    <tspan x="259.252" y="-121.55">(2, 1)</tspan>
  </text>
  <text font-size="6.77333" style="fill: #ff0000;text-anchor:start;font-family:sans-serif;font-style:normal;font-weight:normal" x="284.202" y="-114.574">
    <tspan x="284.202" y="-114.574">(2, 2)</tspan>
  </text>
  <text font-size="6.77333" style="fill: #ff0000;text-anchor:start;font-family:sans-serif;font-style:normal;font-weight:normal" x="301.652" y="-133.85">
    <tspan x="301.652" y="-133.85">(2, 3)</tspan>
  </text>
  <text font-size="6.77333" style="fill: #ff0000;text-anchor:start;font-family:sans-serif;font-style:normal;font-weight:normal" x="328.852" y="-121.874">
    <tspan x="328.852" y="-121.874">(2, 4)</tspan>
  </text>
  <text font-size="6.77333" style="fill: #ff0000;text-anchor:start;font-family:sans-serif;font-style:normal;font-weight:normal" x="356.552" y="-136.65">
    <tspan x="356.552" y="-136.65">(2, 5)</tspan>
  </text>
  <text font-size="6.77333" style="fill: #ff0000;text-anchor:start;font-family:sans-serif;font-style:normal;font-weight:normal" x="352.002" y="-159.674">
    <tspan x="352.002" y="-159.674">(2, 6)</tspan>
  </text>
  <text font-size="6.77333" style="fill: #ff0000;text-anchor:start;font-family:sans-serif;font-style:normal;font-weight:normal" x="324.202" y="-166.95">
    <tspan x="324.202" y="-166.95">(2, 7)</tspan>
  </text>
  <text font-size="6.77333" style="fill: #ff0000;text-anchor:start;font-family:sans-serif;font-style:normal;font-weight:normal" x="296.402" y="-155.724">
    <tspan x="296.402" y="-155.724">(2, 8)</tspan>
  </text>
  <text font-size="6.77333" style="fill: #ff0000;text-anchor:start;font-family:sans-serif;font-style:normal;font-weight:normal" x="266.602" y="-166">
    <tspan x="266.602" y="-166">(2, 9)</tspan>
  </text>
  <text font-size="12.8" style="fill: #ff0000;text-anchor:start;font-family:sans-serif;font-style:normal;font-weight:normal" x="270.052" y="-122.524">
    <tspan x="270.052" y="-122.524"></tspan>
  </text>
  <g>
    <line style="fill: none; fill-opacity:0; stroke-width: 2; stroke: #000000" x1="241.337" y1="-79.7097" x2="241.087" y2="-20.2097"/>
    <path style="fill: #000000" d="M 241.337 -79.7097 C 242.337,-79.7055 243.333,-78.7013 243.328,-77.7013 C 243.324,-76.7013 242.32,-75.7055 241.32,-75.7097 C 240.32,-75.7139 239.324,-76.7181 239.328,-77.7181 C 239.333,-78.7181 240.337,-79.7139 241.337,-79.7097z"/>
    <path style="fill: none; fill-opacity:0; stroke-width: 2; stroke: #000000" d="M 241.337 -79.7097 C 242.337,-79.7055 243.333,-78.7013 243.328,-77.7013 C 243.324,-76.7013 242.32,-75.7055 241.32,-75.7097 C 240.32,-75.7139 239.324,-76.7181 239.328,-77.7181 C 239.333,-78.7181 240.337,-79.7139 241.337,-79.7097"/>
    <path style="fill: #000000" d="M 241.087 -20.2097 C 240.087,-20.2139 239.091,-21.2181 239.095,-22.2181 C 239.1,-23.2181 240.104,-24.2138 241.104,-24.2096 C 242.104,-24.2054 243.099,-23.2013 243.095,-22.2013 C 243.091,-21.2013 242.087,-20.2055 241.087,-20.2097z"/>
    <path style="fill: none; fill-opacity:0; stroke-width: 2; stroke: #000000" d="M 241.087 -20.2097 C 240.087,-20.2139 239.091,-21.2181 239.095,-22.2181 C 239.1,-23.2181 240.104,-24.2138 241.104,-24.2096 C 242.104,-24.2054 243.099,-23.2013 243.095,-22.2013 C 243.091,-21.2013 242.087,-20.2055 241.087,-20.2097"/>
  </g>
  <g>
    <line style="fill: none; fill-opacity:0; stroke-width: 2; stroke: #000000" x1="239.837" y1="-78.7097" x2="282.837" y2="-46.9597"/>
    <path style="fill: #000000" d="M 239.837 -78.7097 C 240.431,-79.5142 241.829,-79.7246 242.634,-79.1306 C 243.438,-78.5366 243.649,-77.1382 243.055,-76.3337 C 242.461,-75.5292 241.062,-75.3188 240.258,-75.9128 C 239.453,-76.5068 239.243,-77.9052 239.837,-78.7097z"/>
    <path style="fill: none; fill-opacity:0; stroke-width: 2; stroke: #000000" d="M 239.837 -78.7097 C 240.431,-79.5142 241.829,-79.7246 242.634,-79.1306 C 243.438,-78.5366 243.649,-77.1382 243.055,-76.3337 C 242.461,-75.5292 241.062,-75.3188 240.258,-75.9128 C 239.453,-76.5068 239.243,-77.9052 239.837,-78.7097"/>
    <path style="fill: #000000" d="M 282.837 -46.9597 C 282.243,-46.1552 280.844,-45.9447 280.04,-46.5387 C 279.235,-47.1327 279.025,-48.5312 279.619,-49.3357 C 280.213,-50.1401 281.611,-50.3506 282.416,-49.7566 C 283.22,-49.1626 283.431,-47.7642 282.837,-46.9597z"/>
    <path style="fill: none; fill-opacity:0; stroke-width: 2; stroke: #000000" d="M 282.837 -46.9597 C 282.243,-46.1552 280.844,-45.9447 280.04,-46.5387 C 279.235,-47.1327 279.025,-48.5312 279.619,-49.3357 C 280.213,-50.1401 281.611,-50.3506 282.416,-49.7566 C 283.22,-49.1626 283.431,-47.7642 282.837,-46.9597"/>
  </g>
  <g>
    <line style="fill: none; fill-opacity:0; stroke-width: 2; stroke: #000000" x1="239.837" y1="-20.9597" x2="283.087" y2="-48.7097"/>
    <path style="fill: #000000" d="M 239.837 -20.9597 C 239.297,-21.8013 239.598,-23.183 240.44,-23.723 C 241.282,-24.263 242.663,-23.9614 243.203,-23.1198 C 243.744,-22.2781 243.442,-20.8964 242.6,-20.3564 C 241.759,-19.8164 240.377,-20.118 239.837,-20.9597z"/>
    <path style="fill: none; fill-opacity:0; stroke-width: 2; stroke: #000000" d="M 239.837 -20.9597 C 239.297,-21.8013 239.598,-23.183 240.44,-23.723 C 241.282,-24.263 242.663,-23.9614 243.203,-23.1198 C 243.744,-22.2781 243.442,-20.8964 242.6,-20.3564 C 241.759,-19.8164 240.377,-20.118 239.837,-20.9597"/>
    <path style="fill: #000000" d="M 283.087 -48.7097 C 283.627,-47.868 283.325,-46.4864 282.484,-45.9463 C 281.642,-45.4063 280.26,-45.708 279.72,-46.5496 C 279.18,-47.3913 279.482,-48.7729 280.324,-49.3129 C 281.165,-49.853 282.547,-49.5513 283.087,-48.7097z"/>
    <path style="fill: none; fill-opacity:0; stroke-width: 2; stroke: #000000" d="M 283.087 -48.7097 C 283.627,-47.868 283.325,-46.4864 282.484,-45.9463 C 281.642,-45.4063 280.26,-45.708 279.72,-46.5496 C 279.18,-47.3913 279.482,-48.7729 280.324,-49.3129 C 281.165,-49.853 282.547,-49.5513 283.087,-48.7097"/>
  </g>
  <g>
    <line style="fill: none; fill-opacity:0; stroke-width: 2; stroke: #000000" x1="239.611" y1="-77.1237" x2="303.337" y2="-81.7097"/>
    <path style="fill: #000000" d="M 239.611 -77.1237 C 239.539,-78.1211 240.465,-79.1903 241.462,-79.2621 C 242.46,-79.3339 243.529,-78.4082 243.601,-77.4108 C 243.672,-76.4134 242.747,-75.3442 241.749,-75.2724 C 240.752,-75.2006 239.683,-76.1263 239.611,-77.1237z"/>
    <path style="fill: none; fill-opacity:0; stroke-width: 2; stroke: #000000" d="M 239.611 -77.1237 C 239.539,-78.1211 240.465,-79.1903 241.462,-79.2621 C 242.46,-79.3339 243.529,-78.4082 243.601,-77.4108 C 243.672,-76.4134 242.747,-75.3442 241.749,-75.2724 C 240.752,-75.2006 239.683,-76.1263 239.611,-77.1237"/>
    <path style="fill: #000000" d="M 303.337 -81.7097 C 303.409,-80.7123 302.483,-79.6431 301.486,-79.5713 C 300.488,-79.4995 299.419,-80.4251 299.347,-81.4226 C 299.275,-82.42 300.201,-83.4892 301.198,-83.561 C 302.196,-83.6327 303.265,-82.7071 303.337,-81.7097z"/>
    <path style="fill: none; fill-opacity:0; stroke-width: 2; stroke: #000000" d="M 303.337 -81.7097 C 303.409,-80.7123 302.483,-79.6431 301.486,-79.5713 C 300.488,-79.4995 299.419,-80.4251 299.347,-81.4226 C 299.275,-82.42 300.201,-83.4892 301.198,-83.561 C 302.196,-83.6327 303.265,-82.7071 303.337,-81.7097"/>
  </g>
  <g>
    <line style="fill: none; fill-opacity:0; stroke-width: 2; stroke: #000000" x1="302.337" y1="-83.4597" x2="280.361" y2="-46.2497"/>
    <path style="fill: #000000" d="M 302.337 -83.4597 C 303.198,-82.9512 303.55,-81.5816 303.042,-80.7205 C 302.533,-79.8595 301.164,-79.507 300.303,-80.0155 C 299.442,-80.524 299.089,-81.8936 299.598,-82.7546 C 300.106,-83.6157 301.476,-83.9682 302.337,-83.4597z"/>
    <path style="fill: none; fill-opacity:0; stroke-width: 2; stroke: #000000" d="M 302.337 -83.4597 C 303.198,-82.9512 303.55,-81.5816 303.042,-80.7205 C 302.533,-79.8595 301.164,-79.507 300.303,-80.0155 C 299.442,-80.524 299.089,-81.8936 299.598,-82.7546 C 300.106,-83.6157 301.476,-83.9682 302.337,-83.4597"/>
    <path style="fill: #000000" d="M 280.361 -46.2497 C 279.5,-46.7582 279.147,-48.1278 279.656,-48.9888 C 280.164,-49.8499 281.534,-50.2024 282.395,-49.6939 C 283.256,-49.1853 283.609,-47.8158 283.1,-46.9547 C 282.591,-46.0937 281.222,-45.7412 280.361,-46.2497z"/>
    <path style="fill: none; fill-opacity:0; stroke-width: 2; stroke: #000000" d="M 280.361 -46.2497 C 279.5,-46.7582 279.147,-48.1278 279.656,-48.9888 C 280.164,-49.8499 281.534,-50.2024 282.395,-49.6939 C 283.256,-49.1853 283.609,-47.8158 283.1,-46.9547 C 282.591,-46.0937 281.222,-45.7412 280.361,-46.2497"/>
  </g>
  <g>
    <line style="fill: none; fill-opacity:0; stroke-width: 2; stroke: #000000" x1="300.111" y1="-83.1237" x2="334.087" y2="-46.9597"/>
    <path style="fill: #000000" d="M 300.111 -83.1237 C 300.84,-83.8084 302.253,-83.7643 302.938,-83.0355 C 303.623,-82.3067 303.579,-80.8932 302.85,-80.2084 C 302.121,-79.5237 300.707,-79.5678 300.023,-80.2966 C 299.338,-81.0254 299.382,-82.439 300.111,-83.1237z"/>
    <path style="fill: none; fill-opacity:0; stroke-width: 2; stroke: #000000" d="M 300.111 -83.1237 C 300.84,-83.8084 302.253,-83.7643 302.938,-83.0355 C 303.623,-82.3067 303.579,-80.8932 302.85,-80.2084 C 302.121,-79.5237 300.707,-79.5678 300.023,-80.2966 C 299.338,-81.0254 299.382,-82.439 300.111,-83.1237"/>
    <path style="fill: #000000" d="M 334.087 -46.9597 C 333.358,-46.275 331.945,-46.3191 331.26,-47.0479 C 330.575,-47.7767 330.619,-49.1902 331.348,-49.8749 C 332.077,-50.5596 333.49,-50.5155 334.175,-49.7867 C 334.86,-49.0579 334.816,-47.6444 334.087,-46.9597z"/>
    <path style="fill: none; fill-opacity:0; stroke-width: 2; stroke: #000000" d="M 334.087 -46.9597 C 333.358,-46.275 331.945,-46.3191 331.26,-47.0479 C 330.575,-47.7767 330.619,-49.1902 331.348,-49.8749 C 332.077,-50.5596 333.49,-50.5155 334.175,-49.7867 C 334.86,-49.0579 334.816,-47.6444 334.087,-46.9597"/>
  </g>
  <g>
    <line style="fill: none; fill-opacity:0; stroke-width: 2; stroke: #000000" x1="280.087" y1="-47.7097" x2="334.587" y2="-47.7097"/>
    <path style="fill: #000000" d="M 280.087 -47.7097 C 280.087,-48.7097 281.087,-49.7097 282.087,-49.7097 C 283.087,-49.7097 284.087,-48.7097 284.087,-47.7097 C 284.087,-46.7097 283.087,-45.7097 282.087,-45.7097 C 281.087,-45.7097 280.087,-46.7097 280.087,-47.7097z"/>
    <path style="fill: none; fill-opacity:0; stroke-width: 2; stroke: #000000" d="M 280.087 -47.7097 C 280.087,-48.7097 281.087,-49.7097 282.087,-49.7097 C 283.087,-49.7097 284.087,-48.7097 284.087,-47.7097 C 284.087,-46.7097 283.087,-45.7097 282.087,-45.7097 C 281.087,-45.7097 280.087,-46.7097 280.087,-47.7097"/>
    <path style="fill: #000000" d="M 334.587 -47.7097 C 334.587,-46.7097 333.587,-45.7097 332.587,-45.7097 C 331.587,-45.7097 330.587,-46.7097 330.587,-47.7097 C 330.587,-48.7097 331.587,-49.7097 332.587,-49.7097 C 333.587,-49.7097 334.587,-48.7097 334.587,-47.7097z"/>
    <path style="fill: none; fill-opacity:0; stroke-width: 2; stroke: #000000" d="M 334.587 -47.7097 C 334.587,-46.7097 333.587,-45.7097 332.587,-45.7097 C 331.587,-45.7097 330.587,-46.7097 330.587,-47.7097 C 330.587,-48.7097 331.587,-49.7097 332.587,-49.7097 C 333.587,-49.7097 334.587,-48.7097 334.587,-47.7097"/>
  </g>
  <g>
    <line style="fill: none; fill-opacity:0; stroke-width: 2; stroke: #000000" x1="299.111" y1="-81.7497" x2="357.087" y2="-81.4597"/>
    <path style="fill: #000000" d="M 299.111 -81.7497 C 299.116,-82.7497 300.121,-83.7447 301.121,-83.7397 C 302.121,-83.7347 303.116,-82.7297 303.111,-81.7297 C 303.106,-80.7297 302.101,-79.7347 301.101,-79.7397 C 300.101,-79.7447 299.106,-80.7497 299.111,-81.7497z"/>
    <path style="fill: none; fill-opacity:0; stroke-width: 2; stroke: #000000" d="M 299.111 -81.7497 C 299.116,-82.7497 300.121,-83.7447 301.121,-83.7397 C 302.121,-83.7347 303.116,-82.7297 303.111,-81.7297 C 303.106,-80.7297 302.101,-79.7347 301.101,-79.7397 C 300.101,-79.7447 299.106,-80.7497 299.111,-81.7497"/>
    <path style="fill: #000000" d="M 357.087 -81.4597 C 357.082,-80.4597 356.077,-79.4647 355.077,-79.4697 C 354.077,-79.4747 353.082,-80.4797 353.087,-81.4797 C 353.092,-82.4797 354.097,-83.4747 355.097,-83.4697 C 356.097,-83.4647 357.092,-82.4597 357.087,-81.4597z"/>
    <path style="fill: none; fill-opacity:0; stroke-width: 2; stroke: #000000" d="M 357.087 -81.4597 C 357.082,-80.4597 356.077,-79.4647 355.077,-79.4697 C 354.077,-79.4747 353.082,-80.4797 353.087,-81.4797 C 353.092,-82.4797 354.097,-83.4747 355.097,-83.4697 C 356.097,-83.4647 357.092,-82.4597 357.087,-81.4597"/>
  </g>
  <g>
    <line style="fill: none; fill-opacity:0; stroke-width: 2; stroke: #000000" x1="356.587" y1="-83.4597" x2="332.361" y2="-46.4997"/>
    <path style="fill: #000000" d="M 356.587 -83.4597 C 357.423,-82.9115 357.711,-81.5269 357.163,-80.6906 C 356.615,-79.8542 355.23,-79.5661 354.394,-80.1143 C 353.558,-80.6625 353.27,-82.047 353.818,-82.8834 C 354.366,-83.7197 355.751,-84.0079 356.587,-83.4597z"/>
    <path style="fill: none; fill-opacity:0; stroke-width: 2; stroke: #000000" d="M 356.587 -83.4597 C 357.423,-82.9115 357.711,-81.5269 357.163,-80.6906 C 356.615,-79.8542 355.23,-79.5661 354.394,-80.1143 C 353.558,-80.6625 353.27,-82.047 353.818,-82.8834 C 354.366,-83.7197 355.751,-84.0079 356.587,-83.4597"/>
    <path style="fill: #000000" d="M 332.361 -46.4997 C 331.525,-47.0479 331.236,-48.4324 331.785,-49.2688 C 332.333,-50.1051 333.717,-50.3933 334.554,-49.8451 C 335.39,-49.2969 335.678,-47.9123 335.13,-47.076 C 334.582,-46.2396 333.197,-45.9515 332.361,-46.4997z"/>
    <path style="fill: none; fill-opacity:0; stroke-width: 2; stroke: #000000" d="M 332.361 -46.4997 C 331.525,-47.0479 331.236,-48.4324 331.785,-49.2688 C 332.333,-50.1051 333.717,-50.3933 334.554,-49.8451 C 335.39,-49.2969 335.678,-47.9123 335.13,-47.076 C 334.582,-46.2396 333.197,-45.9515 332.361,-46.4997"/>
  </g>
  <g>
    <line style="fill: none; fill-opacity:0; stroke-width: 2; stroke: #000000" x1="354.111" y1="-82.8737" x2="393.087" y2="-57.4597"/>
    <path style="fill: #000000" d="M 354.111 -82.8737 C 354.657,-83.7113 356.041,-84.0028 356.879,-83.4566 C 357.716,-82.9104 358.008,-81.5266 357.462,-80.6889 C 356.915,-79.8513 355.531,-79.5598 354.694,-80.106 C 353.856,-80.6522 353.565,-82.036 354.111,-82.8737z"/>
    <path style="fill: none; fill-opacity:0; stroke-width: 2; stroke: #000000" d="M 354.111 -82.8737 C 354.657,-83.7113 356.041,-84.0028 356.879,-83.4566 C 357.716,-82.9104 358.008,-81.5266 357.462,-80.6889 C 356.915,-79.8513 355.531,-79.5598 354.694,-80.106 C 353.856,-80.6522 353.565,-82.036 354.111,-82.8737"/>
    <path style="fill: #000000" d="M 393.087 -57.4597 C 392.541,-56.622 391.157,-56.3306 390.319,-56.8767 C 389.482,-57.4229 389.19,-58.8068 389.736,-59.6444 C 390.282,-60.4821 391.666,-60.7736 392.504,-60.2274 C 393.342,-59.6812 393.633,-58.2973 393.087,-57.4597z"/>
    <path style="fill: none; fill-opacity:0; stroke-width: 2; stroke: #000000" d="M 393.087 -57.4597 C 392.541,-56.622 391.157,-56.3306 390.319,-56.8767 C 389.482,-57.4229 389.19,-58.8068 389.736,-59.6444 C 390.282,-60.4821 391.666,-60.7736 392.504,-60.2274 C 393.342,-59.6812 393.633,-58.2973 393.087,-57.4597"/>
  </g>
  <g>
    <line style="fill: none; fill-opacity:0; stroke-width: 2; stroke: #000000" x1="332.788" y1="-47.867" x2="393.337" y2="-58.7097"/>
    <path style="fill: #000000" d="M 332.788 -47.867 C 332.611,-48.8513 333.42,-50.012 334.404,-50.1882 C 335.388,-50.3645 336.549,-49.5564 336.725,-48.5721 C 336.901,-47.5877 336.093,-46.4271 335.109,-46.2509 C 334.125,-46.0746 332.964,-46.8827 332.788,-47.867z"/>
    <path style="fill: none; fill-opacity:0; stroke-width: 2; stroke: #000000" d="M 332.788 -47.867 C 332.611,-48.8513 333.42,-50.012 334.404,-50.1882 C 335.388,-50.3645 336.549,-49.5564 336.725,-48.5721 C 336.901,-47.5877 336.093,-46.4271 335.109,-46.2509 C 334.125,-46.0746 332.964,-46.8827 332.788,-47.867"/>
    <path style="fill: #000000" d="M 393.337 -58.7097 C 393.513,-57.7253 392.705,-56.5647 391.721,-56.3885 C 390.736,-56.2122 389.576,-57.0203 389.4,-58.0046 C 389.223,-58.989 390.031,-60.1496 391.016,-60.3258 C 392,-60.5021 393.161,-59.694 393.337,-58.7097z"/>
    <path style="fill: none; fill-opacity:0; stroke-width: 2; stroke: #000000" d="M 393.337 -58.7097 C 393.513,-57.7253 392.705,-56.5647 391.721,-56.3885 C 390.736,-56.2122 389.576,-57.0203 389.4,-58.0046 C 389.223,-58.989 390.031,-60.1496 391.016,-60.3258 C 392,-60.5021 393.161,-59.694 393.337,-58.7097"/>
  </g>
  <g>
    <line style="fill: none; fill-opacity:0; stroke-width: 2; stroke: #000000" x1="392.087" y1="-60.2097" x2="371.837" y2="-14.4597"/>
    <path style="fill: #000000" d="M 392.087 -60.2097 C 393.001,-59.8049 393.511,-58.4858 393.106,-57.5713 C 392.701,-56.6569 391.382,-56.1472 390.468,-56.552 C 389.553,-56.9567 389.044,-58.2759 389.449,-59.1903 C 389.853,-60.1047 391.172,-60.6144 392.087,-60.2097z"/>
    <path style="fill: none; fill-opacity:0; stroke-width: 2; stroke: #000000" d="M 392.087 -60.2097 C 393.001,-59.8049 393.511,-58.4858 393.106,-57.5713 C 392.701,-56.6569 391.382,-56.1472 390.468,-56.552 C 389.553,-56.9567 389.044,-58.2759 389.449,-59.1903 C 389.853,-60.1047 391.172,-60.6144 392.087,-60.2097"/>
    <path style="fill: #000000" d="M 371.837 -14.4597 C 370.922,-14.8644 370.413,-16.1836 370.818,-17.098 C 371.222,-18.0125 372.541,-18.5221 373.456,-18.1174 C 374.37,-17.7127 374.88,-16.3935 374.475,-15.479 C 374.07,-14.5646 372.751,-14.0549 371.837,-14.4597z"/>
    <path style="fill: none; fill-opacity:0; stroke-width: 2; stroke: #000000" d="M 371.837 -14.4597 C 370.922,-14.8644 370.413,-16.1836 370.818,-17.098 C 371.222,-18.0125 372.541,-18.5221 373.456,-18.1174 C 374.37,-17.7127 374.88,-16.3935 374.475,-15.479 C 374.07,-14.5646 372.751,-14.0549 371.837,-14.4597"/>
  </g>
  <g>
    <line style="fill: none; fill-opacity:0; stroke-width: 2; stroke: #000000" x1="331.487" y1="-49.2497" x2="373.087" y2="-14.9597"/>
    <path style="fill: #000000" d="M 331.487 -49.2497 C 332.123,-50.0213 333.531,-50.1569 334.302,-49.5209 C 335.074,-48.8848 335.21,-47.4771 334.573,-46.7055 C 333.937,-45.9338 332.53,-45.7982 331.758,-46.4343 C 330.986,-47.0703 330.851,-48.478 331.487,-49.2497z"/>
    <path style="fill: none; fill-opacity:0; stroke-width: 2; stroke: #000000" d="M 331.487 -49.2497 C 332.123,-50.0213 333.531,-50.1569 334.302,-49.5209 C 335.074,-48.8848 335.21,-47.4771 334.573,-46.7055 C 333.937,-45.9338 332.53,-45.7982 331.758,-46.4343 C 330.986,-47.0703 330.851,-48.478 331.487,-49.2497"/>
    <path style="fill: #000000" d="M 373.087 -14.9597 C 372.451,-14.188 371.043,-14.0524 370.271,-14.6885 C 369.5,-15.3245 369.364,-16.7322 370,-17.5039 C 370.636,-18.2755 372.044,-18.4111 372.816,-17.7751 C 373.587,-17.139 373.723,-15.7313 373.087,-14.9597z"/>
    <path style="fill: none; fill-opacity:0; stroke-width: 2; stroke: #000000" d="M 373.087 -14.9597 C 372.451,-14.188 371.043,-14.0524 370.271,-14.6885 C 369.5,-15.3245 369.364,-16.7322 370,-17.5039 C 370.636,-18.2755 372.044,-18.4111 372.816,-17.7751 C 373.587,-17.139 373.723,-15.7313 373.087,-14.9597"/>
  </g>
  <g>
    <line style="fill: none; fill-opacity:0; stroke-width: 2; stroke: #000000" x1="334.087" y1="-49.4597" x2="308.837" y2="-14.7097"/>
    <path style="fill: #000000" d="M 334.087 -49.4597 C 334.896,-48.8719 335.117,-47.475 334.529,-46.6661 C 333.941,-45.8571 332.545,-45.6359 331.736,-46.2237 C 330.927,-46.8116 330.705,-48.2084 331.293,-49.0174 C 331.881,-49.8263 333.278,-50.0475 334.087,-49.4597z"/>
    <path style="fill: none; fill-opacity:0; stroke-width: 2; stroke: #000000" d="M 334.087 -49.4597 C 334.896,-48.8719 335.117,-47.475 334.529,-46.6661 C 333.941,-45.8571 332.545,-45.6359 331.736,-46.2237 C 330.927,-46.8116 330.705,-48.2084 331.293,-49.0174 C 331.881,-49.8263 333.278,-50.0475 334.087,-49.4597"/>
    <path style="fill: #000000" d="M 308.837 -14.7097 C 308.028,-15.2975 307.807,-16.6943 308.395,-17.5033 C 308.982,-18.3123 310.379,-18.5335 311.188,-17.9456 C 311.997,-17.3578 312.218,-15.961 311.631,-15.152 C 311.043,-14.343 309.646,-14.1219 308.837,-14.7097z"/>
    <path style="fill: none; fill-opacity:0; stroke-width: 2; stroke: #000000" d="M 308.837 -14.7097 C 308.028,-15.2975 307.807,-16.6943 308.395,-17.5033 C 308.982,-18.3123 310.379,-18.5335 311.188,-17.9456 C 311.997,-17.3578 312.218,-15.961 311.631,-15.152 C 311.043,-14.343 309.646,-14.1219 308.837,-14.7097"/>
  </g>
  <g>
    <line style="fill: none; fill-opacity:0; stroke-width: 2; stroke: #000000" x1="308.987" y1="-15.9997" x2="373.837" y2="-16.2097"/>
    <path style="fill: #000000" d="M 308.987 -15.9997 C 308.984,-16.9997 309.98,-18.0029 310.98,-18.0061 C 311.98,-18.0094 312.984,-17.0126 312.987,-16.0126 C 312.99,-15.0126 311.993,-14.0094 310.993,-14.0062 C 309.993,-14.0029 308.99,-14.9997 308.987,-15.9997z"/>
    <path style="fill: none; fill-opacity:0; stroke-width: 2; stroke: #000000" d="M 308.987 -15.9997 C 308.984,-16.9997 309.98,-18.0029 310.98,-18.0061 C 311.98,-18.0094 312.984,-17.0126 312.987,-16.0126 C 312.99,-15.0126 311.993,-14.0094 310.993,-14.0062 C 309.993,-14.0029 308.99,-14.9997 308.987,-15.9997"/>
    <path style="fill: #000000" d="M 373.837 -16.2097 C 373.84,-15.2097 372.843,-14.2065 371.843,-14.2032 C 370.843,-14.2 369.84,-15.1967 369.837,-16.1967 C 369.834,-17.1967 370.83,-18.2 371.83,-18.2032 C 372.83,-18.2064 373.834,-17.2097 373.837,-16.2097z"/>
    <path style="fill: none; fill-opacity:0; stroke-width: 2; stroke: #000000" d="M 373.837 -16.2097 C 373.84,-15.2097 372.843,-14.2065 371.843,-14.2032 C 370.843,-14.2 369.84,-15.1967 369.837,-16.1967 C 369.834,-17.1967 370.83,-18.2 371.83,-18.2032 C 372.83,-18.2064 373.834,-17.2097 373.837,-16.2097"/>
  </g>
  <g>
    <line style="fill: none; fill-opacity:0; stroke-width: 2; stroke: #000000" x1="281.361" y1="-49.1237" x2="311.337" y2="-14.9597"/>
    <path style="fill: #000000" d="M 281.361 -49.1237 C 282.113,-49.7832 283.524,-49.6911 284.183,-48.9394 C 284.843,-48.1877 284.751,-46.7765 283.999,-46.117 C 283.247,-45.4574 281.836,-45.5496 281.177,-46.3013 C 280.517,-47.0529 280.609,-48.4642 281.361,-49.1237z"/>
    <path style="fill: none; fill-opacity:0; stroke-width: 2; stroke: #000000" d="M 281.361 -49.1237 C 282.113,-49.7832 283.524,-49.6911 284.183,-48.9394 C 284.843,-48.1877 284.751,-46.7765 283.999,-46.117 C 283.247,-45.4574 281.836,-45.5496 281.177,-46.3013 C 280.517,-47.0529 280.609,-48.4642 281.361,-49.1237"/>
    <path style="fill: #000000" d="M 311.337 -14.9597 C 310.585,-14.3002 309.174,-14.3923 308.514,-15.144 C 307.855,-15.8956 307.947,-17.3069 308.699,-17.9664 C 309.45,-18.6259 310.862,-18.5338 311.521,-17.7821 C 312.181,-17.0304 312.089,-15.6192 311.337,-14.9597z"/>
    <path style="fill: none; fill-opacity:0; stroke-width: 2; stroke: #000000" d="M 311.337 -14.9597 C 310.585,-14.3002 309.174,-14.3923 308.514,-15.144 C 307.855,-15.8956 307.947,-17.3069 308.699,-17.9664 C 309.45,-18.6259 310.862,-18.5338 311.521,-17.7821 C 312.181,-17.0304 312.089,-15.6192 311.337,-14.9597"/>
  </g>
  <g>
    <line style="fill: none; fill-opacity:0; stroke-width: 2; stroke: #000000" x1="282.337" y1="-49.2097" x2="282.087" y2="-2.95988"/>
    <path style="fill: #000000" d="M 282.337 -49.2097 C 283.337,-49.2043 284.331,-48.1989 284.326,-47.1989 C 284.321,-46.1989 283.315,-45.2043 282.315,-45.2097 C 281.315,-45.2151 280.321,-46.2205 280.326,-47.2205 C 280.332,-48.2205 281.337,-49.2151 282.337,-49.2097z"/>
    <path style="fill: none; fill-opacity:0; stroke-width: 2; stroke: #000000" d="M 282.337 -49.2097 C 283.337,-49.2043 284.331,-48.1989 284.326,-47.1989 C 284.321,-46.1989 283.315,-45.2043 282.315,-45.2097 C 281.315,-45.2151 280.321,-46.2205 280.326,-47.2205 C 280.332,-48.2205 281.337,-49.2151 282.337,-49.2097"/>
    <path style="fill: #000000" d="M 282.087 -2.95988 C 281.087,-2.96529 280.092,-3.97068 280.098,-4.97066 C 280.103,-5.97065 281.109,-6.96523 282.109,-6.95982 C 283.108,-6.95442 284.103,-5.94903 284.098,-4.94904 C 284.092,-3.94906 283.087,-2.95448 282.087,-2.95988z"/>
    <path style="fill: none; fill-opacity:0; stroke-width: 2; stroke: #000000" d="M 282.087 -2.95988 C 281.087,-2.96529 280.092,-3.97068 280.098,-4.97066 C 280.103,-5.97065 281.109,-6.96523 282.109,-6.95982 C 283.108,-6.95442 284.103,-5.94903 284.098,-4.94904 C 284.092,-3.94906 283.087,-2.95448 282.087,-2.95988"/>
  </g>
  <g>
    <line style="fill: none; fill-opacity:0; stroke-width: 2; stroke: #000000" x1="239.087" y1="-22.2097" x2="283.587" y2="-4.45988"/>
    <path style="fill: #000000" d="M 239.087 -22.2097 C 239.457,-23.1385 240.757,-23.6969 241.686,-23.3264 C 242.614,-22.9559 243.173,-21.6566 242.802,-20.7277 C 242.432,-19.7989 241.132,-19.2405 240.204,-19.611 C 239.275,-19.9815 238.716,-21.2808 239.087,-22.2097z"/>
    <path style="fill: none; fill-opacity:0; stroke-width: 2; stroke: #000000" d="M 239.087 -22.2097 C 239.457,-23.1385 240.757,-23.6969 241.686,-23.3264 C 242.614,-22.9559 243.173,-21.6566 242.802,-20.7277 C 242.432,-19.7989 241.132,-19.2405 240.204,-19.611 C 239.275,-19.9815 238.716,-21.2808 239.087,-22.2097"/>
    <path style="fill: #000000" d="M 283.587 -4.45988 C 283.216,-3.53105 281.917,-2.97269 280.988,-3.34318 C 280.059,-3.71367 279.501,-5.01299 279.872,-5.94183 C 280.242,-6.87067 281.541,-7.42902 282.47,-7.05853 C 283.399,-6.68805 283.957,-5.38872 283.587,-4.45988z"/>
    <path style="fill: none; fill-opacity:0; stroke-width: 2; stroke: #000000" d="M 283.587 -4.45988 C 283.216,-3.53105 281.917,-2.97269 280.988,-3.34318 C 280.059,-3.71367 279.501,-5.01299 279.872,-5.94183 C 280.242,-6.87067 281.541,-7.42902 282.47,-7.05853 C 283.399,-6.68805 283.957,-5.38872 283.587,-4.45988"/>
  </g>
  <g>
    <line style="fill: none; fill-opacity:0; stroke-width: 2; stroke: #000000" x1="280.087" y1="-4.20988" x2="311.837" y2="-16.7097"/>
    <path style="fill: #000000" d="M 280.087 -4.20988 C 279.721,-5.14037 280.285,-6.43718 281.215,-6.80351 C 282.146,-7.16984 283.442,-6.60568 283.809,-5.67519 C 284.175,-4.74471 283.611,-3.44789 282.681,-3.08157 C 281.75,-2.71524 280.453,-3.2794 280.087,-4.20988z"/>
    <path style="fill: none; fill-opacity:0; stroke-width: 2; stroke: #000000" d="M 280.087 -4.20988 C 279.721,-5.14037 280.285,-6.43718 281.215,-6.80351 C 282.146,-7.16984 283.442,-6.60568 283.809,-5.67519 C 284.175,-4.74471 283.611,-3.44789 282.681,-3.08157 C 281.75,-2.71524 280.453,-3.2794 280.087,-4.20988"/>
    <path style="fill: #000000" d="M 311.837 -16.7097 C 312.203,-15.7792 311.639,-14.4824 310.709,-14.1161 C 309.778,-13.7497 308.481,-14.3139 308.115,-15.2444 C 307.749,-16.1749 308.313,-17.4717 309.243,-17.838 C 310.174,-18.2043 311.471,-17.6402 311.837,-16.7097z"/>
    <path style="fill: none; fill-opacity:0; stroke-width: 2; stroke: #000000" d="M 311.837 -16.7097 C 312.203,-15.7792 311.639,-14.4824 310.709,-14.1161 C 309.778,-13.7497 308.481,-14.3139 308.115,-15.2444 C 307.749,-16.1749 308.313,-17.4717 309.243,-17.838 C 310.174,-18.2043 311.471,-17.6402 311.837,-16.7097"/>
  </g>
  <text font-size="6.77333" style="fill: #ff0000;text-anchor:start;font-family:sans-serif;font-style:normal;font-weight:normal" x="247.587" y="-45.4597">
    <tspan x="247.587" y="-45.4597">(2, 0)</tspan>
  </text>
  <text font-size="6.77333" style="fill: #ff0000;text-anchor:start;font-family:sans-serif;font-style:normal;font-weight:normal" x="259.287" y="-23.4857">
    <tspan x="259.287" y="-23.4857">(2, 1)</tspan>
  </text>
  <text font-size="6.77333" style="fill: #ff0000;text-anchor:start;font-family:sans-serif;font-style:normal;font-weight:normal" x="284.237" y="-16.5097">
    <tspan x="284.237" y="-16.5097">(2, 2)</tspan>
  </text>
  <text font-size="6.77333" style="fill: #ff0000;text-anchor:start;font-family:sans-serif;font-style:normal;font-weight:normal" x="301.687" y="-35.7857">
    <tspan x="301.687" y="-35.7857">(2, 3)</tspan>
  </text>
  <text font-size="6.77333" style="fill: #ff0000;text-anchor:start;font-family:sans-serif;font-style:normal;font-weight:normal" x="328.887" y="-23.8097">
    <tspan x="328.887" y="-23.8097">(2, 4)</tspan>
  </text>
  <text font-size="6.77333" style="fill: #ff0000;text-anchor:start;font-family:sans-serif;font-style:normal;font-weight:normal" x="356.587" y="-38.5857">
    <tspan x="356.587" y="-38.5857">(2, 5)</tspan>
  </text>
  <text font-size="6.77333" style="fill: #ff0000;text-anchor:start;font-family:sans-serif;font-style:normal;font-weight:normal" x="352.037" y="-61.6097">
    <tspan x="352.037" y="-61.6097">(2, 6)</tspan>
  </text>
  <text font-size="6.77333" style="fill: #ff0000;text-anchor:start;font-family:sans-serif;font-style:normal;font-weight:normal" x="324.237" y="-68.8857">
    <tspan x="324.237" y="-68.8857">(2, 7)</tspan>
  </text>
  <text font-size="6.77333" style="fill: #ff0000;text-anchor:start;font-family:sans-serif;font-style:normal;font-weight:normal" x="296.437" y="-57.6597">
    <tspan x="296.437" y="-57.6597">(2, 8)</tspan>
  </text>
  <text font-size="6.77333" style="fill: #ff0000;text-anchor:start;font-family:sans-serif;font-style:normal;font-weight:normal" x="266.637" y="-67.9357">
    <tspan x="266.637" y="-67.9357">(2, 9)</tspan>
  </text>
  <text font-size="12.8" style="fill: #ff0000;text-anchor:start;font-family:sans-serif;font-style:normal;font-weight:normal" x="270.087" y="-24.4597">
    <tspan x="270.087" y="-24.4597"></tspan>
  </text>
  <text font-size="6.20879" style="fill: #000000;text-anchor:start;font-family:sans-serif;font-style:normal;font-weight:normal" x="48.0977" y="-61.9755">
    <tspan x="48.0977" y="-61.9755">Metis/ParMetis Partition (2 way)</tspan>
    <tspan x="48.0977" y="-54.2144">P0     part    0  0  0  1  1</tspan>
    <tspan x="48.0977" y="-46.4533">P1     part    1  1  1  0  0</tspan>
    <tspan x="48.0977" y="-38.6922"></tspan>
  </text>
</svg>
